<?xml version="1.0" encoding="UTF-8"?>
<svg width="63px" height="57px" viewBox="0 0 63 57" version="1.1" xmlns="http://www.w3.org/2000/svg" xmlns:xlink="http://www.w3.org/1999/xlink">
    <!-- Generator: Sketch 48.2 (47327) - http://www.bohemiancoding.com/sketch -->
    <title>Bitbucket-icon-white</title>
    <desc>Created with Sketch.</desc>
    <defs>
        <linearGradient x1="100.866322%" y1="25.6261254%" x2="46.5685299%" y2="75.2076031%" id="linearGradient-1">
            <stop stop-color="#DFE1E6" stop-opacity="0.4" offset="0%"></stop>
            <stop stop-color="#DFE1E6" offset="100%"></stop>
        </linearGradient>
    </defs>
    <g id="Page-1" stroke="none" stroke-width="1" fill="none" fill-rule="evenodd">
        <g id="Bitbucket-icon-white" transform="translate(-1.000000, 0.000000)">
            <polygon id="Shape" points="25.7 37.25 38.75 37.25 41.9 18.87 22.23 18.87"></polygon>
            <path d="M60.67,18.87 L41.9,18.87 L38.75,37.25 L25.75,37.25 L10.4,55.48 C10.8865272,55.9007026 11.5068276,56.1346445 12.15,56.14 L52.89,56.14 C53.8807856,56.152752 54.7315432,55.4381156 54.89,54.46 L60.67,18.87 Z" id="Shape" fill="url(#linearGradient-1)" fill-rule="nonzero"></path>
            <path d="M3,-4.59647511e-16 C2.40916454,-0.00762032491 1.84519911,0.246412548 1.45938714,0.69395443 C1.07357517,1.14149631 0.905409324,1.73673573 1,2.32 L9.49,53.86 C9.59434852,54.4870575 9.91659757,55.0571904 10.4,55.47 C10.8865272,55.8907026 11.5068276,56.1246445 12.15,56.13 L27.91,37.25 L25.7,37.25 L22.23,18.87 L60.67,18.87 L63.37,2.34 C63.4702551,1.75884857 63.3089142,1.16307502 62.9291038,0.711929668 C62.5492934,0.260784319 61.9897355,0.000261869336 61.4,-4.59647511e-16 L3,-4.59647511e-16 Z" id="Shape" fill="#DFE1E6" fill-rule="nonzero"></path>
        </g>
    </g>
</svg>