<svg id="Layer_1" data-name="Layer 1" xmlns="http://www.w3.org/2000/svg" viewBox="0 0 120 145"><defs><style>.cls-1{opacity:0.66;}.cls-2{fill:#f5f5f5;stroke-linecap:round;stroke-linejoin:round;}.cls-2,.cls-6{stroke:#205081;stroke-width:3px;}.cls-3{fill:#3572b0;opacity:0.2;}.cls-4,.cls-5{fill:#205081;}.cls-5{opacity:0.4;}.cls-6{fill:none;stroke-miterlimit:10;}</style></defs><title>lfs-download-illustration</title><g class="cls-1"><g id="_Group_" data-name="&lt;Group&gt;"><path id="_Path_" data-name="&lt;Path&gt;" class="cls-2" d="M111.45,139.34H9.44a4,4,0,0,1-4-4v-124a4,4,0,0,1,4-4h91l15,15.16V135.35A4,4,0,0,1,111.45,139.34Z"/><g id="_Group_2" data-name="&lt;Group&gt;"><path class="cls-3" d="M101.88,24.19a3.5,3.5,0,0,1-3.5-3.5v-12a1.5,1.5,0,0,1,2.56-1.06l14,14a1.5,1.5,0,0,1-1.06,2.56h-12Z"/><path class="cls-4" d="M99.88,8.69l14,14h-12a2,2,0,0,1-2-2v-12m0-3a3,3,0,0,0-3,3v12a5,5,0,0,0,5,5h12A3,3,0,0,0,116,20.57l-14-14a3,3,0,0,0-2.12-.88h0Z"/></g></g><rect class="cls-5" x="29.88" y="92.69" width="62.5" height="3"/><rect class="cls-5" x="29.88" y="103.69" width="43.75" height="3"/><rect class="cls-5" x="29.88" y="114.69" width="53.62" height="3"/><polyline class="cls-6" points="44.8 63.46 59.29 77.95 75.2 62.05"/><line class="cls-6" x1="59.5" y1="78" x2="59.5" y2="27"/></g></svg>