<?xml version="1.0" encoding="UTF-8"?>
<svg width="204px" height="144px" viewBox="0 0 204 144" version="1.1" xmlns="http://www.w3.org/2000/svg" xmlns:xlink="http://www.w3.org/1999/xlink">
    <!-- Generator: Sketch 46.2 (44496) - http://www.bohemiancoding.com/sketch -->
    <title>software 31</title>
    <desc>Created with Sketch.</desc>
    <defs></defs>
    <g id="Design" stroke="none" stroke-width="1" fill="none" fill-rule="evenodd">
        <g id="00-00-fork-visibility-copy-2" transform="translate(-683.000000, -222.000000)" fill-rule="nonzero">
            <g id="software-31" transform="translate(683.000000, 222.000000)">
                <g id="_Group_">
                    <rect id="Rectangle-path" fill="#F5F5F5" x="2" y="2" width="200" height="140" rx="8"></rect>
                    <path d="M194,144 L10,144 C4.4771525,144 0,139.522847 0,134 L0,10 C0,4.4771525 4.4771525,7.10542736e-15 10,7.10542736e-15 L194,7.10542736e-15 C199.522847,1.42108547e-14 204,4.4771525 204,10 L204,134 C204,139.522847 199.522847,144 194,144 Z M10,4 C6.6862915,4 4,6.6862915 4,10 L4,134 C4,137.313708 6.6862915,140 10,140 L194,140 C197.313708,140 200,137.313708 200,134 L200,10 C200,6.6862915 197.313708,4 194,4 L10,4 Z" id="Shape" fill="#205081"></path>
                </g>
                <g id="_Group_2">
                    <path d="M10,2 L194,2 C198.418278,2 202,5.581722 202,10 L202,22 L2,22 L2,10 C2,5.581722 5.581722,2 10,2 Z" id="Shape" fill="#3572B0"></path>
                    <path d="M204,24 L0,24 L0,10 C0,4.4771525 4.4771525,7.10542736e-15 10,7.10542736e-15 L194,7.10542736e-15 C199.522847,1.42108547e-14 204,4.4771525 204,10 L204,24 Z M4,20 L200,20 L200,10 C200,6.6862915 197.313708,4 194,4 L10,4 C6.6862915,4 4,6.6862915 4,10 L4,20 Z" id="Shape" fill="#205081"></path>
                </g>
                <g id="_Group_3" transform="translate(11.000000, 10.000000)">
                    <circle id="_Path_" fill="#FF4E4A" cx="2" cy="2" r="1.5"></circle>
                    <circle id="_Path_2" fill="#FFBD17" cx="7.5" cy="2" r="1.5"></circle>
                    <circle id="_Path_3" fill="#4AC6C6" cx="13" cy="2" r="1.5"></circle>
                </g>
                <rect id="_Rectangle_" fill="#205081" opacity="0.2" x="2" y="18" width="200" height="12"></rect>
                <circle id="_Path_4" fill="#59AFE1" cx="102" cy="83.19" r="46.81"></circle>
                <g id="_Group_4" transform="translate(85.000000, 63.000000)" fill="#FFFFFF">
                    <g id="_Group_5">
                        <path d="M7.56,15.17 C3.38472729,15.17 2.84217094e-14,11.7852727 2.84217094e-14,7.61 C2.84217094e-14,3.43472729 3.38472729,0.05 7.56,0.05 C11.7352727,0.05 15.12,3.43472729 15.12,7.61 C15.12,9.61503666 14.3235023,11.5379522 12.9057273,12.9557273 C11.4879522,14.3735023 9.56503666,15.17 7.56,15.17 L7.56,15.17 Z M7.56,4.06 C5.59386629,4.06 4,5.65386629 4,7.62 C4,9.58613371 5.59386629,11.18 7.56,11.18 C9.52613371,11.18 11.12,9.58613371 11.12,7.62 C11.12,6.6758293 10.7449296,5.77032937 10.0773001,5.10269986 C9.40967063,4.43507035 8.5041707,4.06 7.56,4.06 L7.56,4.06 Z" id="Shape"></path>
                    </g>
                    <g id="_Group_6" transform="translate(18.000000, 0.000000)">
                        <path d="M8.44,15.17 C4.26472729,15.17 0.88,11.7852727 0.88,7.61 C0.88,3.43472729 4.26472729,0.05 8.44,0.05 C12.6152727,0.05 16,3.43472729 16,7.61 C16,11.7852727 12.6152727,15.17 8.44,15.17 L8.44,15.17 Z M8.44,4.06 C6.47386629,4.06 4.88,5.65386629 4.88,7.62 C4.88,9.58613371 6.47386629,11.18 8.44,11.18 C10.4061337,11.18 12,9.58613371 12,7.62 C12,5.65386629 10.4061337,4.06 8.44,4.06 L8.44,4.06 Z" id="Shape"></path>
                    </g>
                    <circle id="_Path_5" cx="16" cy="36.78" r="5.56"></circle>
                    <g id="_Group_7" transform="translate(4.000000, 13.000000)">
                        <path d="M18.44,14.28 L6.77,14.28 C3.4562915,14.28 0.77,11.5937085 0.77,8.28 L0.77,0.1 L4.77,0.1 L4.77,8.28 C4.77,9.3845695 5.6654305,10.28 6.77,10.28 L18.45,10.28 C19.5545695,10.28 20.45,9.3845695 20.45,8.28 L20.45,0.1 L24.45,0.1 L24.45,8.28 C24.4500022,9.87303307 23.8164886,11.400674 22.6891066,12.5261801 C21.5617246,13.6516863 20.0330309,14.2826551 18.44,14.28 Z" id="Shape"></path>
                    </g>
                    <g id="_Group_8" transform="translate(14.000000, 25.000000)">
                        <rect id="Rectangle-path" x="0" y="0.28" width="4" height="11.49"></rect>
                    </g>
                </g>
            </g>
        </g>
    </g>
</svg>