<svg id="Layer_1" data-name="Layer 1" xmlns="http://www.w3.org/2000/svg" viewBox="0 0 256 256"><defs><style>.cls-1{fill:#59afe1;}.cls-2{fill:#205081;}.cls-3{fill:#f5f5f5;}.cls-4{fill:#ff4e4a;}.cls-5{opacity:0.2;}</style></defs><title>Artboard 32</title><path class="cls-1" d="M64.49,150.63H92a0,0,0,0,1,0,0v49.61a0,0,0,0,1,0,0H77a12.48,12.48,0,0,1-12.48-12.48V150.63A0,0,0,0,1,64.49,150.63Z"/><path class="cls-2" d="M92,202.24H77a14.49,14.49,0,0,1-14.48-14.48V150.63a2,2,0,0,1,2-2H92a2,2,0,0,1,2,2v49.61A2,2,0,0,1,92,202.24ZM66.49,152.63v35.14A10.49,10.49,0,0,0,77,198.24H90V152.63Z"/><rect class="cls-1" x="57.5" y="89.36" width="80.02" height="53.79"/><path class="cls-2" d="M137.52,145.15h-80a2,2,0,0,1-2-2V89.36a2,2,0,0,1,2-2h80a2,2,0,0,1,2,2v53.79A2,2,0,0,1,137.52,145.15Zm-78-4h76V91.36h-76Z"/><polygon class="cls-3" points="206.91 169.72 137.52 143.15 137.52 89.36 206.91 62.8 206.91 169.72"/><path class="cls-2" d="M206.91,171.72a2,2,0,0,1-.71-.13L136.8,145a2,2,0,0,1-1.29-1.87V89.36a2,2,0,0,1,1.29-1.87L206.2,60.93a2,2,0,0,1,2.71,1.87V169.72a2,2,0,0,1-2,2Zm-67.39-29.94,65.39,25V65.7l-65.39,25Z"/><path class="cls-4" d="M206.91,96v40.54a21.91,21.91,0,0,0,0-40.54Z"/><path class="cls-2" d="M206.91,138.52a2,2,0,0,1-2-2V96a2,2,0,0,1,2.76-1.85,23.91,23.91,0,0,1,0,44.24A2,2,0,0,1,206.91,138.52Zm2-39.3v34.06a19.92,19.92,0,0,0,0-34.06Z"/><g class="cls-5"><rect class="cls-2" x="57.5" y="128.42" width="80.02" height="14.74"/></g><rect class="cls-1" x="64.49" y="143.15" width="73.03" height="14.95"/><path class="cls-2" d="M137.52,160.1h-73a2,2,0,0,1-2-2v-15a2,2,0,0,1,2-2h73a2,2,0,0,1,2,2v15A2,2,0,0,1,137.52,160.1Zm-71-4h69v-11h-69Z"/><g class="cls-5"><rect class="cls-2" x="64.49" y="143.15" width="73.03" height="5.92"/></g><path class="cls-4" d="M92,158.1h15.54a0,0,0,0,1,0,0v11.8a3.74,3.74,0,0,1-3.74,3.74H92a0,0,0,0,1,0,0V158.1A0,0,0,0,1,92,158.1Z"/><path class="cls-2" d="M103.8,175.65H92a2,2,0,0,1-2-2V158.1a2,2,0,0,1,2-2h15.54a2,2,0,0,1,2,2v11.8A5.75,5.75,0,0,1,103.8,175.65Zm-9.8-4h9.8a1.74,1.74,0,0,0,1.74-1.74v-9.8H94Z"/><path class="cls-3" d="M35.5,94.67h1.29a19.85,19.85,0,0,1,19.85,19.85V118a19.85,19.85,0,0,1-19.85,19.85H35.5a0,0,0,0,1,0,0V94.67A0,0,0,0,1,35.5,94.67Z" transform="translate(92.13 232.51) rotate(180)"/><path class="cls-2" d="M58.63,139.84H55.35A21.87,21.87,0,0,1,33.5,118v-3.48A21.87,21.87,0,0,1,55.35,92.67h3.29Zm-4-43.16A17.87,17.87,0,0,0,37.5,114.52V118a17.87,17.87,0,0,0,17.13,17.83Z"/><g class="cls-5"><polygon class="cls-2" points="137.52 128.41 206.91 154 206.91 169.72 137.52 143.15 137.52 128.41"/></g><g class="cls-5"><rect class="cls-2" x="64.49" y="158.1" width="27.52" height="8.69"/></g></svg>