<svg id="Layer_1" xmlns="http://www.w3.org/2000/svg" xmlns:xlink="http://www.w3.org/1999/xlink" viewBox="0 0 55 47"><style>.st0{enable-background:new ;} .st1{clip-path:url(#SVGID_2_);} .st2{clip-path:url(#SVGID_4_);} .st3{clip-path:url(#SVGID_6_);fill:none;stroke:#F6C341;stroke-width:4;stroke-miterlimit:10;} .st4{clip-path:url(#SVGID_8_);} .st5{clip-path:url(#SVGID_10_);fill:#F6C341;} .st6{clip-path:url(#SVGID_12_);} .st7{clip-path:url(#SVGID_14_);fill:#F6C341;}</style><g class="st0"><defs><path id="SVGID_1_" d="M0 0h55v47H0z"/></defs><clipPath id="SVGID_2_"><use xlink:href="#SVGID_1_" overflow="visible"/></clipPath><g class="st1"><defs><path id="SVGID_3_" d="M24.4 2C26-.6 29-.6 30.4 2L54.3 42c1.7 2.8.4 5.2-3 5.2H3.8C.4 47-1 44.7.7 41.8L24.5 2z"/></defs><clipPath id="SVGID_4_"><use xlink:href="#SVGID_3_" overflow="visible"/></clipPath><g class="st2"><defs><path id="SVGID_5_" d="M0 0h55v47H0z"/></defs><clipPath id="SVGID_6_"><use xlink:href="#SVGID_5_" overflow="visible"/></clipPath><path class="st3" d="M24.4 2C26-.6 29-.6 30.4 2L54.3 42c1.7 2.8.4 5.2-3 5.2H3.8C.4 47-1 44.7.7 41.8L24.5 2z"/></g></g><g class="st1"><defs><circle id="SVGID_7_" cx="27.5" cy="37.5" r="1.5"/></defs><clipPath id="SVGID_8_"><use xlink:href="#SVGID_7_" overflow="visible"/></clipPath><g class="st4"><defs><path id="SVGID_9_" d="M0 0h55v47H0z"/></defs><clipPath id="SVGID_10_"><use xlink:href="#SVGID_9_" overflow="visible"/></clipPath><path class="st5" d="M21 31h13v13H21z"/></g></g><g class="st1"><defs><path id="SVGID_11_" d="M26 14c0-.5.5-1 1-1h1c.6 0 1 .5 1 1l-1 18h-1l-1-18z"/></defs><clipPath id="SVGID_12_"><use xlink:href="#SVGID_11_" overflow="visible"/></clipPath><g class="st6"><defs><path id="SVGID_13_" d="M0 0h55v47H0z"/></defs><clipPath id="SVGID_14_"><use xlink:href="#SVGID_13_" overflow="visible"/></clipPath><path class="st7" d="M21 8h13v29H21z"/></g></g></g></svg>