<?xml version="1.0" encoding="utf-8"?>
<!-- Generator: Adobe Illustrator 18.1.1, SVG Export Plug-In . SVG Version: 6.00 Build 0)  -->
<svg version="1.1" id="Layer_1" xmlns="http://www.w3.org/2000/svg" xmlns:xlink="http://www.w3.org/1999/xlink" x="0px" y="0px"
	 viewBox="0 0 379.3 181.5" enable-background="new 0 0 379.3 181.5" xml:space="preserve">
<g opacity="0.2">
	<path fill="#59AFE1" d="M360,178.5c0-97.2-78.8-176-176-176c-97.2,0-176,78.8-176,176C14.9,178.5,350.5,178.5,360,178.5z"/>
</g>
<line fill="none" stroke="#205081" stroke-linecap="round" stroke-linejoin="round" stroke-miterlimit="10" stroke-dasharray="0,2" x1="95.8" y1="41.8" x2="277.9" y2="148.1"/>
<circle opacity="0.2" fill="#205081" cx="325" cy="74.4" r="13.4"/>
<circle opacity="0.2" fill="#205081" cx="375.2" cy="52.2" r="4.1"/>
<circle opacity="0.2" fill="#205081" cx="16.1" cy="120.7" r="4.1"/>
<g>
	<path fill="#59AFE1" d="M35.9,180v-1.5c0-80.1,65.2-145.3,145.3-145.3s145.3,65.2,145.3,145.3v1.5H35.9z"/>
	<path fill="#205081" d="M181.2,34.7c79.4,0,143.8,64.4,143.8,143.8c-6.6,0-282.6,0-287.5,0C37.4,99.1,101.8,34.7,181.2,34.7
		 M181.2,31.7c-39.2,0-76.1,15.3-103.8,43s-43,64.6-43,103.8v3h3H325h3v-3c0-39.2-15.3-76.1-43-103.8
		C257.3,47,220.4,31.7,181.2,31.7L181.2,31.7z"/>
</g>
<g>
	<defs>
		<rect id="SVGID_1_" x="24" y="29" width="316.5" height="149"/>
	</defs>
	<clipPath id="SVGID_2_">
		<use xlink:href="#SVGID_1_"  overflow="visible"/>
	</clipPath>
	<g clip-path="url(#SVGID_2_)">
		<path fill="none" d="M59.8,171.8c-5.4-13.6-1.9-30.7-11.6-41.7c-0.6-0.7-1.2-1.4-1.8-2c-5.8,15.6-9,32.9-9,49.9
			c0.9,0,10.5,0,25.6,0C61.8,176,60.7,174,59.8,171.8z"/>
		<path fill="none" d="M83.7,92c2.3-0.1,4.4-1,6.6-1.6c6.9-1.9,14.2-1.5,21.4-1.1c5.4,0.3,11.1,0.8,15.6,3.8
			c4.5,3.1,6.9,9.8,3.6,14.1c-2.5,3.2-7.4,4.4-8.6,8.2c-1,3.2,1.2,6.6,3.8,8.7c2.6,2.2,5.7,3.7,7.7,6.5c1.8,2.6,2.5,5.8,4.2,8.5
			c0,0,0,0.1,0.1,0.1c2.3,3.5,7.9,1.7,7.9-2.5l0.1-13.9c0-2.5,0-5,0.9-7.3c2.8-7.5,15.2-8.5,19.1-1.5c0.8,1.4,1.3,2.9,2.4,4.1
			c1.4,1.4,3.5,1.9,5.4,2.5c8.6,2.8,15.1,11,16.3,19.9c0.4,2.5-1.6,4.8-4.2,4.9c-2.7,0.2-5.4,0.7-8.1,1.5c-2.2,0.7-3.4,2.9-3,5.1
			c0.9,5,0.5,10.3-3.9,12c-1.8,0.7-3.9,0.4-5.8,0.8c-5.8,1.1-8.9,7.1-11.1,12.7c-0.1,0.3-0.2,0.6-0.4,0.6c29.6,0,60.9,0,88.5,0
			c0.8-3,2.2-6.1,4.1-8.9c4.6-6.9,12.1-12.2,13.7-20.3c0.4-2.2,0.5-4.7,2-6.4c0.9-0.9,2.2-1.4,3.4-1.8c8.1-2.8,16.8-4.1,25.4-3.7
			c2.1,0.1,4.4,0.4,6,1.8c1.2,1.1,1.7,2.7,2.5,4c2.9,5.2,9.8,7.6,15.4,5.5c2.2-0.9,4.2-2.3,6.3-3.5c-8.1-33.4-27.8-62.3-54.7-82.1
			c-3.7,3.6-7.8,7.3-8.2,12.1c-0.2,2.4,0.5,4.9-0.1,7.2c-1.7,7.1-11.9,6.9-18.1,10.7c-10.7,6.7-8.7,26.1-28.5,24.3
			c-0.8-0.1-1.6-0.3-2.2-0.8c-13.7-9.2-6-20.5-6.9-31.3c-0.5-5.7-3.4-10.9-6.2-15.8c-0.9-1.7-1.9-3.4-3.5-4.5
			c-1.3-0.9-2.9-1.3-4.5-1.7l-15.4-3.6c-4-1-5.2-6.4-1.7-8.6c0,0,0.1,0,0.1,0c2.5-1.6,5.5-2.5,7.6-4.6c2.7-2.8,3.5-7.2,6.7-9.5
			c1.1-0.8,2.4-1.2,3.7-1.5c-2.6-0.1-5.3-0.2-7.9-0.2c-45,0-85.3,20.7-111.6,53.2C74.3,89.3,78.8,92.3,83.7,92z"/>
		<g>
			<g opacity="0.2">
				<path fill="#3572B0" d="M61,184c-0.5,0-1-0.3-1.3-0.7c-1.5-2.5-2.6-4.6-3.4-6.7c-2.3-5.7-3-11.9-3.8-17.9
					c-1.1-8.9-2.1-17.2-7.6-23.5c-0.5-0.5-1-1.1-1.7-1.7c-0.5-0.4-0.6-1.1-0.4-1.6c5.5-14.8,13.4-28.6,23.4-41
					c0.3-0.4,0.7-0.6,1.2-0.6c0.1,0,0.3,0,0.4,0.1c1.6,0.5,3.1,1.1,4.6,1.8c2.8,1.2,5.5,2.3,8.3,2.3c0.2,0,0.4,0,0.6,0
					c1.5-0.1,3-0.6,4.6-1.1c0.6-0.2,1.1-0.3,1.7-0.5c3.6-1,7.6-1.5,12.6-1.5c3.2,0,6.5,0.2,9.3,0.4c5.1,0.3,11.4,0.7,16.4,4.1
					c2.9,2,5.1,5.4,5.7,8.9c0.4,2.8-0.1,5.3-1.7,7.3c-1.2,1.5-2.7,2.6-4.3,3.6c-1.9,1.3-3.5,2.4-4.1,4.1c-0.8,2.6,1.3,5.4,3.3,7.1
					c0.8,0.7,1.7,1.3,2.6,1.9c1.9,1.4,3.9,2.8,5.4,4.8c1.1,1.5,1.8,3.2,2.4,4.8c0.5,1.3,1.1,2.6,1.8,3.7c0.7,1.1,1.6,1.3,2.2,1.3
					c1.5,0,3-1.1,3-2.9l0.1-13.9c0-2.5,0-5.3,1-7.9c1.6-4.3,6.3-7.2,11.6-7.2c4.5,0,8.3,2,10.3,5.4c0.3,0.5,0.5,1,0.7,1.5
					c0.4,0.9,0.8,1.7,1.4,2.3c0.9,0.9,2.3,1.4,3.8,1.8c0.3,0.1,0.6,0.2,1,0.3c9,3,16,11.4,17.4,21.1c0.2,1.6-0.2,3.2-1.2,4.4
					c-1.1,1.3-2.6,2.1-4.4,2.2c-2.6,0.2-5.2,0.7-7.7,1.4c-1.4,0.4-2.2,1.9-1.9,3.4c1.3,7.1-0.4,12-4.8,13.7
					c-1.3,0.5-2.7,0.6-3.9,0.7c-0.8,0-1.5,0.1-2.1,0.2c-5,1-7.9,6.6-10,12c-0.1,0.3-0.2,0.6-0.4,0.9c-0.2,0.6-0.8,0.9-1.4,0.9H61z"
					/>
				<path fill="#3572B0" d="M67.6,91.9C72.1,93.3,76.3,96,81,96c0.2,0,0.5,0,0.7,0c2.3-0.1,4.4-1,6.6-1.6c4-1.1,8-1.4,12.2-1.4
					c3.1,0,6.2,0.2,9.2,0.4c5.4,0.3,11.1,0.8,15.6,3.8c4.5,3.1,6.9,9.8,3.6,14.1c-2.5,3.2-7.4,4.4-8.6,8.2c-1,3.2,1.2,6.6,3.8,8.7
					c2.6,2.2,5.7,3.7,7.7,6.5c1.8,2.6,2.5,5.8,4.2,8.5c0,0,0,0.1,0.1,0.1c0.9,1.3,2.1,1.9,3.4,1.9c2.2,0,4.5-1.7,4.5-4.4l0.1-13.9
					c0-2.5,0-5,0.9-7.3c1.5-4.1,5.9-6.2,10.2-6.2c3.6,0,7.2,1.5,9,4.7c0.8,1.4,1.3,2.9,2.4,4.1c1.4,1.4,3.5,1.9,5.4,2.5
					c8.6,2.8,15.1,11,16.3,19.9c0.4,2.5-1.6,4.8-4.2,4.9c-2.7,0.2-5.4,0.7-8.1,1.5c-2.2,0.7-3.4,2.9-3,5.1c0.9,5,0.5,10.3-3.9,12
					c-1.8,0.7-3.9,0.4-5.8,0.8c-5.8,1.1-8.9,7.1-11.1,12.7c-0.1,0.3-0.2,0.6-0.4,0.6c-35.6,0-68.9,0-90.7,0c-1.2-2-2.4-4-3.3-6.2
					c-5.4-13.6-1.9-30.7-11.6-41.7c-0.6-0.7-1.2-1.2-1.8-1.8C49.9,117.5,57.8,103.9,67.6,91.9 M67.6,88.9c-0.9,0-1.7,0.4-2.3,1.1
					c-10.1,12.5-18.1,26.4-23.7,41.4c-0.4,1.1-0.1,2.4,0.8,3.3c0.6,0.6,1.1,1.1,1.6,1.6c5.2,5.9,6.1,14,7.2,22.6
					c0.7,6.1,1.5,12.4,3.8,18.3c0.8,2.1,1.9,4,3.5,6.6C59,184.7,60,185,61,185h90.7c1.2,0,2.3-0.5,2.8-1.6c0.1-0.3,0.3-0.5,0.4-0.8
					c2-5,4.6-10.2,8.9-11c0.6-0.1,1.2-0.1,2-0.2c1.3-0.1,2.8-0.2,4.4-0.7c5.1-1.9,7.2-7.5,5.8-15.3c-0.1-0.8,0.2-1.5,0.9-1.7
					c2.4-0.7,4.9-1.2,7.4-1.3c2.1-0.1,4.1-1.2,5.4-2.8c1.3-1.6,1.8-3.6,1.5-5.6c-1.5-10.2-8.9-19.1-18.4-22.3
					c-0.3-0.1-0.7-0.2-1-0.3c-1.3-0.4-2.6-0.8-3.2-1.4c-0.4-0.4-0.8-1.2-1.1-1.9c-0.2-0.5-0.5-1-0.8-1.5c-2.2-3.9-6.5-6.2-11.6-6.2
					c-6,0-11.1,3.2-13,8.2c-1.1,2.9-1.1,5.8-1.1,8.4l-0.1,13.9c0,1.1-1,1.4-1.5,1.4c-0.5,0-0.8-0.3-0.9-0.5l0,0
					c-0.6-1-1.1-2.2-1.7-3.5c-0.7-1.7-1.4-3.5-2.6-5.1c-1.6-2.2-3.7-3.7-5.8-5.2c-0.9-0.6-1.7-1.2-2.5-1.8c-1.8-1.5-3.4-3.8-2.8-5.5
					c0.4-1.3,1.9-2.2,3.5-3.4c1.5-1,3.3-2.2,4.6-4c1.8-2.3,2.5-5.3,2-8.5c-0.6-3.9-3-7.7-6.3-9.9c-5.3-3.6-11.8-4-17.1-4.4
					c-2.9-0.2-6.2-0.4-9.4-0.4c-5.1,0-9.2,0.5-13,1.5c-0.6,0.2-1.2,0.3-1.7,0.5c-1.5,0.5-2.9,0.9-4.3,1c-0.2,0-0.4,0-0.5,0
					c-2.5,0-5-1.1-7.7-2.2c-1.5-0.6-3.1-1.3-4.8-1.8C68.2,88.9,67.9,88.9,67.6,88.9L67.6,88.9z"/>
			</g>
			<g>
				<path fill="#4AC6C6" d="M63,180c-0.5,0-1-0.3-1.3-0.7c-1.5-2.5-2.6-4.6-3.4-6.7c-2.3-5.7-3-11.9-3.8-17.9
					c-1.1-8.9-2.1-17.2-7.6-23.5c-0.5-0.5-1-1.1-1.7-1.7c-0.5-0.4-0.6-1.1-0.4-1.6c5.5-14.8,13.4-28.6,23.4-41
					c0.3-0.4,0.7-0.6,1.2-0.6c0.1,0,0.3,0,0.4,0.1c1.6,0.5,3.1,1.1,4.6,1.8c2.8,1.2,5.5,2.3,8.3,2.3c0.2,0,0.4,0,0.6,0
					c1.5-0.1,3-0.6,4.6-1.1c0.6-0.2,1.1-0.3,1.7-0.5c3.6-1,7.6-1.5,12.6-1.5c3.2,0,6.5,0.2,9.3,0.4c5.1,0.3,11.4,0.7,16.4,4.1
					c2.9,2,5.1,5.4,5.7,8.9c0.4,2.8-0.1,5.3-1.7,7.3c-1.2,1.5-2.7,2.6-4.3,3.6c-1.9,1.3-3.5,2.4-4.1,4.1c-0.8,2.6,1.3,5.4,3.3,7.1
					c0.8,0.7,1.7,1.3,2.6,1.9c1.9,1.4,3.9,2.8,5.4,4.8c1.1,1.5,1.8,3.2,2.4,4.8c0.5,1.3,1.1,2.6,1.8,3.7c0.7,1.1,1.6,1.3,2.2,1.3
					c1.5,0,3-1.1,3-2.9l0.1-13.9c0-2.5,0-5.3,1-7.9c1.6-4.3,6.3-7.2,11.6-7.2c4.5,0,8.3,2,10.3,5.4c0.3,0.5,0.5,1,0.7,1.5
					c0.4,0.9,0.8,1.7,1.4,2.3c0.9,0.9,2.3,1.4,3.8,1.8c0.3,0.1,0.6,0.2,1,0.3c9,3,16,11.4,17.4,21.1c0.2,1.6-0.2,3.2-1.2,4.4
					c-1.1,1.3-2.6,2.1-4.4,2.2c-2.6,0.2-5.2,0.7-7.7,1.4c-1.4,0.4-2.2,1.9-1.9,3.4c1.3,7.1-0.4,12-4.8,13.7
					c-1.3,0.5-2.7,0.6-3.9,0.7c-0.8,0-1.5,0.1-2.1,0.2c-5,1-7.9,6.6-10,12c-0.1,0.3-0.2,0.6-0.4,0.9c-0.2,0.6-0.8,0.9-1.4,0.9H63z"
					/>
				<path fill="#205081" d="M69.6,87.9C74.1,89.3,78.3,92,83,92c0.2,0,0.5,0,0.7,0c2.3-0.1,4.4-1,6.6-1.6c4-1.1,8-1.4,12.2-1.4
					c3.1,0,6.2,0.2,9.2,0.4c5.4,0.3,11.1,0.8,15.6,3.8c4.5,3.1,6.9,9.8,3.6,14.1c-2.5,3.2-7.4,4.4-8.6,8.2c-1,3.2,1.2,6.6,3.8,8.7
					c2.6,2.2,5.7,3.7,7.7,6.5c1.8,2.6,2.5,5.8,4.2,8.5c0,0,0,0.1,0.1,0.1c0.9,1.3,2.1,1.9,3.4,1.9c2.2,0,4.5-1.7,4.5-4.4l0.1-13.9
					c0-2.5,0-5,0.9-7.3c1.5-4.1,5.9-6.2,10.2-6.2c3.6,0,7.2,1.5,9,4.7c0.8,1.4,1.3,2.9,2.4,4.1c1.4,1.4,3.5,1.9,5.4,2.5
					c8.6,2.8,15.1,11,16.3,19.9c0.4,2.5-1.6,4.8-4.2,4.9c-2.7,0.2-5.4,0.7-8.1,1.5c-2.2,0.7-3.4,2.9-3,5.1c0.9,5,0.5,10.3-3.9,12
					c-1.8,0.7-3.9,0.4-5.8,0.8c-5.8,1.1-8.9,7.1-11.1,12.7c-0.1,0.3-0.2,0.6-0.4,0.6c-35.6,0-68.9,0-90.7,0c-1.2-2-2.4-4-3.3-6.2
					c-5.4-13.6-1.9-30.7-11.6-41.7c-0.6-0.7-1.2-1.2-1.8-1.8C51.9,113.5,59.8,99.9,69.6,87.9 M69.6,84.9c-0.9,0-1.7,0.4-2.3,1.1
					c-10.1,12.5-18.1,26.4-23.7,41.4c-0.4,1.1-0.1,2.4,0.8,3.3c0.6,0.6,1.1,1.1,1.6,1.6c5.2,5.9,6.1,14,7.2,22.6
					c0.7,6.1,1.5,12.4,3.8,18.3c0.8,2.1,1.9,4,3.5,6.6C61,180.7,62,181,63,181h90.7c1.2,0,2.3-0.5,2.8-1.6c0.1-0.3,0.3-0.5,0.4-0.8
					c2-5,4.6-10.2,8.9-11c0.6-0.1,1.2-0.1,2-0.2c1.3-0.1,2.8-0.2,4.4-0.7c5.1-1.9,7.2-7.5,5.8-15.3c-0.1-0.8,0.2-1.5,0.9-1.7
					c2.4-0.7,4.9-1.2,7.4-1.3c2.1-0.1,4.1-1.2,5.4-2.8c1.3-1.6,1.8-3.6,1.5-5.6c-1.5-10.2-8.9-19.1-18.4-22.3
					c-0.3-0.1-0.7-0.2-1-0.3c-1.3-0.4-2.6-0.8-3.2-1.4c-0.4-0.4-0.8-1.2-1.1-1.9c-0.2-0.5-0.5-1-0.8-1.5c-2.2-3.9-6.5-6.2-11.6-6.2
					c-6,0-11.1,3.2-13,8.2c-1.1,2.9-1.1,5.8-1.1,8.4l-0.1,13.9c0,1.1-1,1.4-1.5,1.4c-0.5,0-0.8-0.3-0.9-0.5l0,0
					c-0.6-1-1.1-2.2-1.7-3.5c-0.7-1.7-1.4-3.5-2.6-5.1c-1.6-2.2-3.7-3.7-5.8-5.2c-0.9-0.6-1.7-1.2-2.5-1.8c-1.8-1.5-3.4-3.8-2.8-5.5
					c0.4-1.3,1.9-2.2,3.5-3.4c1.5-1,3.3-2.2,4.6-4c1.8-2.3,2.5-5.3,2-8.5c-0.6-3.9-3-7.7-6.3-9.9c-5.3-3.6-11.8-4-17.1-4.4
					c-2.9-0.2-6.2-0.4-9.4-0.4c-5.1,0-9.2,0.5-13,1.5c-0.6,0.2-1.2,0.3-1.7,0.5c-1.5,0.5-2.9,0.9-4.3,1c-0.2,0-0.4,0-0.5,0
					c-2.5,0-5-1.1-7.7-2.2c-1.5-0.6-3.1-1.3-4.8-1.8C70.2,84.9,69.9,84.9,69.6,84.9L69.6,84.9z"/>
			</g>
		</g>
		<g>
			<g opacity="0.2">
				<path fill="#3572B0" d="M240.3,184c-0.5,0-0.9-0.2-1.2-0.6s-0.4-0.8-0.3-1.3c0.9-3.5,2.3-6.7,4.3-9.6c1.6-2.4,3.5-4.6,5.4-6.7
					c3.7-4.2,7.1-8.1,8.1-13.1c0.1-0.5,0.2-0.9,0.2-1.4c0.3-1.9,0.6-4.1,2.2-5.8c1.1-1.2,2.6-1.8,4-2.3c7.4-2.6,15.1-3.9,22.9-3.9
					c1,0,2,0,3,0.1c2.5,0.1,5,0.5,6.9,2.2c1,1,1.6,2.2,2.2,3.3c0.2,0.4,0.4,0.7,0.6,1.1c1.9,3.3,5.8,5.5,9.8,5.5
					c1.3,0,2.5-0.2,3.7-0.7c1.3-0.5,2.6-1.3,3.9-2.1c0.7-0.4,1.5-0.9,2.2-1.3c0.2-0.1,0.5-0.2,0.7-0.2c0.2,0,0.4,0,0.6,0.1
					c0.4,0.2,0.7,0.6,0.9,1c2.7,11.2,4.1,22.7,4.1,34.2c0,0.8-0.7,1.5-1.5,1.5H240.3z"/>
				<path fill="#3572B0" d="M285.9,140.8c1,0,2,0,3,0.1c2.1,0.1,4.4,0.4,6,1.8c1.2,1.1,1.7,2.6,2.5,4c2.2,3.9,6.7,6.3,11.1,6.3
					c1.4,0,2.9-0.2,4.2-0.8c2.2-0.9,4.2-2.6,6.3-3.7c2.6,10.8,4,22.6,4,33.6c-2,0-37.4,0-82.7,0c0.8-3,2.2-6.1,4.1-8.9
					c4.6-6.9,12.1-12.2,13.7-20.3c0.4-2.2,0.5-4.7,2-6.4c0.9-0.9,2.2-1.4,3.4-1.8C270.7,142,278.3,140.8,285.9,140.8 M285.9,137.8
					c-8,0-15.9,1.3-23.4,4c-1.5,0.5-3.2,1.2-4.6,2.6c-1.9,2-2.3,4.5-2.6,6.6c-0.1,0.4-0.1,0.9-0.2,1.3c-0.9,4.6-4.2,8.4-7.7,12.4
					c-1.9,2.2-3.9,4.4-5.5,6.9c-2,3.1-3.6,6.5-4.5,10.1c-0.2,0.9,0,1.6,0.5,2.3c0.6,0.7,1.4,0.9,2.4,0.9H323c1.7,0,3-1.1,3-2.8
					c0-11.6-1.4-23.1-4.1-34.4c-0.2-0.9-0.8-1.6-1.7-2c-0.4-0.2-0.8-0.2-1.2-0.2c-0.5,0-1,0.1-1.4,0.4c-0.8,0.4-1.6,0.9-2.3,1.4
					c-1.2,0.8-2.4,1.5-3.6,2c-1,0.4-2,0.6-3.1,0.6c-3.5,0-6.9-1.9-8.5-4.7c-0.2-0.3-0.4-0.7-0.5-1c-0.6-1.2-1.3-2.5-2.5-3.7
					c-2.2-2.1-5.2-2.5-7.9-2.6C288,137.8,287,137.8,285.9,137.8L285.9,137.8z"/>
			</g>
			<g>
				<path fill="#4AC6C6" d="M242.3,180c-0.5,0-0.9-0.2-1.2-0.6s-0.4-0.8-0.3-1.3c0.9-3.5,2.3-6.7,4.3-9.6c1.6-2.4,3.5-4.6,5.4-6.7
					c3.7-4.2,7.1-8.1,8.1-13.1c0.1-0.5,0.2-0.9,0.2-1.4c0.3-1.9,0.6-4.1,2.2-5.8c1.1-1.2,2.6-1.8,4-2.3c7.4-2.6,15.1-3.9,22.9-3.9
					c1,0,2,0,3,0.1c2.5,0.1,5,0.5,6.9,2.2c1,1,1.6,2.2,2.2,3.3c0.2,0.4,0.4,0.7,0.6,1.1c1.9,3.3,5.8,5.5,9.8,5.5
					c1.3,0,2.5-0.2,3.7-0.7c1.3-0.5,2.6-1.3,3.9-2.1c0.7-0.4,1.5-0.9,2.2-1.3c0.2-0.1,0.5-0.2,0.7-0.2c0.2,0,0.4,0,0.6,0.1
					c0.4,0.2,0.7,0.6,0.9,1c2.7,11.2,4.1,22.7,4.1,34.2c0,0.8-0.7,1.5-1.5,1.5H242.3z"/>
				<path fill="#205081" d="M287.9,136.8c1,0,2,0,3,0.1c2.1,0.1,4.4,0.4,6,1.8c1.2,1.1,1.7,2.6,2.5,4c2.2,3.9,6.7,6.3,11.1,6.3
					c1.4,0,2.9-0.2,4.2-0.8c2.2-0.9,4.2-2.6,6.3-3.7c2.6,10.8,4,22.6,4,33.6c-2,0-37.4,0-82.7,0c0.8-3,2.2-6.1,4.1-8.9
					c4.6-6.9,12.1-12.2,13.7-20.3c0.4-2.2,0.5-4.7,2-6.4c0.9-0.9,2.2-1.4,3.4-1.8C272.7,138,280.3,136.8,287.9,136.8 M287.9,133.8
					c-8,0-15.9,1.3-23.4,4c-1.5,0.5-3.2,1.2-4.6,2.6c-1.9,2-2.3,4.5-2.6,6.6c-0.1,0.4-0.1,0.9-0.2,1.3c-0.9,4.6-4.2,8.4-7.7,12.4
					c-1.9,2.2-3.9,4.4-5.5,6.9c-2,3.1-3.6,6.5-4.5,10.1c-0.2,0.9,0,1.6,0.5,2.3c0.6,0.7,1.4,0.9,2.4,0.9H325c1.7,0,3-1.1,3-2.8
					c0-11.6-1.4-23.1-4.1-34.4c-0.2-0.9-0.8-1.6-1.7-2c-0.4-0.2-0.8-0.2-1.2-0.2c-0.5,0-1,0.1-1.4,0.4c-0.8,0.4-1.6,0.9-2.3,1.4
					c-1.2,0.8-2.4,1.5-3.6,2c-1,0.4-2,0.6-3.1,0.6c-3.5,0-6.9-1.9-8.5-4.7c-0.2-0.3-0.4-0.7-0.5-1c-0.6-1.2-1.3-2.5-2.5-3.7
					c-2.2-2.1-5.2-2.5-7.9-2.6C290,133.8,289,133.8,287.9,133.8L287.9,133.8z"/>
			</g>
		</g>
		<g>
			<g opacity="0.2">
				<path fill="#3572B0" d="M212,123c-0.9,0-1.8-0.3-2.7-0.4c-1-0.1-2-0.6-2.9-1.1c-10.5-7.1-9.3-15.8-8.2-23.4
					c0.4-3,0.9-6.1,0.6-9.1c-0.5-5.5-3.4-10.7-6-15.3c-0.8-1.4-1.7-3.1-3-4c-1.1-0.8-2.6-1.1-4-1.5l-15.4-3.7
					c-2.5-0.6-4.4-2.6-4.8-5.1c-0.4-2.5,0.6-4.8,2.6-6.2c0,0,0.1-0.1,0.1-0.1c1-0.6,2-1.2,3-1.7c1.6-0.8,3.2-1.6,4.3-2.8
					c1.1-1.1,1.8-2.5,2.6-4c1.1-2,2.2-4.2,4.2-5.6c1.1-0.8,2.5-1.4,4.2-1.7c0.1,0,0.2,0,0.3,0c0,0,0.1,0,0.1,0
					c28.2,1.5,55.2,11.2,78,27.9c0.4,0.3,0.6,0.7,0.6,1.1s-0.1,0.9-0.5,1.2l-0.6,0.6c-3.5,3.4-6.8,6.5-7.1,10.6
					c-0.1,0.9,0,1.8,0.1,2.8c0.1,1.5,0.2,3-0.2,4.6c-1.3,5.5-6.6,7.1-11.7,8.8c-2.5,0.8-5.1,1.6-7.1,2.9c-3.6,2.3-5.7,6.4-7.9,10.6
					C227.3,115.2,223.3,123,212,123C212,123,212,123,212,123z"/>
				<path fill="#3572B0" d="M187.1,38.9c28.8,1.6,55.3,11.6,77.2,27.7c-3.7,3.6-7.8,7.3-8.2,12.1c-0.2,2.4,0.5,4.9-0.1,7.2
					c-1.7,7.1-11.9,6.9-18.1,10.7c-10.2,6.4-8.9,24.4-25.9,24.4c-0.8,0-1.6,0-2.5-0.1c-0.8-0.1-1.6-0.3-2.2-0.8
					c-13.7-9.2-6-20.5-6.9-31.3c-0.5-5.7-3.4-10.9-6.2-15.8c-0.9-1.7-1.9-3.4-3.5-4.5c-1.3-0.9-2.9-1.3-4.5-1.7l-15.4-3.6
					c-4-1-5.2-6.4-1.7-8.6c0,0,0.1,0,0.1,0c2.5-1.6,5.5-2.5,7.6-4.6c2.7-2.8,3.5-7.2,6.7-9.5C184.5,39.7,185.8,39.2,187.1,38.9
					 M187.1,35.9c-0.2,0-0.4,0-0.6,0.1c-2,0.4-3.5,1.1-4.8,2c-2.3,1.7-3.6,4-4.7,6.1c-0.7,1.4-1.5,2.7-2.4,3.7c-1,1-2.4,1.7-3.9,2.5
					c-1,0.5-2.1,1.1-3.2,1.8l-0.1,0.1c-2.6,1.7-3.8,4.7-3.3,7.7c0.5,3.1,2.9,5.6,5.9,6.3l15.4,3.6c1.3,0.3,2.6,0.6,3.5,1.2
					c1,0.7,1.8,2.1,2.6,3.5c2.5,4.4,5.4,9.5,5.8,14.6c0.2,2.8-0.2,5.6-0.6,8.7c-1.1,8.1-2.4,17.2,8.9,24.8c1.1,0.7,2.3,1.2,3.6,1.3
					c1,0.1,1.9,0.1,2.8,0.1c12.3,0,16.6-8.3,20.2-15c2.1-4,4.1-7.8,7.4-9.8c1.8-1.2,4.3-1.9,6.7-2.7c5.2-1.7,11.2-3.6,12.7-9.9
					c0.4-1.8,0.3-3.5,0.2-5c-0.1-0.9-0.1-1.8-0.1-2.6c0.3-3.5,3.4-6.5,6.7-9.6l0.6-0.6c0.6-0.6,1-1.5,0.9-2.4
					c-0.1-0.9-0.5-1.7-1.2-2.2c-23-16.9-50.3-26.7-78.8-28.2C187.2,35.9,187.2,35.9,187.1,35.9L187.1,35.9z"/>
			</g>
			<g>
				<path fill="#4AC6C6" d="M214,119c-0.9,0-1.8-0.3-2.7-0.4c-1-0.1-2-0.6-2.9-1.1c-10.5-7.1-9.3-15.8-8.2-23.4
					c0.4-3,0.9-6.1,0.6-9.1c-0.5-5.5-3.4-10.7-6-15.3c-0.8-1.4-1.7-3.1-3-4c-1.1-0.8-2.6-1.1-4-1.5l-15.4-3.7
					c-2.5-0.6-4.4-2.6-4.8-5.1c-0.4-2.5,0.6-4.8,2.6-6.2c0,0,0.1-0.1,0.1-0.1c1-0.6,2-1.2,3-1.7c1.6-0.8,3.2-1.6,4.3-2.8
					c1.1-1.1,1.8-2.5,2.6-4c1.1-2,2.2-4.2,4.2-5.6c1.1-0.8,2.5-1.4,4.2-1.7c0.1,0,0.2,0,0.3,0c0,0,0.1,0,0.1,0
					c28.2,1.5,55.2,11.2,78,27.9c0.4,0.3,0.6,0.7,0.6,1.1s-0.1,0.9-0.5,1.2l-0.6,0.6c-3.5,3.4-6.8,6.5-7.1,10.6
					c-0.1,0.9,0,1.8,0.1,2.8c0.1,1.5,0.2,3-0.2,4.6c-1.3,5.5-6.6,7.1-11.7,8.8c-2.5,0.8-5.1,1.6-7.1,2.9c-3.6,2.3-5.7,6.4-7.9,10.6
					C229.3,111.2,225.3,119,214,119C214,119,214,119,214,119z"/>
				<path fill="#205081" d="M189.1,34.9c28.8,1.6,55.3,11.6,77.2,27.7c-3.7,3.6-7.8,7.3-8.2,12.1c-0.2,2.4,0.5,4.9-0.1,7.2
					c-1.7,7.1-11.9,6.9-18.1,10.7c-10.2,6.4-8.9,24.4-25.9,24.4c-0.8,0-1.6,0-2.5-0.1c-0.8-0.1-1.6-0.3-2.2-0.8
					c-13.7-9.2-6-20.5-6.9-31.3c-0.5-5.7-3.4-10.9-6.2-15.8c-0.9-1.7-1.9-3.4-3.5-4.5c-1.3-0.9-2.9-1.3-4.5-1.7l-15.4-3.6
					c-4-1-5.2-6.4-1.7-8.6c0,0,0.1,0,0.1,0c2.5-1.6,5.5-2.5,7.6-4.6c2.7-2.8,3.5-7.2,6.7-9.5C186.5,35.7,187.8,35.2,189.1,34.9
					 M189.1,31.9c-0.2,0-0.4,0-0.6,0.1c-2,0.4-3.5,1.1-4.8,2c-2.3,1.7-3.6,4-4.7,6.1c-0.7,1.4-1.5,2.7-2.4,3.7c-1,1-2.4,1.7-3.9,2.5
					c-1,0.5-2.1,1.1-3.2,1.8l-0.1,0.1c-2.6,1.7-3.8,4.7-3.3,7.7c0.5,3.1,2.9,5.6,5.9,6.3l15.4,3.6c1.3,0.3,2.6,0.6,3.5,1.2
					c1,0.7,1.8,2.1,2.6,3.5c2.5,4.4,5.4,9.5,5.8,14.6c0.2,2.8-0.2,5.6-0.6,8.7c-1.1,8.1-2.4,17.2,8.9,24.8c1.1,0.7,2.3,1.2,3.6,1.3
					c1,0.1,1.9,0.1,2.8,0.1c12.3,0,16.6-8.3,20.2-15c2.1-4,4.1-7.8,7.4-9.8c1.8-1.2,4.3-1.9,6.7-2.7c5.2-1.7,11.2-3.6,12.7-9.9
					c0.4-1.8,0.3-3.5,0.2-5c-0.1-0.9-0.1-1.8-0.1-2.6c0.3-3.5,3.4-6.5,6.7-9.6l0.6-0.6c0.6-0.6,1-1.5,0.9-2.4
					c-0.1-0.9-0.5-1.7-1.2-2.2c-23-16.9-50.3-26.7-78.8-28.2C189.2,31.9,189.2,31.9,189.1,31.9L189.1,31.9z"/>
			</g>
		</g>
	</g>
</g>
<path fill="none" stroke="#FFBD17" stroke-width="3" stroke-linecap="round" stroke-linejoin="round" stroke-miterlimit="10" stroke-dasharray="0,8" d="
	M230,13.7C143.9,6.5,89.1,40.7,89.1,40.7s114.5-9.3,195,74.2"/>
<g>
	<rect y="178.5" fill="#205081" width="368.1" height="3"/>
</g>
<g>
	<g>
		<path fill="#51D6D3" d="M171.1,50.5C171.1,50.6,171.1,50.6,171.1,50.5c-2.6,1.7-2.7,5-1,7c2.4-1.4,5.2-2.4,7.2-4.4
			c2.7-2.8,3.5-7.2,6.7-9.5c1.9-1.3,4.2-1.7,6.5-2c13.3-1.7,27.5-3.3,39.4,2.8c2.4,1.2,4.6,2.7,7.1,3.6c2.3,0.8,4.8,1.1,7.2,1
			C227.4,41,208.8,36,189.1,34.9c-1.3,0.3-2.6,0.7-3.7,1.5c-3.2,2.3-3.9,6.7-6.7,9.5C176.6,48,173.6,48.9,171.1,50.5z"/>
	</g>
	<g>
		<path fill="#51D6D3" d="M256.6,84.7c0.6-0.8,1.1-1.7,1.4-2.8c0.3-1.4,0.2-2.9,0.1-4.4c-0.8,1.4-1.4,2.9-1.5,4.5
			C256.5,82.9,256.6,83.8,256.6,84.7z"/>
	</g>
	<g>
		<path fill="#51D6D3" d="M321,144.7c-2.1,1.1-4,2.6-6.3,3.5c-5.5,2.1-12.5-0.3-15.4-5.5c-0.8-1.4-1.3-2.9-2.5-4
			c-1.5-1.4-3.8-1.7-6-1.8c-8.6-0.4-17.3,0.9-25.4,3.7c-1.2,0.4-2.5,0.9-3.4,1.9c-1.6,1.7-1.6,4.2-2,6.4
			c-1.6,8.1-9.1,13.3-13.7,20.2c-1.9,2.8-3.2,5.9-4.1,8.9c0.5,0,1,0,1.5,0c0.4,0,0.7-1,1.1-1.6c4.6-6.9,12.1-12.2,13.7-20.3
			c0.4-2.2,0.5-4.7,2-6.4c0.9-0.9,2.2-1.4,3.4-1.8c8.1-2.8,16.8-4.1,25.4-3.7c2.1,0.1,4.4,0.4,6,1.8c1.2,1.1,1.7,2.7,2.5,4
			c2.9,5.2,9.8,7.6,15.4,5.5c3.1-1.2,5.7-3.6,8.9-4.7c0.1,0,0.1,0,0.2,0C321.9,148.7,321.4,146.7,321,144.7z"/>
	</g>
	<g>
		<path fill="#51D6D3" d="M188.1,144.7c1.5-0.9,2.4-2.5,2.1-4.3c-1.3-8.9-7.8-17-16.3-19.9c-1.9-0.6-4-1.1-5.4-2.5
			c-1.1-1.1-1.6-2.7-2.4-4.1c-4-6.9-16.3-6-19.1,1.5c-0.7,1.9-0.9,4-0.9,6.1c3.6-6.4,14.8-6.9,18.6-0.3c0.8,1.4,1.3,2.9,2.4,4.1
			c1.4,1.4,3.5,1.9,5.4,2.5C180,130.4,185.9,137,188.1,144.7z"/>
	</g>
	<g>
		<path fill="#51D6D3" d="M64.5,94.5c0.7,0.1,1.4,0.2,2.1,0.3c5.3,1.2,10.2,4.9,15.6,4.5c2.3-0.1,4.4-1,6.6-1.6
			c6.9-1.9,14.2-1.5,21.4-1.1c5.4,0.3,11.1,0.8,15.6,3.8c2.4,1.6,4.2,4.3,4.8,7.1c0.1-0.1,0.2-0.2,0.2-0.3c3.3-4.3,0.8-11-3.6-14.1
			c-4.5-3.1-10.2-3.5-15.6-3.8c-7.2-0.4-14.5-0.9-21.4,1.1C88.1,91,86,91.9,83.7,92c-4.9,0.3-9.4-2.7-14.1-4.1
			C67.8,90,66.2,92.2,64.5,94.5z"/>
	</g>
	<g>
		<path fill="#51D6D3" d="M173.5,159.2c0.2,0.8,0.3,1.7,0.3,2.5c1.3-1.8,1.7-4.4,1.5-7.1C173.9,155.7,173.2,157.5,173.5,159.2z"/>
	</g>
	<g>
		<path fill="#51D6D3" d="M138,139.2C138,139.2,138,139.2,138,139.2c-1.8-2.7-2.4-6-4.2-8.5c-2-2.7-5.1-4.3-7.7-6.5
			c-1.4-1.1-2.6-2.6-3.3-4.2c-0.8,0.8-1.5,1.7-1.9,2.8c-1,3.2,1.2,6.6,3.8,8.7c2.6,2.2,5.7,3.7,7.7,6.5c1.8,2.6,2.5,5.8,4.2,8.5
			c0,0,0,0.1,0.1,0.1c2.3,3.5,7.9,1.7,7.9-2.5l0-4.1C142.7,141.6,139.6,141.7,138,139.2z"/>
	</g>
</g>
<g>
	<ellipse fill="#205081" fill-opacity="0.3" cx="91.6" cy="123.4" rx="19.2" ry="2.7"/>
	
		<line fill="none" stroke="#205081" stroke-width="3" stroke-linecap="round" stroke-linejoin="round" stroke-miterlimit="10" x1="91.6" y1="68" x2="91.6" y2="122.8"/>
	<g>
		<g>
			<path fill="#FFBD17" d="M91.1,69.5c-15.3,0-27.7-12.4-27.7-27.7s12.4-27.7,27.7-27.7s27.7,12.4,27.7,27.7S106.4,69.5,91.1,69.5z"
				/>
			<path fill="#205081" d="M91.1,15.6c14.5,0,26.2,11.7,26.2,26.2c0,14.5-11.7,26.2-26.2,26.2S64.8,56.3,64.8,41.8
				C64.8,27.3,76.6,15.6,91.1,15.6 M91.1,12.6c-16.1,0-29.2,13.1-29.2,29.2S75,71,91.1,71c16.1,0,29.2-13.1,29.2-29.2
				S107.2,12.6,91.1,12.6L91.1,12.6z"/>
		</g>
		<polyline fill="none" stroke="#205081" stroke-width="3" stroke-linejoin="round" stroke-miterlimit="10" points="78.6,42.7 
			88.2,52.2 103.5,31.4 		"/>
	</g>
	<g>
		<path fill="#FFBD17" d="M91.1,69.5c-15.3,0-27.7-12.4-27.7-27.7s12.4-27.7,27.7-27.7s27.7,12.4,27.7,27.7S106.4,69.5,91.1,69.5z"
			/>
		<path fill="#205081" d="M91.1,15.6c14.5,0,26.2,11.7,26.2,26.2c0,14.5-11.7,26.2-26.2,26.2S64.8,56.3,64.8,41.8
			C64.8,27.3,76.6,15.6,91.1,15.6 M91.1,12.6c-16.1,0-29.2,13.1-29.2,29.2S75,71,91.1,71c16.1,0,29.2-13.1,29.2-29.2
			S107.2,12.6,91.1,12.6L91.1,12.6z"/>
	</g>
	<g>
		<path fill="#FFCC5A" d="M91.1,15.6c-8.4,0-15.8,3.9-20.6,10c4.5-3.5,10.1-5.6,16.2-5.6c14.5,0,26.2,11.7,26.2,26.2
			c0,6.1-2.1,11.7-5.6,16.2c6.1-4.8,10-12.2,10-20.6C117.3,27.3,105.6,15.6,91.1,15.6z"/>
	</g>
	<polyline fill="none" stroke="#205081" stroke-width="3" stroke-linejoin="round" stroke-miterlimit="10" points="81.2,42.5 
		88.7,50.1 101,33.5 	"/>
</g>
<g>
	<ellipse fill="#205081" fill-opacity="0.3" cx="230.1" cy="58.1" rx="9.7" ry="1.4"/>
	
		<line fill="none" stroke="#205081" stroke-width="3" stroke-linecap="round" stroke-linejoin="round" stroke-miterlimit="10" x1="230.1" y1="24.1" x2="230.1" y2="57.4"/>
	<g>
		<g>
			<path fill="#FFBD17" d="M230,25.6c-6.5,0-11.9-5.3-11.9-11.9S223.4,1.8,230,1.8s11.9,5.3,11.9,11.9S236.5,25.6,230,25.6z"/>
			<path fill="#205081" d="M230,3.3c5.7,0,10.4,4.6,10.4,10.4c0,5.7-4.6,10.4-10.4,10.4s-10.4-4.6-10.4-10.4
				C219.6,8,224.2,3.3,230,3.3 M230,0.3c-7.4,0-13.4,6-13.4,13.4s6,13.4,13.4,13.4c7.4,0,13.4-6,13.4-13.4S237.3,0.3,230,0.3
				L230,0.3z"/>
		</g>
	</g>
	<g>
		<path fill="#FFCC5A" d="M230,3.3c-3.6,0-6.8,1.9-8.6,4.7c1.6-1.1,3.6-1.7,5.7-1.7c5.7,0,10.4,4.6,10.4,10.4c0,2.1-0.6,4.1-1.7,5.7
			c2.8-1.9,4.7-5,4.7-8.6C240.3,8,235.7,3.3,230,3.3z"/>
	</g>
</g>
<g>
	<ellipse fill="#205081" fill-opacity="0.3" cx="284.3" cy="159.4" rx="9.7" ry="1.4"/>
	
		<line fill="none" stroke="#205081" stroke-width="3" stroke-linecap="round" stroke-linejoin="round" stroke-miterlimit="10" x1="284.3" y1="125.3" x2="284.3" y2="158.7"/>
	<g>
		<g>
			<path fill="#FFBD17" d="M284.2,126.8c-6.5,0-11.9-5.3-11.9-11.9s5.3-11.9,11.9-11.9s11.9,5.3,11.9,11.9S290.7,126.8,284.2,126.8z
				"/>
			<path fill="#205081" d="M284.2,104.6c5.7,0,10.4,4.6,10.4,10.4c0,5.7-4.6,10.4-10.4,10.4s-10.4-4.6-10.4-10.4
				C273.8,109.2,278.4,104.6,284.2,104.6 M284.2,101.6c-7.4,0-13.4,6-13.4,13.4s6,13.4,13.4,13.4c7.4,0,13.4-6,13.4-13.4
				S291.5,101.6,284.2,101.6L284.2,101.6z"/>
		</g>
	</g>
	<g>
		<path fill="#FFCC5A" d="M284.2,104.6c-3.6,0-6.8,1.9-8.6,4.7c1.6-1.1,3.6-1.7,5.7-1.7c5.7,0,10.4,4.6,10.4,10.4
			c0,2.1-0.6,4.1-1.7,5.7c2.8-1.9,4.7-5,4.7-8.6C294.5,109.2,289.9,104.6,284.2,104.6z"/>
	</g>
</g>
</svg>
