<svg xmlns="http://www.w3.org/2000/svg" xmlns:xlink="http://www.w3.org/1999/xlink" viewBox="0 0 392.6 465.27"><defs><style>.cls-1{fill:#f4f5f7}.cls-2{fill:url(#linear-gradient)}.cls-3{fill:url(#linear-gradient-2)}.cls-4{fill:url(#linear-gradient-3)}.cls-5{fill:#ebecf0}.cls-15,.cls-6{fill:#42526e}.cls-7{fill:#ffc400}.cls-8{fill:#fafbfc}.cls-10{opacity:.3}.cls-98{fill:#5e6c84}.cls-13,.cls-15,.cls-24,.cls-89,.cls-90{stroke-miterlimit:10}.cls-13,.cls-15{stroke-width:1.41px}.cls-13,.cls-24{fill:none}.cls-13{stroke:#42526e}.cls-15{stroke:#5e6c84}.cls-19{fill:#8993a4}.cls-20{fill:#505f79}.cls-24{stroke:#dfe1e5}.cls-24,.cls-89,.cls-90{stroke-linecap:round}.cls-24{stroke-width:2.2px}.cls-25{fill:#dfe1e5}.cls-29{fill:#a5adba}.cls-30{fill:#0065ff}.cls-34{fill:#f0fbfd}.cls-35{fill:#c1c7d0}.cls-42{fill:#ff991f}.cls-79,.cls-96{fill:#091e42}.cls-79{opacity:.05}.cls-80{fill:#ffab00}.cls-81{fill:#b3bac5}.cls-82{fill:#0049b0;opacity:.6}.cls-85{fill:#cea28b}.cls-89,.cls-90{fill:#00b8d9;stroke-width:1.67px;stroke:#ffc400}.cls-90{stroke-width:3.89px}.cls-92{fill:#253858}.cls-93{fill:#8c715d}.cls-94{fill:#344563}.cls-102{fill:#172b4d}</style><linearGradient id="linear-gradient" x1="174.91" y1="292.36" x2="179.92" y2="263.94" gradientUnits="userSpaceOnUse"><stop offset="0" stop-color="#f4f5f7" stop-opacity="0"/><stop offset=".74" stop-color="#f4f5f7"/></linearGradient><linearGradient id="linear-gradient-2" x1="313.06" y1="299.04" x2="317.4" y2="274.45" gradientUnits="userSpaceOnUse"><stop offset="0" stop-color="#ebecf0" stop-opacity="0"/><stop offset=".89" stop-color="#ebecf0"/></linearGradient><linearGradient id="linear-gradient-3" x1="303.03" y1="447.71" x2="289.1" y2="391.84" gradientUnits="userSpaceOnUse"><stop offset=".15" stop-color="#dfe1e5" stop-opacity="0"/><stop offset="1" stop-color="#dfe1e5"/></linearGradient><linearGradient id="linear-gradient-4" x1="374.48" y1="297.11" x2="374.48" y2="79.5" gradientTransform="matrix(-1 0 0 1 679.81 0)" gradientUnits="userSpaceOnUse"><stop offset="0" stop-color="#5e6c84" stop-opacity="0"/><stop offset=".74" stop-color="#5e6c84"/></linearGradient><linearGradient id="linear-gradient-5" x1="274.29" y1="165.88" x2="274.29" y2="114.28" xlink:href="#linear-gradient-4"/><linearGradient id="linear-gradient-6" x1="226.1" y1="289.46" x2="226.1" y2="194.3" xlink:href="#linear-gradient-4"/><linearGradient id="linear-gradient-7" x1="49.26" y1="260.27" x2="49.26" y2="42.66" xlink:href="#linear-gradient-4"/><linearGradient id="linear-gradient-8" x1="66" y1="278.38" x2="63.74" y2="267.75" gradientTransform="matrix(-1 0 0 1 161.71 0)" gradientUnits="userSpaceOnUse"><stop offset="0" stop-color="#5e6c84" stop-opacity="0"/><stop offset=".31" stop-color="#5e6c84" stop-opacity=".38"/><stop offset=".62" stop-color="#5e6c84" stop-opacity=".72"/><stop offset=".86" stop-color="#5e6c84" stop-opacity=".92"/><stop offset="1" stop-color="#5e6c84"/></linearGradient><linearGradient id="linear-gradient-9" x1="95.71" y1="278.38" x2="97.97" y2="267.75" gradientTransform="matrix(-1 0 0 1 161.71 0)" gradientUnits="userSpaceOnUse"><stop offset=".03" stop-color="#42526e" stop-opacity="0"/><stop offset=".08" stop-color="#42526e" stop-opacity=".1"/><stop offset=".3" stop-color="#42526e" stop-opacity=".49"/><stop offset=".49" stop-color="#42526e" stop-opacity=".77"/><stop offset=".66" stop-color="#42526e" stop-opacity=".94"/><stop offset=".78" stop-color="#42526e"/></linearGradient><linearGradient id="linear-gradient-10" x1="359.64" y1="185.87" x2="359.64" y2="111.43" gradientUnits="userSpaceOnUse"><stop offset=".26" stop-color="#5e6c84"/><stop offset="1" stop-color="#5e6c84" stop-opacity="0"/></linearGradient><linearGradient id="linear-gradient-11" x1="-213.33" y1="292.38" x2="-215.59" y2="281.75" xlink:href="#linear-gradient-8"/><linearGradient id="linear-gradient-12" x1="-183.62" y1="292.38" x2="-181.36" y2="281.75" xlink:href="#linear-gradient-9"/><clipPath id="clip-path"><path id="_Clipping_Path_" data-name="&lt;Clipping Path&gt;" class="cls-8" d="M201.81 113.78V97.29l-48.79-10.83v16.49l48.79 10.83z"/></clipPath><linearGradient id="linear-gradient-13" x1="188.66" y1="4580.94" x2="188.66" y2="4564.48" gradientTransform="matrix(1 0 0 -1 0 4676.46)" gradientUnits="userSpaceOnUse"><stop offset="0" stop-color="#dfe1e5" stop-opacity="0"/><stop offset="1" stop-color="#dfe1e5"/></linearGradient><linearGradient id="linear-gradient-14" x1="193.17" y1="4579.83" x2="193.17" y2="4563.37" xlink:href="#linear-gradient-13"/><clipPath id="clip-path-2"><path id="_Clipping_Path_2" data-name="&lt;Clipping Path&gt;" class="cls-1" d="M201.81 178.87v-16.49l-48.79-10.83v16.49l48.79 10.83z"/></clipPath><linearGradient id="linear-gradient-15" x1="188.66" y1="4515.85" x2="188.66" y2="4499.39" gradientTransform="matrix(1 0 0 -1 0 4676.46)" gradientUnits="userSpaceOnUse"><stop offset="0" stop-color="#dfe1e5" stop-opacity="0"/><stop offset=".77" stop-color="#dce5e9" stop-opacity=".77"/><stop offset="1" stop-color="#dfe1e5"/></linearGradient><linearGradient id="linear-gradient-16" x1="193.17" y1="4514.74" x2="193.17" y2="4498.28" xlink:href="#linear-gradient-15"/><clipPath id="clip-path-3"><path id="_Clipping_Path_3" data-name="&lt;Clipping Path&gt;" class="cls-1" d="M201.81 200.4v-16.49l-48.79-10.83v16.49l48.79 10.83z"/></clipPath><linearGradient id="linear-gradient-17" x1="188.66" y1="4494.32" x2="188.66" y2="4477.86" xlink:href="#linear-gradient-15"/><linearGradient id="linear-gradient-18" x1="193.17" y1="4493.21" x2="193.17" y2="4476.75" xlink:href="#linear-gradient-15"/><clipPath id="clip-path-4"><path id="_Clipping_Path_4" data-name="&lt;Clipping Path&gt;" class="cls-1" d="M201.84 221.94v-16.48l-48.8-10.84v16.49l48.8 10.83z"/></clipPath><linearGradient id="linear-gradient-19" x1="188.69" y1="4472.78" x2="188.69" y2="4456.32" xlink:href="#linear-gradient-15"/><linearGradient id="linear-gradient-20" x1="193.19" y1="4471.67" x2="193.19" y2="4455.21" xlink:href="#linear-gradient-15"/><clipPath id="clip-path-5"><path id="_Clipping_Path_5" data-name="&lt;Clipping Path&gt;" class="cls-1" d="M201.81 243.46v-16.49l-48.79-10.84v16.49l48.79 10.84z"/></clipPath><linearGradient id="linear-gradient-21" x1="188.66" y1="4451.26" x2="188.66" y2="4434.8" xlink:href="#linear-gradient-15"/><linearGradient id="linear-gradient-22" x1="193.17" y1="4450.16" x2="193.17" y2="4433.69" xlink:href="#linear-gradient-15"/><clipPath id="clip-path-6"><path id="_Clipping_Path_6" data-name="&lt;Clipping Path&gt;" class="cls-1" d="M201.81 264.98v-16.49l-48.79-10.84v16.49l48.79 10.84z"/></clipPath><linearGradient id="linear-gradient-23" x1="188.66" y1="4429.74" x2="188.66" y2="4413.28" xlink:href="#linear-gradient-15"/><linearGradient id="linear-gradient-24" x1="193.17" y1="4428.63" x2="193.17" y2="4412.17" xlink:href="#linear-gradient-15"/><linearGradient id="linear-gradient-25" x1="131.26" y1="300.53" x2="125.99" y2="263" gradientUnits="userSpaceOnUse"><stop offset=".23" stop-color="#dfe1e5" stop-opacity="0"/><stop offset=".28" stop-color="#dfe1e5" stop-opacity=".11"/><stop offset=".48" stop-color="#dfe1e5" stop-opacity=".49"/><stop offset=".64" stop-color="#dfe1e5" stop-opacity=".76"/><stop offset=".76" stop-color="#dfe1e5" stop-opacity=".93"/><stop offset=".82" stop-color="#dfe1e5"/></linearGradient><clipPath id="clip-path-7"><path id="_Clipping_Path_7" data-name="&lt;Clipping Path&gt;" class="cls-2" d="M201.81 297.11v-27.08l-48.79-10.83v27.07l48.79 10.84z"/></clipPath><linearGradient id="linear-gradient-27" x1="188.66" y1="282.37" x2="188.66" y2="265.91" gradientUnits="userSpaceOnUse"><stop offset=".48" stop-color="#b3f5ff" stop-opacity="0"/><stop offset="1" stop-color="#b3f5ff"/></linearGradient><linearGradient id="linear-gradient-28" x1="188.66" y1="4410.56" x2="188.66" y2="4394.09" gradientTransform="matrix(1 0 0 -1 0 4676.46)" gradientUnits="userSpaceOnUse"><stop offset=".07" stop-color="#d1f2f8"/><stop offset=".74" stop-color="#d1f2f8" stop-opacity=".03"/><stop offset="1" stop-color="#d1f2f8" stop-opacity="0"/></linearGradient><linearGradient id="linear-gradient-29" x1="193.17" y1="283.48" x2="193.17" y2="267.02" xlink:href="#linear-gradient-27"/><linearGradient id="linear-gradient-30" x1="193.17" y1="4409.45" x2="193.17" y2="4392.98" xlink:href="#linear-gradient-28"/><clipPath id="clip-path-8"><path id="_Clipping_Path_8" data-name="&lt;Clipping Path&gt;" class="cls-1" d="M336.48 201v-14.26l-42.22-9.38v14.27l42.22 9.37z"/></clipPath><linearGradient id="linear-gradient-31" x1="325.1" y1="4491.26" x2="325.1" y2="4477.01" xlink:href="#linear-gradient-15"/><linearGradient id="linear-gradient-32" x1="329" y1="4490.3" x2="329" y2="4476.05" xlink:href="#linear-gradient-15"/><clipPath id="clip-path-9"><path id="_Clipping_Path_9" data-name="&lt;Clipping Path&gt;" class="cls-1" d="M336.46 219.62v-14.27l-42.22-9.37v14.27l42.22 9.37z"/></clipPath><linearGradient id="linear-gradient-33" x1="325.08" y1="4472.64" x2="325.08" y2="4458.4" xlink:href="#linear-gradient-15"/><linearGradient id="linear-gradient-34" x1="328.98" y1="4471.68" x2="328.98" y2="4457.44" xlink:href="#linear-gradient-15"/><clipPath id="clip-path-10"><path id="_Clipping_Path_10" data-name="&lt;Clipping Path&gt;" class="cls-1" d="M336.34 238.07V223.8l-42.22-9.37v14.26l42.22 9.38z"/></clipPath><linearGradient id="linear-gradient-35" x1="324.96" y1="4454.19" x2="324.96" y2="4439.95" xlink:href="#linear-gradient-15"/><linearGradient id="linear-gradient-36" x1="328.86" y1="4453.23" x2="328.86" y2="4438.99" xlink:href="#linear-gradient-15"/><clipPath id="clip-path-11"><path id="_Clipping_Path_11" data-name="&lt;Clipping Path&gt;" class="cls-1" d="M336.34 256.7v-14.27l-42.22-9.38v14.27l42.22 9.38z"/></clipPath><linearGradient id="linear-gradient-37" x1="324.96" y1="4435.57" x2="324.96" y2="4421.32" xlink:href="#linear-gradient-15"/><linearGradient id="linear-gradient-38" x1="328.86" y1="4434.61" x2="328.86" y2="4420.36" xlink:href="#linear-gradient-15"/><clipPath id="clip-path-12"><path id="_Clipping_Path_12" data-name="&lt;Clipping Path&gt;" class="cls-1" d="M336.34 275.33v-14.27l-42.22-9.37v14.26l42.22 9.38z"/></clipPath><linearGradient id="linear-gradient-39" x1="324.96" y1="4416.93" x2="324.96" y2="4402.69" xlink:href="#linear-gradient-15"/><linearGradient id="linear-gradient-40" x1="328.86" y1="4415.97" x2="328.86" y2="4401.73" xlink:href="#linear-gradient-15"/><clipPath id="clip-path-13"><path id="_Clipping_Path_13" data-name="&lt;Clipping Path&gt;" class="cls-3" d="M336.34 303.14v-23.42l-42.22-9.37v23.42l42.22 9.37z"/></clipPath><linearGradient id="linear-gradient-42" x1="324.96" y1="4398.27" x2="324.96" y2="4384.03" xlink:href="#linear-gradient-15"/><linearGradient id="linear-gradient-43" x1="328.86" y1="4397.31" x2="328.86" y2="4383.07" xlink:href="#linear-gradient-15"/><linearGradient id="linear-gradient-44" x1="127.4" y1="446.52" x2="139.75" y2="393.03" gradientUnits="userSpaceOnUse"><stop offset="0" stop-color="#c1c7d0" stop-opacity="0"/><stop offset=".08" stop-color="#c1c7d0" stop-opacity=".13"/><stop offset=".32" stop-color="#c1c7d0" stop-opacity=".5"/><stop offset=".51" stop-color="#c1c7d0" stop-opacity=".77"/><stop offset=".66" stop-color="#c1c7d0" stop-opacity=".94"/><stop offset=".74" stop-color="#c1c7d0"/></linearGradient><clipPath id="clip-path-14"><path id="_Clipping_Path_14" data-name="&lt;Clipping Path&gt;" class="cls-4" d="M377.31 374.28v54.91l-162.49 36.08v-54.91l162.49-36.08z"/></clipPath><linearGradient id="linear-gradient-46" x1="333.51" y1="434.11" x2="333.51" y2="379.29" xlink:href="#linear-gradient-13"/><linearGradient id="linear-gradient-47" x1="348.52" y1="430.42" x2="348.52" y2="375.6" xlink:href="#linear-gradient-13"/><clipPath id="clip-path-15"><path id="_Clipping_Path_15" data-name="&lt;Clipping Path&gt;" class="cls-5" d="M377.31 302.59v54.91l-162.49 36.08v-54.9l162.49-36.09z"/></clipPath><linearGradient id="linear-gradient-48" x1="333.51" y1="363.4" x2="333.51" y2="308.58" xlink:href="#linear-gradient-13"/><linearGradient id="linear-gradient-49" x1="348.52" y1="359.71" x2="348.52" y2="304.89" xlink:href="#linear-gradient-13"/><clipPath id="clip-path-16"><path id="_Clipping_Path_16" data-name="&lt;Clipping Path&gt;" class="cls-1" d="M214.82 266.51L52.33 302.59l162.49 36.09 162.49-36.09-162.49-36.08z"/></clipPath><linearGradient id="linear-gradient-50" x1="152.04" y1="65.3" x2="152.04" gradientUnits="userSpaceOnUse"><stop offset="0" stop-color="#dfe1e5"/><stop offset=".1" stop-color="#dfe1e5" stop-opacity=".98"/><stop offset=".24" stop-color="#dfe1e5" stop-opacity=".9"/><stop offset=".38" stop-color="#dfe1e5" stop-opacity=".79"/><stop offset=".55" stop-color="#dfe1e5" stop-opacity=".62"/><stop offset=".72" stop-color="#dfe1e5" stop-opacity=".42"/><stop offset=".9" stop-color="#dfe1e5" stop-opacity=".16"/><stop offset="1" stop-color="#dfe1e5" stop-opacity="0"/></linearGradient><clipPath id="clip-path-17"><circle id="_Ellipse_" data-name="&lt;Ellipse&gt;" class="cls-6" cx="215.16" cy="216.99" r=".89"/></clipPath><linearGradient id="linear-gradient-51" x1="3868.07" y1="221.2" x2="3873.9" y2="221.2" gradientTransform="translate(-3619.52)" gradientUnits="userSpaceOnUse"><stop offset="0" stop-color="#72594b"/><stop offset=".56" stop-color="#8c715d"/></linearGradient><clipPath id="clip-path-18"><path id="_Clipping_Path_17" data-name="&lt;Clipping Path&gt;" class="cls-7" d="M245.32 225q.15-1.69.37-3.3a8.31 8.31 0 0 1 3.66-1 9.25 9.25 0 0 0-.3 3.41 9.4 9.4 0 0 0 1.79 4.6 12.44 12.44 0 0 0 2.64-4.86 12.27 12.27 0 0 0 .44-3.49c.85.44 1.73.93 2.62 1.49l.71.46a3.88 3.88 0 0 1 1.24 1.21c.67 1.06.6 2.22.29 4.4-.13.91-.17.82-.26 1.62a16.1 16.1 0 0 0 0 3.87 23.11 23.11 0 0 1-.82 7.53 10 10 0 0 1-2.93.77 10.12 10.12 0 0 1-4.4-.52 5.3 5.3 0 0 1-4.92-.47 78.79 78.79 0 0 1-.13-15.72z"/></clipPath><linearGradient id="linear-gradient-52" x1="192.12" y1="231.85" x2="205.52" y2="231.85" gradientUnits="userSpaceOnUse"><stop offset=".3" stop-color="#0052cc"/><stop offset=".63" stop-color="#0065ff"/></linearGradient><linearGradient id="linear-gradient-53" x1="194.37" y1="226.57" x2="216.68" y2="226.57" gradientUnits="userSpaceOnUse"><stop offset="0" stop-color="#0052cc"/><stop offset="1" stop-color="#0065ff"/></linearGradient></defs><g style="isolation:isolate"><g id="Layer_2" data-name="Layer 2"><g id="Layer_1-2" data-name="Layer 1"><g class="cls-10"><path d="M301.07 114.28h-45l4.39-6.85h64l.78-27.93h7.14l.78 27.93h14.56a6.85 6.85 0 0 1 6.85 6.85h-9.77a3 3 0 0 1 3 3v4.31a3 3 0 0 1-3 3h-4.31a3 3 0 0 1-3-3v-4.31a3 3 0 0 1 3-3 6.94 6.94 0 0 0-6.94 7.14l4.91 175.69h-19.27l5-179.25a3.49 3.49 0 0 0-3.49-3.58h-19.63z" fill="url(#linear-gradient-4)"/><path stroke="url(#linear-gradient-5)" stroke-width="1.41" stroke-miterlimit="10" fill="#5e6c84" d="M274.29 114.28v51.6"/><path class="cls-13" d="M332.08 86.39l16.14 21.51M327.69 84.95l-53.4 23.11"/></g><path opacity=".5" fill="url(#linear-gradient-6)" d="M226.1 222.95V194.3h-27.87v81.86h27.87v13.3h27.88v-66.51H226.1z"/><g class="cls-10"><path class="cls-15" d="M49.83 178.91l30.48-27.04M80.31 77.43v74.44M80.31 151.87l32.51 26.56"/><path d="M53.52 77.43h45l-4.39-6.85h-64l-.78-27.93h-7.16l-.78 27.93H6.85A6.85 6.85 0 0 0 0 77.43h9.77a3 3 0 0 0-3 3v4.31a3 3 0 0 0 3 3h4.31a3 3 0 0 0 3-3v-4.27a3 3 0 0 0-3-3 6.94 6.94 0 0 1 6.92 7.1l-4.89 175.7H35.4L30.4 81a3.49 3.49 0 0 1 3.49-3.58h19.63z" fill="url(#linear-gradient-7)"/><path class="cls-13" d="M22.52 49.55L6.38 71.06M26.9 48.1l53.41 23.11"/><path fill="url(#linear-gradient-8)" d="M112.82 282.02v-10.8l-31.97-7.1v10.8l31.97 7.1z"/><path id="_Clipping_Path_18" data-name="&lt;Clipping Path&gt;" fill="url(#linear-gradient-9)" d="M48.89 282.02v-10.8l31.96-7.1v10.8l-31.96 7.1z"/><path class="cls-19" d="M112.82 189.24v-10.81l-31.97-7.09v10.8l31.97 7.1z"/><path id="_Clipping_Path_19" data-name="&lt;Clipping Path&gt;" class="cls-20" d="M48.89 189.24v-10.81l31.96-7.09v10.8l-31.96 7.1z"/><path class="cls-20" d="M80.85 196.34l31.97-7.1-31.97-7.1-31.96 7.1 31.96 7.1z"/><path class="cls-19" d="M112.82 203.42v-10.81l-31.97-7.09v10.8l31.97 7.1z"/><path id="_Clipping_Path_20" data-name="&lt;Clipping Path&gt;" class="cls-20" d="M48.89 203.42v-10.81l31.96-7.09v10.8l-31.96 7.1z"/><path class="cls-20" d="M80.85 211.73l30.42-6.75-30.42-6.76-30.41 6.76 30.41 6.75zM80.85 184.18v1.28l31.97 7.1-1.44-1.72-30.53-6.66z"/><path class="cls-20" d="M111.38 190.84l1.44-1.58-31.97-7.1v2.02l30.53 6.66z"/><path class="cls-19" d="M112.82 253.65v-10.81l-31.97-7.09v10.8l31.97 7.1z"/><path id="_Clipping_Path_21" data-name="&lt;Clipping Path&gt;" class="cls-20" d="M48.89 253.65v-10.81l31.96-7.09v10.8l-31.96 7.1z"/><path class="cls-20" d="M80.85 260.75l31.97-7.1-31.97-7.1-31.96 7.1 31.96 7.1zM111.38 205.03l1.44-1.59-31.97-7.1v2.02l30.53 6.67z"/><path class="cls-20" d="M50.34 205.01l-1.45-1.58 31.97-7.1v2.02l-30.52 6.66z"/><path class="cls-19" d="M112.82 267.83v-10.8l-31.97-7.1v10.8l31.97 7.1z"/><path id="_Clipping_Path_22" data-name="&lt;Clipping Path&gt;" class="cls-20" d="M48.89 267.83v-10.8l31.96-7.1v10.8l-31.96 7.1z"/><path class="cls-20" d="M80.85 248.59v1.28l31.97 7.1-1.44-1.71-30.53-6.67zM111.38 255.26l1.44-1.59-31.97-7.1v2.02l30.53 6.67z"/><path class="cls-20" d="M80.86 248.58v1.28l-31.97 7.1 1.45-1.72 30.52-6.66zM50.34 255.24l-1.45-1.58 31.97-7.1v2.02l-30.52 6.66zM80.85 262.78v1.28l31.97 7.1-1.44-1.72-30.53-6.66z"/><path class="cls-20" d="M111.38 269.44l1.44-1.58-31.97-7.1v2.02l30.53 6.66z"/><path class="cls-20" d="M80.86 262.76v1.29l-31.97 7.09 1.45-1.71 30.52-6.67z"/><path class="cls-20" d="M50.34 269.43l-1.45-1.59 31.97-7.09v2.01l-30.52 6.67z"/><path class="cls-15" d="M329.16 212.91l30.48-27.04"/><path stroke="url(#linear-gradient-10)" stroke-width="1.41" stroke-miterlimit="10" fill="#5e6c84" d="M359.64 111.43v74.44"/><path class="cls-15" d="M359.64 185.87l32.51 26.56"/><path fill="url(#linear-gradient-11)" d="M392.15 296.02v-10.8l-31.97-7.1v10.8l31.97 7.1z"/><path id="_Clipping_Path_23" data-name="&lt;Clipping Path&gt;" fill="url(#linear-gradient-12)" d="M328.21 296.02v-10.8l31.97-7.1v10.8l-31.97 7.1z"/><path class="cls-19" d="M392.15 223.24v-10.81l-31.97-7.09v10.8l31.97 7.1z"/><path id="_Clipping_Path_24" data-name="&lt;Clipping Path&gt;" class="cls-20" d="M328.21 223.24v-10.81l31.97-7.09v10.8l-31.97 7.1z"/><path class="cls-20" d="M360.18 230.34l31.97-7.1-31.97-7.1-31.97 7.1 31.97 7.1z"/><path class="cls-19" d="M392.15 267.65v-10.81l-31.97-7.09v10.8l31.97 7.1z"/><path id="_Clipping_Path_25" data-name="&lt;Clipping Path&gt;" class="cls-20" d="M328.21 267.65v-10.81l31.97-7.09v10.8l-31.97 7.1z"/><path class="cls-20" d="M360.18 274.75l31.97-7.1-31.97-7.1-31.97 7.1 31.97 7.1z"/><path class="cls-19" d="M392.15 281.83v-10.8l-31.97-7.1v10.8l31.97 7.1z"/><path id="_Clipping_Path_26" data-name="&lt;Clipping Path&gt;" class="cls-20" d="M328.21 281.83v-10.8l31.97-7.1v10.8l-31.97 7.1z"/><path class="cls-20" d="M360.18 262.59v1.28l31.97 7.1-1.45-1.71-30.52-6.67zM390.7 269.26l1.45-1.59-31.97-7.1v2.02l30.52 6.67z"/><path class="cls-20" d="M360.19 262.58v1.28l-31.97 7.1 1.44-1.72 30.53-6.66z"/><path class="cls-20" d="M329.66 269.24l-1.44-1.58 31.97-7.1v2.02l-30.53 6.66zM360.18 276.78v1.28l31.97 7.1-1.45-1.72-30.52-6.66z"/><path class="cls-20" d="M390.7 283.44l1.45-1.58-31.97-7.1v2.02l30.52 6.66z"/><path class="cls-20" d="M360.19 276.76v1.29l-31.97 7.09 1.44-1.71 30.53-6.67z"/><path class="cls-20" d="M329.66 283.43l-1.44-1.59 31.97-7.09v2.01l-30.53 6.67z"/></g><path class="cls-24" d="M105.72 98.17l46.32-33.97M152.04 64.2l47.89 34.91"/><path class="cls-25" d="M104.22 113.78V97.29l48.8-10.83v16.49l-48.8 10.83z"/><path id="_Clipping_Path_27" data-name="&lt;Clipping Path&gt;" class="cls-8" d="M201.81 113.78V97.29l-48.79-10.83v16.49l48.79 10.83z"/><g clip-path="url(#clip-path)" stroke-width="1.84" stroke-miterlimit="10" fill="#fafbfc"><path style="mix-blend-mode:multiply" stroke="url(#linear-gradient-13)" d="M188.66 111.98V95.52"/><path style="mix-blend-mode:multiply" stroke="url(#linear-gradient-14)" d="M193.17 113.09V96.63"/></g><path class="cls-29" d="M153.01 126.55l-46.59-10.35 46.59-10.35 46.59 10.35-46.59 10.35z"/><path class="cls-30" d="M161.43 96.26a2.39 2.39 0 0 0-1.82-2.38 1.62 1.62 0 0 0-2.05 1.52 2.39 2.39 0 0 0 1.82 2.38 1.62 1.62 0 0 0 2.05-1.52zM168 97.71a2.39 2.39 0 0 0-1.82-2.38 1.62 1.62 0 0 0-2.05 1.52 2.39 2.39 0 0 0 1.82 2.38 1.62 1.62 0 0 0 2.05-1.52z"/><path class="cls-25" d="M104.22 178.87v-16.49l48.8-10.83v16.49l-48.8 10.83z"/><path id="_Clipping_Path_28" data-name="&lt;Clipping Path&gt;" class="cls-1" d="M201.81 178.87v-16.49l-48.79-10.83v16.49l48.79 10.83z"/><g clip-path="url(#clip-path-2)" stroke-width="1.84" fill="none" stroke-miterlimit="10"><path style="mix-blend-mode:multiply" stroke="url(#linear-gradient-15)" d="M188.66 177.07v-16.46"/><path style="mix-blend-mode:multiply" stroke="url(#linear-gradient-16)" d="M193.17 178.18v-16.46"/></g><path class="cls-34" d="M153.02 189.71l-48.8-10.84 48.8-10.83 48.79 10.83-48.79 10.84z"/><path class="cls-30" d="M161.43 161.35a2.39 2.39 0 0 0-1.82-2.38 1.62 1.62 0 0 0-2.05 1.52 2.39 2.39 0 0 0 1.82 2.38 1.62 1.62 0 0 0 2.05-1.52zM168 162.8a2.39 2.39 0 0 0-1.82-2.38 1.62 1.62 0 0 0-2.05 1.52 2.39 2.39 0 0 0 1.82 2.38 1.62 1.62 0 0 0 2.05-1.52z"/><path class="cls-1" d="M153.02 149.5v1.96l-48.8 10.83 2.21-2.61 46.59-10.18z"/><path class="cls-35" d="M106.43 116.2l-2.21-2.42 48.8-10.83v3.08l-46.59 10.17z"/><path class="cls-8" d="M153.01 149.48v1.96l48.8 10.83-2.21-2.62-46.59-10.17z"/><path class="cls-25" d="M199.61 116.2l2.2-2.42-48.79-10.83v3.08l46.59 10.17zM104.22 200.4v-16.49l48.8-10.83v16.49l-48.8 10.83z"/><path id="_Clipping_Path_29" data-name="&lt;Clipping Path&gt;" class="cls-1" d="M201.81 200.4v-16.49l-48.79-10.83v16.49l48.79 10.83z"/><g clip-path="url(#clip-path-3)" stroke-width="1.84" fill="none" stroke-miterlimit="10"><path style="mix-blend-mode:multiply" stroke="url(#linear-gradient-17)" d="M188.66 198.6v-16.46"/><path style="mix-blend-mode:multiply" stroke="url(#linear-gradient-18)" d="M193.17 199.71v-16.46"/></g><path class="cls-34" d="M153.02 211.24l-48.8-10.84 48.8-10.83 48.79 10.83-48.79 10.84z"/><path class="cls-30" d="M161.43 182.88a2.39 2.39 0 0 0-1.82-2.38 1.62 1.62 0 0 0-2.05 1.52 2.39 2.39 0 0 0 1.82 2.38 1.62 1.62 0 0 0 2.05-1.52zM168 184.33a2.39 2.39 0 0 0-1.82-2.38 1.62 1.62 0 0 0-2.05 1.52 2.39 2.39 0 0 0 1.82 2.38 1.62 1.62 0 0 0 2.05-1.52z"/><path class="cls-1" d="M153.02 171.12v1.95l-48.8 10.84 2.21-2.62 46.59-10.17z"/><path class="cls-29" d="M106.43 181.29l-2.21-2.42 48.8-10.83v3.08l-46.59 10.17z"/><path class="cls-8" d="M153.02 171.12v1.95l48.79 10.84-2.2-2.62-46.59-10.17z"/><path class="cls-25" d="M199.61 181.29l2.2-2.42-48.79-10.83v3.08l46.59 10.17zM104.25 221.94v-16.48l48.79-10.84v16.49l-48.79 10.83z"/><path id="_Clipping_Path_30" data-name="&lt;Clipping Path&gt;" class="cls-1" d="M201.84 221.94v-16.48l-48.8-10.84v16.49l48.8 10.83z"/><g clip-path="url(#clip-path-4)" stroke-width="1.84" fill="none" stroke-miterlimit="10"><path style="mix-blend-mode:multiply" stroke="url(#linear-gradient-19)" d="M188.69 220.15v-16.47"/><path style="mix-blend-mode:multiply" stroke="url(#linear-gradient-20)" d="M193.19 221.25v-16.46"/></g><path class="cls-34" d="M153.04 232.78l-48.79-10.84 48.79-10.83 48.8 10.83-48.8 10.84z"/><path class="cls-30" d="M161.45 204.42a2.39 2.39 0 0 0-1.82-2.38 1.62 1.62 0 0 0-2.05 1.52 2.39 2.39 0 0 0 1.82 2.38 1.62 1.62 0 0 0 2.05-1.52z"/><path class="cls-42" d="M168 205.87a2.39 2.39 0 0 0-1.82-2.38 1.62 1.62 0 0 0-2.05 1.52 2.39 2.39 0 0 0 1.82 2.38 1.62 1.62 0 0 0 2.05-1.52z"/><path class="cls-1" d="M153.02 192.65v1.95l-48.8 10.84 2.21-2.62 46.59-10.17z"/><path class="cls-29" d="M106.43 202.82l-2.21-2.42 48.8-10.83v3.08l-46.59 10.17z"/><path class="cls-8" d="M153.02 192.65v1.95l48.79 10.84-2.2-2.62-46.59-10.17z"/><path class="cls-25" d="M199.61 202.82l2.2-2.42-48.79-10.83v3.08l46.59 10.17zM104.22 243.46v-16.49l48.8-10.84v16.49l-48.8 10.84z"/><path id="_Clipping_Path_31" data-name="&lt;Clipping Path&gt;" class="cls-1" d="M201.81 243.46v-16.49l-48.79-10.84v16.49l48.79 10.84z"/><g clip-path="url(#clip-path-5)" stroke-width="1.84" fill="none" stroke-miterlimit="10"><path style="mix-blend-mode:multiply" stroke="url(#linear-gradient-21)" d="M188.66 241.66V225.2"/><path style="mix-blend-mode:multiply" stroke="url(#linear-gradient-22)" d="M193.17 242.77v-16.46"/></g><path class="cls-34" d="M153.02 254.29l-48.8-10.83 48.8-10.84 48.79 10.84-48.79 10.83z"/><path class="cls-30" d="M161.43 225.94a2.39 2.39 0 0 0-1.82-2.38 1.62 1.62 0 0 0-2.05 1.52 2.39 2.39 0 0 0 1.82 2.38 1.62 1.62 0 0 0 2.05-1.52zM168 227.38a2.39 2.39 0 0 0-1.82-2.38 1.62 1.62 0 0 0-2.05 1.52 2.39 2.39 0 0 0 1.82 2.38 1.62 1.62 0 0 0 2.05-1.52z"/><path class="cls-1" d="M153.02 214.17v1.96l-48.8 10.84 2.2-2.62 46.6-10.18z"/><path class="cls-29" d="M106.42 224.35l-2.2-2.42 48.8-10.84v3.08l-46.6 10.18z"/><path class="cls-8" d="M153.02 214.17v1.96l48.79 10.84-2.2-2.62-46.59-10.18z"/><path class="cls-25" d="M199.61 224.35l2.2-2.42-48.79-10.84v3.08l46.59 10.18zM104.22 264.98v-16.49l48.8-10.84v16.49l-48.8 10.84z"/><path id="_Clipping_Path_32" data-name="&lt;Clipping Path&gt;" class="cls-1" d="M201.81 264.98v-16.49l-48.79-10.84v16.49l48.79 10.84z"/><g clip-path="url(#clip-path-6)" stroke-width="1.84" fill="none" stroke-miterlimit="10"><path style="mix-blend-mode:multiply" stroke="url(#linear-gradient-23)" d="M188.66 263.18v-16.46"/><path style="mix-blend-mode:multiply" stroke="url(#linear-gradient-24)" d="M193.17 264.29v-16.46"/></g><path class="cls-30" d="M161.43 247.46a2.39 2.39 0 0 0-1.82-2.38 1.62 1.62 0 0 0-2.05 1.52 2.39 2.39 0 0 0 1.82 2.38 1.62 1.62 0 0 0 2.05-1.52z"/><path class="cls-42" d="M168 248.91a2.39 2.39 0 0 0-1.82-2.38 1.62 1.62 0 0 0-2.08 1.47 2.39 2.39 0 0 0 1.82 2.38 1.62 1.62 0 0 0 2.08-1.47z"/><path class="cls-1" d="M153.02 235.71v1.95l-48.8 10.84 2.21-2.62 46.59-10.17z"/><path class="cls-29" d="M106.43 245.88l-2.21-2.42 48.8-10.84v3.09l-46.59 10.17z"/><path class="cls-8" d="M153.01 235.71v1.95l48.8 10.84-2.21-2.62-46.59-10.17z"/><path class="cls-25" d="M199.6 245.88l2.21-2.42-48.8-10.84v3.09l46.59 10.17z"/><path fill="url(#linear-gradient-25)" d="M104.22 304.33v-34.3l48.8-10.83v34.29l-48.8 10.84z"/><path id="_Clipping_Path_33" data-name="&lt;Clipping Path&gt;" class="cls-2" d="M201.81 297.11v-27.08l-48.79-10.83v27.07l48.79 10.84z"/><g clip-path="url(#clip-path-7)" stroke-width="1.84" stroke-miterlimit="10"><path style="mix-blend-mode:multiply" fill="url(#linear-gradient-27)" stroke="url(#linear-gradient-28)" d="M188.66 282.37v-16.46"/><path style="mix-blend-mode:multiply" fill="url(#linear-gradient-29)" stroke="url(#linear-gradient-30)" d="M193.17 283.48v-16.46"/></g><path class="cls-1" d="M153.02 257.23v1.96l-48.8 10.83 2.21-2.62 46.59-10.17z"/><path class="cls-29" d="M106.43 267.4l-2.21-2.42 48.8-10.83v3.08l-46.59 10.17z"/><path class="cls-8" d="M153.02 257.23v1.96l48.79 10.83-2.2-2.62-46.59-10.17z"/><path class="cls-25" d="M199.61 267.4l2.2-2.42-48.79-10.83v3.08l46.59 10.17z"/><path class="cls-5" d="M252.04 201v-14.26l42.22-9.38v14.27L252.04 201z"/><path id="_Clipping_Path_34" data-name="&lt;Clipping Path&gt;" class="cls-1" d="M336.48 201v-14.26l-42.22-9.38v14.27l42.22 9.37z"/><g clip-path="url(#clip-path-8)" stroke-width="1.84" fill="none" stroke-miterlimit="10"><path style="mix-blend-mode:multiply" stroke="url(#linear-gradient-31)" d="M325.1 199.45V185.2"/><path style="mix-blend-mode:multiply" stroke="url(#linear-gradient-32)" d="M329 200.41v-14.25"/></g><path class="cls-1" d="M294.26 210.38L252.04 201l42.22-9.37 42.22 9.37-42.22 9.38z"/><path class="cls-42" d="M301.54 185.84a2.07 2.07 0 0 0-1.58-2.06 1.4 1.4 0 0 0-1.77 1.31 2.07 2.07 0 0 0 1.58 2.06 1.4 1.4 0 0 0 1.77-1.31zM307.2 187.1a2.07 2.07 0 0 0-1.58-2.06 1.4 1.4 0 0 0-1.77 1.31 2.07 2.07 0 0 0 1.58 2.06 1.4 1.4 0 0 0 1.77-1.31z"/><path class="cls-5" d="M252.02 219.62v-14.27l42.22-9.37v14.27l-42.22 9.37z"/><path id="_Clipping_Path_35" data-name="&lt;Clipping Path&gt;" class="cls-1" d="M336.46 219.62v-14.27l-42.22-9.37v14.27l42.22 9.37z"/><g clip-path="url(#clip-path-9)" stroke-width="1.84" fill="none" stroke-miterlimit="10"><path style="mix-blend-mode:multiply" stroke="url(#linear-gradient-33)" d="M325.08 218.07v-14.25"/><path style="mix-blend-mode:multiply" stroke="url(#linear-gradient-34)" d="M328.98 219.03v-14.25"/></g><path class="cls-1" d="M294.24 229l-42.22-9.38 42.22-9.37 42.22 9.37-42.22 9.38z"/><path class="cls-30" d="M301.52 204.46a2.07 2.07 0 0 0-1.58-2.06 1.4 1.4 0 0 0-1.77 1.31 2.07 2.07 0 0 0 1.58 2.06 1.4 1.4 0 0 0 1.77-1.31zM307.18 205.72a2.07 2.07 0 0 0-1.58-2.06 1.4 1.4 0 0 0-1.77 1.31 2.07 2.07 0 0 0 1.58 2.06 1.4 1.4 0 0 0 1.77-1.31z"/><path class="cls-25" d="M294.26 194.3v1.69l-42.22 9.38 1.9-2.27 40.32-8.8z"/><path class="cls-5" d="M253.94 203.1l-1.9-2.09 42.22-9.38v2.67l-40.32 8.8z"/><path class="cls-25" d="M294.26 194.3v1.69l42.22 9.38-1.91-2.27-40.31-8.8z"/><path class="cls-5" d="M334.57 203.1l1.91-2.09-42.22-9.38v2.67l40.31 8.8zM251.9 238.07V223.8l42.22-9.37v14.26l-42.22 9.38z"/><path id="_Clipping_Path_36" data-name="&lt;Clipping Path&gt;" class="cls-1" d="M336.34 238.07V223.8l-42.22-9.37v14.26l42.22 9.38z"/><g clip-path="url(#clip-path-10)" stroke-width="1.84" fill="none" stroke-miterlimit="10"><path style="mix-blend-mode:multiply" stroke="url(#linear-gradient-35)" d="M324.96 236.51v-14.24"/><path style="mix-blend-mode:multiply" stroke="url(#linear-gradient-36)" d="M328.86 237.47v-14.24"/></g><path class="cls-1" d="M294.12 247.45l-42.22-9.38 42.22-9.38 42.22 9.38-42.22 9.38z"/><path class="cls-30" d="M301.39 222.91a2.07 2.07 0 0 0-1.58-2.06 1.4 1.4 0 0 0-1.77 1.31 2.07 2.07 0 0 0 1.58 2.06 1.4 1.4 0 0 0 1.77-1.31zM307.06 224.16a2.07 2.07 0 0 0-1.58-2.06 1.4 1.4 0 0 0-1.77 1.31 2.07 2.07 0 0 0 1.58 2.06 1.4 1.4 0 0 0 1.77-1.31z"/><path class="cls-25" d="M294.11 212.74v1.69l-42.22 9.38 1.91-2.27 40.31-8.8z"/><path class="cls-5" d="M253.8 221.54l-1.91-2.09 42.22-9.38v2.67l-40.31 8.8z"/><path class="cls-25" d="M294.11 212.74v1.69l42.22 9.38-1.91-2.27-40.31-8.8z"/><path class="cls-5" d="M334.42 221.54l1.91-2.09-42.22-9.38v2.67l40.31 8.8zM251.9 256.7v-14.27l42.22-9.38v14.27l-42.22 9.38z"/><path id="_Clipping_Path_37" data-name="&lt;Clipping Path&gt;" class="cls-1" d="M336.34 256.7v-14.27l-42.22-9.38v14.27l42.22 9.38z"/><g clip-path="url(#clip-path-11)" stroke-width="1.84" fill="none" stroke-miterlimit="10"><path style="mix-blend-mode:multiply" stroke="url(#linear-gradient-37)" d="M324.96 255.14V240.9"/><path style="mix-blend-mode:multiply" stroke="url(#linear-gradient-38)" d="M328.86 256.1v-14.24"/></g><path class="cls-1" d="M294.12 266.07l-42.22-9.37 42.22-9.38 42.22 9.38-42.22 9.37z"/><path class="cls-30" d="M301.39 241.54a2.07 2.07 0 0 0-1.58-2.06 1.4 1.4 0 0 0-1.77 1.31 2.07 2.07 0 0 0 1.58 2.06 1.4 1.4 0 0 0 1.77-1.31z"/><path class="cls-42" d="M307.06 242.79a2.07 2.07 0 0 0-1.58-2.06 1.4 1.4 0 0 0-1.78 1.27 2.07 2.07 0 0 0 1.58 2.06 1.4 1.4 0 0 0 1.78-1.27z"/><path class="cls-25" d="M294.12 231.36v1.69l-42.22 9.38 1.91-2.27 40.31-8.8z"/><path class="cls-5" d="M253.81 240.16l-1.91-2.09 42.22-9.38v2.67l-40.31 8.8z"/><path class="cls-25" d="M294.12 231.36v1.69l42.22 9.38-1.91-2.27-40.31-8.8z"/><path class="cls-5" d="M334.43 240.16l1.91-2.09-42.22-9.38v2.67l40.31 8.8zM251.9 275.33v-14.27l42.22-9.37v14.26l-42.22 9.38z"/><path id="_Clipping_Path_38" data-name="&lt;Clipping Path&gt;" class="cls-1" d="M336.34 275.33v-14.27l-42.22-9.37v14.26l42.22 9.38z"/><g clip-path="url(#clip-path-12)" stroke-width="1.84" fill="none" stroke-miterlimit="10"><path style="mix-blend-mode:multiply" stroke="url(#linear-gradient-39)" d="M324.96 273.77v-14.24"/><path style="mix-blend-mode:multiply" stroke="url(#linear-gradient-40)" d="M328.86 274.73v-14.24"/></g><path class="cls-30" d="M301.39 260.17a2.07 2.07 0 0 0-1.58-2.06 1.4 1.4 0 0 0-1.77 1.31 2.07 2.07 0 0 0 1.58 2.06 1.4 1.4 0 0 0 1.77-1.31zM307.06 261.42a2.07 2.07 0 0 0-1.58-2.06 1.4 1.4 0 0 0-1.77 1.31 2.07 2.07 0 0 0 1.58 2.06 1.4 1.4 0 0 0 1.77-1.31z"/><path class="cls-25" d="M294.12 249.99v1.69l-42.22 9.38 1.91-2.27 40.31-8.8z"/><path class="cls-5" d="M253.81 258.79l-1.91-2.09 42.22-9.38v2.67l-40.31 8.8z"/><path class="cls-25" d="M294.12 249.99v1.69l42.22 9.38-1.91-2.27-40.31-8.8z"/><path class="cls-5" d="M334.43 258.79l1.91-2.09-42.22-9.38v2.67l40.31 8.8zM251.9 309.39v-29.67l42.22-9.37v29.67l-42.22 9.37z"/><path id="_Clipping_Path_39" data-name="&lt;Clipping Path&gt;" class="cls-3" d="M336.34 303.14v-23.42l-42.22-9.37v23.42l42.22 9.37z"/><g clip-path="url(#clip-path-13)" stroke-width="1.84" fill="none" stroke-miterlimit="10"><path style="mix-blend-mode:multiply" stroke="url(#linear-gradient-42)" d="M324.96 292.43v-14.24"/><path style="mix-blend-mode:multiply" stroke="url(#linear-gradient-43)" d="M328.86 293.39v-14.24"/></g><path class="cls-30" d="M301.39 278.83a2.07 2.07 0 0 0-1.58-2.06 1.4 1.4 0 0 0-1.77 1.31 2.07 2.07 0 0 0 1.58 2.06 1.4 1.4 0 0 0 1.77-1.31zM307.06 280.08a2.07 2.07 0 0 0-1.58-2.06 1.4 1.4 0 0 0-1.77 1.31 2.07 2.07 0 0 0 1.58 2.06 1.4 1.4 0 0 0 1.77-1.31z"/><path class="cls-25" d="M294.12 268.65v1.69l-42.22 9.38 1.91-2.27 40.31-8.8z"/><path class="cls-5" d="M253.81 277.45l-1.91-2.09 42.22-9.37v2.66l-40.31 8.8z"/><path class="cls-25" d="M294.12 268.65v1.7l42.22 9.37-1.91-2.27-40.31-8.8z"/><path class="cls-5" d="M334.43 277.45l1.91-2.09-42.22-9.37v2.66l40.31 8.8z"/><path fill="url(#linear-gradient-44)" d="M52.33 374.28v54.91l162.49 36.08v-54.91L52.33 374.28z"/><path id="_Clipping_Path_40" data-name="&lt;Clipping Path&gt;" class="cls-4" d="M377.31 374.28v54.91l-162.49 36.08v-54.91l162.49-36.08z"/><g clip-path="url(#clip-path-14)" stroke-width="6.12" fill="none" stroke-miterlimit="10"><path style="mix-blend-mode:multiply" stroke="url(#linear-gradient-46)" d="M333.51 379.29v54.82"/><path style="mix-blend-mode:multiply" stroke="url(#linear-gradient-47)" d="M348.52 375.6v54.82"/></g><path class="cls-1" d="M214.82 338.19L52.33 374.28l162.49 36.08 162.49-36.08-162.49-36.09z"/><path class="cls-35" d="M52.33 302.59v54.91l162.49 36.08v-54.9L52.33 302.59z"/><path id="_Clipping_Path_41" data-name="&lt;Clipping Path&gt;" class="cls-5" d="M377.31 302.59v54.91l-162.49 36.08v-54.9l162.49-36.09z"/><g clip-path="url(#clip-path-15)" stroke-width="6.12" fill="none" stroke-miterlimit="10"><path style="mix-blend-mode:multiply" stroke="url(#linear-gradient-48)" d="M333.51 308.58v54.82"/><path style="mix-blend-mode:multiply" stroke="url(#linear-gradient-49)" d="M348.52 304.89v54.82"/></g><path id="_Clipping_Path_42" data-name="&lt;Clipping Path&gt;" class="cls-1" d="M214.82 266.51L52.33 302.59l162.49 36.09 162.49-36.09-162.49-36.08z"/><g clip-path="url(#clip-path-16)"><ellipse class="cls-79" cx="214.91" cy="274.27" rx="20.74" ry="4.2"/></g><path class="cls-30" d="M242.83 360.94a8 8 0 0 1-6.07 7.91 5.4 5.4 0 0 1-6.83-5.06 8 8 0 0 1 6.07-7.91 5.4 5.4 0 0 1 6.83 5.06zM264.62 356.12a8 8 0 0 1-6.07 7.91 5.4 5.4 0 0 1-6.83-5.06 8 8 0 0 1 6.07-7.91 5.4 5.4 0 0 1 6.83 5.06z"/><path class="cls-80" d="M286.41 351.29a8 8 0 0 1-6.07 7.91 5.4 5.4 0 0 1-6.83-5.06 8 8 0 0 1 6.07-7.91 5.4 5.4 0 0 1 6.83 5.06z"/><path class="cls-81" d="M214.82 400.1v-6.52L52.33 357.5l7.34 8.73 155.15 33.87z"/><path class="cls-29" d="M59.67 366.23l-7.34 8.05 162.49 36.08V400.1L59.67 366.23z"/><path class="cls-81" d="M214.8 400.16v-6.51l162.49-36.08-7.34 8.72-155.15 33.87z"/><path class="cls-35" d="M369.95 366.29l7.34 8.06-162.49 36.08v-10.27l155.15-33.87z"/><path class="cls-82" d="M242.83 431.76a8 8 0 0 1-6.07 7.91 5.4 5.4 0 0 1-6.83-5.06 8 8 0 0 1 6.07-7.91 5.4 5.4 0 0 1 6.83 5.06zM264.62 426.93a8 8 0 0 1-6.07 7.91 5.4 5.4 0 0 1-6.83-5.06 8 8 0 0 1 6.07-7.91 5.4 5.4 0 0 1 6.83 5.06zM286.41 422.11a8 8 0 0 1-6.07 7.91 5.4 5.4 0 0 1-6.83-5.06 8 8 0 0 1 6.07-7.91 5.4 5.4 0 0 1 6.83 5.06z"/><path stroke-width="0" stroke="#dfe1e5" fill="none" stroke-miterlimit="10" d="M80.31 124.55v24.98"/><path stroke="url(#linear-gradient-50)" stroke-width="2.2" stroke-linecap="round" fill="none" stroke-miterlimit="10" d="M152.04 64.2V1.1"/><path class="cls-85" d="M210.58 219.66v-.74l.3-.9a7 7 0 0 0-.21-2 6.9 6.9 0 0 0-.3-.9h-.33l-.33-.05a.63.63 0 0 0-.23.06 1.31 1.31 0 0 0-.53 1.16c0 .44.17.74 0 1l-.08.09a.88.88 0 0 0-.49-.65.71.71 0 0 0-.38 0l.14.28a6.26 6.26 0 0 1 .36 1l.34.92.24 1.19z"/><path d="M200.3 223.1a3.13 3.13 0 0 1 2.61.17 14.11 14.11 0 0 1 2 1.22l2 1.32c.65.45 1.29.93 1.91 1.43l-2.35 1.09a15.1 15.1 0 0 0 .82-2.24c.23-.76.4-1.52.58-2.29.38-1.53.68-3.07.93-4.63l2.18.43c-.05.79-.08 1.59-.18 2.37s-.17 1.57-.29 2.35-.21 1.56-.38 2.33a12.12 12.12 0 0 1-.67 2.27 1.62 1.62 0 0 1-1.61 1h-.5c-.43 0-.83-.12-1.25-.18l-1.19-.29a18.08 18.08 0 0 1-2.27-.78 9.61 9.61 0 0 1-2-1.19 8.34 8.34 0 0 1-1.85-1.54z" fill="#0052cc"/><path stroke-width="3.04" stroke="#ffab00" fill="#00b8d9" stroke-linecap="round" stroke-miterlimit="10" d="M215.7 230.03v28.79"/><path stroke-width="1.67" stroke="#ffab00" fill="#00b8d9" stroke-linecap="round" stroke-miterlimit="10" d="M215.7 258.82v11.02"/><path class="cls-89" d="M230.02 275.74l-13.71-47.54"/><path class="cls-90" d="M226.32 262.92l-10.01-34.72"/><path class="cls-89" d="M201.27 275.74l13.71-47.54"/><path class="cls-90" d="M204.97 262.92l10.01-34.72"/><path class="cls-80" d="M217.65 224.5h-2.8v-12.24a.32.32 0 0 1 .32-.32h2.15a.32.32 0 0 1 .32.32zm1.31 0v-12.66a.77.77 0 0 0-.77-.77h-3.91a.77.77 0 0 0-.77.77v12.66z"/><path class="cls-7" d="M209.67 223v-8l3.44-2.3v11.8h-1.9a1.53 1.53 0 0 1-1.54-1.5z"/><path class="cls-80" d="M222.39 223v-8l-3.44-2.3v11.8h1.9a1.53 1.53 0 0 0 1.54-1.5z"/><path class="cls-7" d="M220.84 223v-8l-3.44-2.3v11.8h1.9a1.53 1.53 0 0 0 1.54-1.5z"/><path class="cls-7" d="M216.81 224.5h-3.27v-12.18a.38.38 0 0 1 .38-.38h2.5a.38.38 0 0 1 .38.38zm.84 0v-12.66a.77.77 0 0 0-.77-.77h-3.42a.77.77 0 0 0-.77.77v12.66z"/><path class="cls-25" d="M213.91 214.25h2.48v5.98h-2.48z"/><path class="cls-81" d="M216.39 214.25h.43v5.98h-.43z"/><circle id="_Ellipse_2" data-name="&lt;Ellipse&gt;" class="cls-6" cx="215.16" cy="216.99" r=".89"/><g clip-path="url(#clip-path-17)"><circle class="cls-92" cx="215.59" cy="216.99" r=".89"/></g><path class="cls-7" d="M212.69 222.02h5.17v2.48h-5.17z"/><path class="cls-80" d="M212.69 224.5h6.13v2.48h-6.13z"/><path class="cls-92" d="M210.58 226.98h10.09v1.79h-10.09z"/><path class="cls-93" d="M267.77 222.89l1.37-1a1.2 1.2 0 0 0 .52-1l-.11-2.59a1.2 1.2 0 0 0-.76-1.07l-1.49-.59a.32.32 0 0 0-.38.11.32.32 0 0 0-.06.19v.17h-.11a.27.27 0 0 0-.25.17.27.27 0 0 0 0 .26l.25.32h-.2a.39.39 0 0 0 .13.43l.31.24.25 1-.1.17a3 3 0 0 0-.38 1.14 1.89 1.89 0 0 0 .58 1.62z"/><ellipse class="cls-79" cx="251.28" cy="284.05" rx="19.58" ry="3.41"/><rect class="cls-94" x="243.67" y="239.69" width="3.7" height="5.04" rx=".62" ry=".62" transform="rotate(-180 245.52 242.21)"/><path d="M248.55 221.22c0 .17.2 3.14 1.85 3.84 1.24.53 2.92-1 4-1.89a10.25 10.25 0 0 1 0-5.94l-5 1.23a11.14 11.14 0 0 1 .07 1.53c0 .65-.08.9-.27 1.06a.86.86 0 0 1-.65.17z" fill="url(#linear-gradient-51)"/><path class="cls-93" d="M230.49 224.64l-1.49-2.56a.33.33 0 0 0-.6-.09.44.44 0 0 0-.42-.12.45.45 0 0 0-.31.46.4.4 0 0 0-.32 0 .59.59 0 0 0 0 .77.52.52 0 0 0-.28.22.53.53 0 0 0-.05.43c.32 1 .48 1.68.48 1.68a4.9 4.9 0 0 0 2.05 2.09.74.74 0 0 0 1-.82z"/><path id="_Path_" data-name="&lt;Path&gt;" class="cls-30" d="M239.24 233.31a3.47 3.47 0 0 0 1.55.12 4.33 4.33 0 0 0 2.3-1.36c1.26-1.17 2.33-2.21 3.22-3.11l-.3-7.26-1.75 1.72q-2.95 2.93-5.61 5.83z"/><path class="cls-96" d="M251.25 285.73a2 2 0 0 1 .12-1.49c.43-.7 1.31-.66 2.28-1.09A5.32 5.32 0 0 0 256 281h2.79a7.33 7.33 0 0 1 .62 3.06l-1.76.34-1.22.36a14.19 14.19 0 0 1-5.19 1zM240.1 284.26a2 2 0 0 1 .31-1.46c.51-.63 1.38-.49 2.4-.79a5.32 5.32 0 0 0 2.62-1.87l2.77.37a7.33 7.33 0 0 1 .23 3.12l-1.79.12-1.26.2a14.19 14.19 0 0 1-5.28.33z"/><path id="_Path_2" data-name="&lt;Path&gt;" d="M245.89 238.43c-.56 4.25-1 8.74-1.28 13.45a190.42 190.42 0 0 0 .44 28.47 4.94 4.94 0 0 0 3.6.14q0-2.62.09-5.23.1-6.74.15-13.49.34-2.21.62-4.56c.31-2.65.52-5.19.65-7.61q1.22 6.21 2.3 12.75 1.61 9.74 2.69 18.9a9.27 9.27 0 0 0 4.21 0 119.28 119.28 0 0 0-.57-12.93c-.22-2.28-.51-4.47-.83-6.56 0-4.74-.1-9.76-.46-15q-.26-3.82-.65-7.44z" fill="#6c798f"/><path id="_Path_3" data-name="&lt;Path&gt;" class="cls-30" d="M246.77 239.52a13.31 13.31 0 0 0 7.61.71l-.44-19.8-3 2-1.59-1.63q-.2.62-.39 1.26a55.78 55.78 0 0 0-2.19 17.46z"/><path class="cls-98" transform="rotate(-180 251.165 241.575)" d="M245.5 240.03h11.33v3.08H245.5z"/><path id="_Clipping_Path_43" data-name="&lt;Clipping Path&gt;" class="cls-7" d="M245.32 225q.15-1.69.37-3.3a8.31 8.31 0 0 1 3.66-1 9.25 9.25 0 0 0-.3 3.41 9.4 9.4 0 0 0 1.79 4.6 12.44 12.44 0 0 0 2.64-4.86 12.27 12.27 0 0 0 .44-3.49c.85.44 1.73.93 2.62 1.49l.71.46a3.88 3.88 0 0 1 1.24 1.21c.67 1.06.6 2.22.29 4.4-.13.91-.17.82-.26 1.62a16.1 16.1 0 0 0 0 3.87 23.11 23.11 0 0 1-.82 7.53 10 10 0 0 1-2.93.77 10.12 10.12 0 0 1-4.4-.52 5.3 5.3 0 0 1-4.92-.47 78.79 78.79 0 0 1-.13-15.72z"/><g clip-path="url(#clip-path-18)"><path style="mix-blend-mode:multiply" stroke="#ffe380" stroke-width=".71" fill="#dfe1e5" stroke-miterlimit="10" d="M250.89 228.19l-.44 14.28"/></g><path d="M250.53 228.32l.32.46.39-.47-.41 13.09-.44-.14-.26.1z" style="mix-blend-mode:multiply" fill="#ffe380"/><path class="cls-93" d="M230.9 226.06v-.54a3.41 3.41 0 0 0-.2-1.4l-.71-1.93a.77.77 0 0 0-.52.91l.18.78-.65 2.49 1.1.66a1.09 1.09 0 0 0 .8-.97z"/><path id="_Path_4" data-name="&lt;Path&gt;" class="cls-30" d="M264.65 234.82a1.45 1.45 0 0 1-1.05-.09 11 11 0 0 1-4-2.65c-.79-.75-1.69-1.62-2.65-2.62a10.58 10.58 0 0 1-.35-1.71 11.14 11.14 0 0 1 .67-5.2 1.6 1.6 0 0 1 .92.56L260 225a52.66 52.66 0 0 1 5.08 5.86l.05.08a3.34 3.34 0 0 1 .2.37c.16.26.52 3.02-.68 3.51z"/><path id="_Path_5" data-name="&lt;Path&gt;" class="cls-93" d="M250.85 219.75c-2.18.3-2.4.35-2.64.14a4.24 4.24 0 0 1-.57-1.54c-.13-.47-.23-.86-.29-1.14-.15 0-.57.15-.7 0s0-.31.14-.62a8.37 8.37 0 0 0 .36-1.17v-.24a3.77 3.77 0 0 1 1.41-3.12 4.06 4.06 0 0 1 4.39-.52 3.9 3.9 0 0 1 2 3 8 8 0 0 1-.44 2.55l-.05.16c-.1.3-.58.59-.58.59-.42.25-.51.15-.74.32-.42.3-.28.72-.58 1.11s-.62.33-1.71.48z"/><path class="cls-96" d="M253.2 217.65c-.58-.28-.32-1.63-.77-1.76-.2-.06-.44.15-.63.39h-.66a6 6 0 0 0-.26-1.42c-.24-.79-.45-1.44-.91-1.58s-.53.16-1.92.77a5.74 5.74 0 0 1-.88.33 3.61 3.61 0 0 1 .13-.55 4.23 4.23 0 0 1 1.24-1.79 4.06 4.06 0 0 1 4.39-.52 3.9 3.9 0 0 1 2 3 8 8 0 0 1-.44 2.55l-.05.16c-.15.09-.8.63-1.24.42z"/><path id="_Path_6" data-name="&lt;Path&gt;" class="cls-30" d="M262.43 233.52c-.92-1.84 1.17-3.9 3.69-10.24.29-.74.52-1.36.68-1.79a3.29 3.29 0 0 1 2.12.81c-.17 1.77-.39 3.23-.56 4.3a17.91 17.91 0 0 1-1.91 6.33c-.95 1.68-1.56 1.91-1.94 1.95a2.38 2.38 0 0 1-2.08-1.36z"/><path class="cls-30" d="M239.94 229.29c-.82-.79-1.59-1-3.65-1.62-1.13-.36-2.89-.94-5.09-1.71l-1.88 2.2a39 39 0 0 0 9.25 4.91c1.22.44 2.3.74 2.77.25.66-.68-.08-2.78-1.4-4.03z"/><rect class="cls-94" x="254.8" y="240.86" width="4.48" height="6.11" rx=".76" ry=".76" transform="rotate(-180 257.045 243.915)"/><rect class="cls-80" x="253.25" y="241.19" width="1.62" height="5.43" rx=".81" ry=".81" transform="rotate(180 254.06 243.9)"/><ellipse class="cls-30" cx="257.26" cy="227.1" rx="1.37" ry="4.72"/><path class="cls-80" d="M246.65 213.22a4.33 4.33 0 1 1 8.56 1.37z"/><path class="cls-42" transform="rotate(9.2 248.92 211.515)" d="M246.33 213.13h9.5v.79h-9.5z"/><path class="cls-85" d="M215.77 223.92l.78-.24h1a7.64 7.64 0 0 0 2-1 7.56 7.56 0 0 0 .82-.63l-.07-.36-.07-.36a.69.69 0 0 0-.14-.22 1.43 1.43 0 0 0-1.39-.12c-.45.16-.71.45-1.07.34l-.12-.05a1 1 0 0 0 .49-.75.78.78 0 0 0-.11-.41l-.24.25a6.86 6.86 0 0 1-.85.72l-.82.69-1.14.68z"/><ellipse class="cls-79" cx="190.33" cy="282.04" rx="18.49" ry="3.22"/><path class="cls-102" d="M180.07 276.22a6.21 6.21 0 0 0-2.84 1.92c.09.25.19.5.31.76a10.4 10.4 0 0 0 2.35 3.24h3.09a.76.76 0 0 0 0-.25c-.13-.79-1.53-1.09-1.62-1.11a3.92 3.92 0 0 1 0-3.34z"/><circle class="cls-92" cx="192.12" cy="226.89" r="6.11"/><path class="cls-94" d="M193.93 235.79c2.06-1.72 6.82-.92 8.26 1.53s-.67 6.81-3.26 11.81c-.71 1.38-1.8 3.4-6.73 11.24-2.73 4.36-3.29 5.16-5 8-2.48 4-4.39 7.34-5.6 9.48l-2.65-1.24c1.29-3 2.23-5.49 2.85-7.18 1.31-3.57 1.85-5.5 3.25-8.55.92-2 1.8-3.59 2.38-4.58q.83-2.44 1.63-5 1.57-4.89 2.91-9.62a8 8 0 0 1 .38-3.21 6.21 6.21 0 0 1 1.58-2.68z"/><path class="cls-102" d="M199 278.38c-.12.43-.23.89-.33 1.38a17.13 17.13 0 0 0-.25 1.86.5.5 0 0 0 .5.54h6.38a1.15 1.15 0 0 0-.21-.85c-.26-.3-.64-.28-1.09-.36a4.9 4.9 0 0 1-2.37-1.24 3.85 3.85 0 0 1-.89-1.37z"/><path class="cls-98" d="M197.77 233.19a5.45 5.45 0 0 1 4.16.61c1.56 1.07 2.29 3.17 2.19 11-.05 3.91-.3 8.16-1 14.51-.51 4.78-.76 5.9-1.14 10.15-.36 3.95-.53 7.19-.62 9.33l-3.18.18c-.7-3.95-1.15-7.29-1.46-9.85a24.89 24.89 0 0 1-.21-6.2 31.4 31.4 0 0 1 1-4.88c.15-.5.31-1 .46-1.38-.2-1.06-.52-2.72-1-4.74-.56-2.51-1.06-4.72-1.87-7.5-1.36-4.66-1.91-5.15-1.58-6.68a6.16 6.16 0 0 1 4.25-4.55z"/><path class="cls-92" d="M204.52 216.38a5 5 0 0 1 .12 3.46 4.31 4.31 0 0 1-1.81 2.3 3.13 3.13 0 0 1-1.17.39 2.26 2.26 0 0 1-1.12-.08c-1.26-.68.17-6 2-7.38a1.11 1.11 0 0 1 .85-.28c.61.1.94 1.04 1.13 1.59z"/><path class="cls-7" d="M205.78 237.25a7.54 7.54 0 0 1-2.17 2.19 8.4 8.4 0 0 1-6.42 1v-18.9h3.89a5.45 5.45 0 0 1 3.28 1.75 5.68 5.68 0 0 1 1.15 2.68c.53 2.77-.66 4-.68 6.79a11 11 0 0 0 .95 4.49z"/><path d="M192.12 239a10.62 10.62 0 0 0 13.4-.19 9 9 0 0 1-1-2 9.65 9.65 0 0 1-.12-5.88c.42-1.31.83-1.46.85-2.48a11.65 11.65 0 0 0-.68-2.87c-.45-1.62-.46-1.71-.61-1.92s-.84-1.05-3.42-1.19a13.7 13.7 0 0 0-6.94 1.65 43.78 43.78 0 0 0 .68 4.61c.5 2.44.93 3.48.45 4.92a17.64 17.64 0 0 1-1.19 2.21 28 28 0 0 0-1.42 3.14z" fill="url(#linear-gradient-52)"/><path id="_Path_7" data-name="&lt;Path&gt;" class="cls-85" d="M204.39 218.39a1 1 0 0 1-.25.22 2.91 2.91 0 0 1-.32.21v.68a10.83 10.83 0 0 1-.15 1.26 8.78 8.78 0 0 1-1.31.24 6.8 6.8 0 0 1-2.39-.09 4.33 4.33 0 0 1-1.52-.6 3.51 3.51 0 0 1 3.26-6.18 3 3 0 0 1 1.54 1.42c.17.4.08.44.36 1.12a7 7 0 0 0 .29.63c.33.62.6.88.49 1.09z"/><path class="cls-85" d="M198.22 219.18a3.8 3.8 0 0 1 .15 3.55q.89.59 1.81 1.23 1.31.92 2.51 1.84l-1.06-2.71a9 9 0 0 1 .21-2.11z"/><path class="cls-7" d="M201.78 241.78a19.38 19.38 0 0 1-11.29-1.36 9.75 9.75 0 0 0 2.36-4.51c.42-2.05-.2-3.46-.42-5.84a46.1 46.1 0 0 1-.06-7.63h6.49a2.92 2.92 0 0 1 2.92 2.92zM197.31 224c-1.19.12-2 1.39-2.2 2.23a4.16 4.16 0 0 0 1.14 3.78 2.19 2.19 0 0 0 1.39.92c1.3.06 2.89-2 2.61-4-.25-1.41-1.49-3.04-2.94-2.93z"/><path d="M195.73 223a5.35 5.35 0 0 1 3.49.4 26.14 26.14 0 0 1 3 1.49l2.94 1.59 1.45.83 1.43.87-1.69.21c3.16-2.39 5.33-3.87 8.5-6.27a3.52 3.52 0 0 1 1.84 1.48 23.8 23.8 0 0 1-2.44 2.55 46.82 46.82 0 0 1-6 4.61l-.17.06a2.9 2.9 0 0 1-1.35.13 25.38 25.38 0 0 1-3.35-.71q-1.63-.45-3.2-1a19.87 19.87 0 0 1-3-1.46c-.49-.27-1-.54-1.45-.83a10.46 10.46 0 0 1-1.38-1z" fill="url(#linear-gradient-53)"/><path class="cls-92" d="M202.08 217.37c-.36.44-.54.22-.88.61-.72.82 0 1.85-.67 2.61-.32.36-.64.11-.9.46-.38.52.23 1.09 0 2a2.13 2.13 0 0 1-1.39 1.45c-.77.22-1.12-.34-1.69-.12-.83.31-.48 1.66-1.29 2.47-1.07 1.06-3.56 1.15-5.19-.17a4.72 4.72 0 0 1-1.36-4.82 5.26 5.26 0 0 1 2.37-3.1c1.11-.65 1.78-.41 2.83-1.29a5.17 5.17 0 0 0 1.39-1.73 6.73 6.73 0 0 1 2.24-2.34 5 5 0 0 1 3.17-.46c.7.09 2 .27 2.47 1.18a1.51 1.51 0 0 1 .08 1.24c-.09.16-.16.19-.33.36-.57.57-.4 1.09-.85 1.65z"/><path class="cls-80" d="M195.19 215.46a4.72 4.72 0 0 1 9.45.06z"/><path class="cls-42" transform="rotate(.34 201.18 216.791)" d="M194.83 214.62h10.35v.87h-10.35z"/></g></g></g></svg>