<svg id="Layer_1" data-name="Layer 1" xmlns="http://www.w3.org/2000/svg" viewBox="0 0 256 256"><defs><style>.cls-1{opacity:0.2;}.cls-2{fill:#59addf;}.cls-3{opacity:0.4;}.cls-4{fill:#205081;}.cls-5{fill:#f5f5f5;}.cls-6{fill:#c1cad4;}.cls-7{fill:#3572b0;}.cls-8{fill:#4ac6c6;}</style></defs><title>Artboard 20</title><g class="cls-1"><path class="cls-2" d="M217,229c19.82-22,31.93-50.16,31.93-81.63a120,120,0,1,0-240,0C8.95,178.87,21.06,207,40.88,229Z"/></g><g id="_Group_" data-name="&lt;Group&gt;" class="cls-3"><g class="cls-1"><g id="_Group_2" data-name="&lt;Group&gt;"><rect class="cls-4" x="26.95" y="62" width="79" height="95" rx="2.87" ry="2.87"/><path class="cls-4" d="M103.07,159H29.82a4.88,4.88,0,0,1-4.87-4.87V64.87A4.88,4.88,0,0,1,29.82,60h73.25a4.88,4.88,0,0,1,4.87,4.87v89.25A4.88,4.88,0,0,1,103.07,159ZM29.82,64a.87.87,0,0,0-.87.87v89.25a.87.87,0,0,0,.87.87h73.25a.87.87,0,0,0,.87-.87V64.87a.87.87,0,0,0-.87-.87Z"/></g><g id="_Group_3" data-name="&lt;Group&gt;" class="cls-1"><path class="cls-4" d="M105.95,73h-79V64.68A2.72,2.72,0,0,1,29.82,62H103.1a2.69,2.69,0,0,1,2.85,2.68Z"/></g><g id="_Group_4" data-name="&lt;Group&gt;"><path class="cls-4" d="M83.95,105h-33a2,2,0,0,1-2-2V89a2,2,0,0,1,2-2h33a2,2,0,0,1,2,2v14A2,2,0,0,1,83.95,105Zm-31-4h29V91h-29Z"/></g><g id="_Group_5" data-name="&lt;Group&gt;"><path class="cls-4" d="M58.95,135h-17a2,2,0,0,1-2-2V120a2,2,0,0,1,2-2h17a2,2,0,0,1,2,2v13A2,2,0,0,1,58.95,135Zm-15-4h13v-9h-13Z"/></g><g id="_Group_6" data-name="&lt;Group&gt;"><path class="cls-4" d="M90.95,142h-17a2,2,0,0,1-2-2V127a2,2,0,0,1,2-2h17a2,2,0,0,1,2,2v13A2,2,0,0,1,90.95,142Zm-15-4h13v-9h-13Z"/></g><g id="_Group_7" data-name="&lt;Group&gt;"><path class="cls-4" d="M52.95,120h-4v-9a2,2,0,0,1,2-2h14v-6h4v8a2,2,0,0,1-2,2h-14Z"/></g><g id="_Group_8" data-name="&lt;Group&gt;"><path class="cls-4" d="M83.95,127h-4V113h-13v-4h15a2,2,0,0,1,2,2Z"/></g><g id="_Group_9" data-name="&lt;Group&gt;"><rect class="cls-4" x="39.95" y="57" width="53" height="10"/><path class="cls-4" d="M92.95,69h-53a2,2,0,0,1-2-2V57a2,2,0,0,1,2-2h53a2,2,0,0,1,2,2V67A2,2,0,0,1,92.95,69Zm-51-4h49V59h-49Z"/></g><g id="_Group_10" data-name="&lt;Group&gt;" class="cls-1"><rect class="cls-4" x="39.95" y="62" width="53" height="5"/></g></g><g id="_Group_11" data-name="&lt;Group&gt;"><rect class="cls-5" x="26.95" y="60" width="79" height="95" rx="2.87" ry="2.87"/><path class="cls-4" d="M103.07,157H29.82a4.88,4.88,0,0,1-4.87-4.87V62.87A4.88,4.88,0,0,1,29.82,58h73.25a4.88,4.88,0,0,1,4.87,4.87v89.25A4.88,4.88,0,0,1,103.07,157ZM29.82,62a.87.87,0,0,0-.87.87v89.25a.87.87,0,0,0,.87.87h73.25a.87.87,0,0,0,.87-.87V62.87a.87.87,0,0,0-.87-.87Z"/></g><g id="_Group_12" data-name="&lt;Group&gt;" class="cls-1"><path class="cls-4" d="M105.95,71h-79V62.68A2.72,2.72,0,0,1,29.82,60H103.1a2.69,2.69,0,0,1,2.85,2.68Z"/></g><g id="_Group_13" data-name="&lt;Group&gt;" class="cls-1"><g id="_Group_14" data-name="&lt;Group&gt;"><path class="cls-4" d="M83.95,103h-33a2,2,0,0,1-2-2V87a2,2,0,0,1,2-2h33a2,2,0,0,1,2,2v14A2,2,0,0,1,83.95,103Zm-31-4h29V89h-29Z"/></g><g id="_Group_15" data-name="&lt;Group&gt;"><path class="cls-4" d="M58.95,133h-17a2,2,0,0,1-2-2V118a2,2,0,0,1,2-2h17a2,2,0,0,1,2,2v13A2,2,0,0,1,58.95,133Zm-15-4h13v-9h-13Z"/></g><g id="_Group_16" data-name="&lt;Group&gt;"><path class="cls-4" d="M90.95,140h-17a2,2,0,0,1-2-2V125a2,2,0,0,1,2-2h17a2,2,0,0,1,2,2v13A2,2,0,0,1,90.95,140Zm-15-4h13v-9h-13Z"/></g><g id="_Group_17" data-name="&lt;Group&gt;"><path class="cls-4" d="M52.95,118h-4v-9a2,2,0,0,1,2-2h14v-6h4v8a2,2,0,0,1-2,2h-14Z"/></g><g id="_Group_18" data-name="&lt;Group&gt;"><path class="cls-4" d="M83.95,125h-4V111h-13v-4h15a2,2,0,0,1,2,2Z"/></g></g><g id="_Group_19" data-name="&lt;Group&gt;"><rect class="cls-5" x="39.95" y="55" width="53" height="10"/><path class="cls-4" d="M92.95,67h-53a2,2,0,0,1-2-2V55a2,2,0,0,1,2-2h53a2,2,0,0,1,2,2V65A2,2,0,0,1,92.95,67Zm-51-4h49V57h-49Z"/></g><g id="_Group_20" data-name="&lt;Group&gt;" class="cls-1"><rect class="cls-4" x="39.95" y="60" width="53" height="5"/></g></g><rect class="cls-4" x="10.95" y="227" width="236" height="4"/><g id="_Group_21" data-name="&lt;Group&gt;"><g id="_Group_22" data-name="&lt;Group&gt;"><rect class="cls-5" x="76.95" y="120" width="155" height="99" rx="4" ry="4"/><path class="cls-4" d="M227.95,221h-147a6,6,0,0,1-6-6V124a6,6,0,0,1,6-6h147a6,6,0,0,1,6,6v91A6,6,0,0,1,227.95,221Zm-147-99a2,2,0,0,0-2,2v91a2,2,0,0,0,2,2h147a2,2,0,0,0,2-2V124a2,2,0,0,0-2-2Z"/></g><g id="_Group_23" data-name="&lt;Group&gt;"><path class="cls-6" d="M80.7,220H228.45a3.5,3.5,0,0,1,3.5,3.5V229a0,0,0,0,1,0,0h-155a0,0,0,0,1,0,0v-5.25A3.75,3.75,0,0,1,80.7,220Z"/><path class="cls-4" d="M233.95,231h-159v-7.25c0-3.55,3.37-5.75,6.5-5.75h147a5.39,5.39,0,0,1,5.5,5.75Zm-155-4h151v-3.25c0-1.75-1.09-1.75-1.5-1.75h-147c-1.16,0-2.5.76-2.5,1.75Z"/></g><g id="_Group_24" data-name="&lt;Group&gt;" class="cls-1"><rect class="cls-4" x="76.95" y="212" width="155" height="12"/></g><g id="_Group_25" data-name="&lt;Group&gt;" class="cls-1"><circle class="cls-4" cx="154.95" cy="169.25" r="10"/></g></g><g id="_Group_26" data-name="&lt;Group&gt;"><g id="_Group_27" data-name="&lt;Group&gt;"><path class="cls-5" d="M30.1,229H45.8a3.86,3.86,0,0,0,3.75-3.54L52.39,193H23.51l2.84,32.46A3.86,3.86,0,0,0,30.1,229Z"/><path class="cls-4" d="M45.8,231H30.1a5.86,5.86,0,0,1-5.75-5.37l-2.84-32.46a2,2,0,0,1,2-2.17H52.39a2,2,0,0,1,2,2.17l-2.84,32.46A5.86,5.86,0,0,1,45.8,231ZM25.69,195l2.65,30.28A1.86,1.86,0,0,0,30.1,227H45.8a1.86,1.86,0,0,0,1.76-1.72L50.21,195Z"/></g><g id="_Group_28" data-name="&lt;Group&gt;" class="cls-1"><path class="cls-4" d="M45.47,225.46,48.31,193h4.08l-2.84,32.46A3.86,3.86,0,0,1,45.8,229H41.72A3.86,3.86,0,0,0,45.47,225.46Z"/></g><g id="_Group_29" data-name="&lt;Group&gt;"><path class="cls-7" d="M20.95,187h34a0,0,0,0,1,0,0v4.7a1.3,1.3,0,0,1-1.3,1.3H21.88a.94.94,0,0,1-.94-.94V187A0,0,0,0,1,20.95,187Z" transform="translate(75.89 380) rotate(180)"/><path class="cls-4" d="M54.95,195h-34a2,2,0,0,1-2-2v-5.06a3,3,0,0,1,3.3-2.94H53.64a3,3,0,0,1,3.3,2.94V193A2,2,0,0,1,54.95,195Zm-32-4h30v-2h-30Z"/></g><g id="_Group_30" data-name="&lt;Group&gt;"><path class="cls-7" d="M23.95,181h28a0,0,0,0,1,0,0v4.4a1.6,1.6,0,0,1-1.6,1.6H24.76a.81.81,0,0,1-.81-.81V181A0,0,0,0,1,23.95,181Z" transform="translate(75.89 368) rotate(180)"/><path class="cls-4" d="M51.95,189h-28a2,2,0,0,1-2-2v-4.4c0-3.5,2.53-3.6,2.81-3.6H51.13c.29,0,2.81.1,2.81,3.6V187A2,2,0,0,1,51.95,189Zm-26-4h24v-2h-24Z"/></g><g id="_Group_31" data-name="&lt;Group&gt;" class="cls-1"><rect class="cls-4" x="23.95" y="193" width="28" height="2" transform="translate(75.89 388) rotate(180)"/></g><g id="_Group_32" data-name="&lt;Group&gt;" class="cls-1"><rect class="cls-4" x="23.95" y="184" width="28" height="3" transform="translate(75.89 371) rotate(180)"/></g><g id="_Group_33" data-name="&lt;Group&gt;"><circle class="cls-8" cx="37.95" cy="209.91" r="5.65"/></g></g></svg>