<?xml version="1.0" encoding="UTF-8"?>
<svg width="98px" height="95px" viewBox="0 0 98 95" version="1.1" xmlns="http://www.w3.org/2000/svg" xmlns:xlink="http://www.w3.org/1999/xlink">
    <!-- Generator: Sketch 48.2 (47327) - http://www.bohemiancoding.com/sketch -->
    <title>no-search-repos</title>
    <desc>Created with Sketch.</desc>
    <defs>
        <linearGradient x1="99.7646965%" y1="26.6320634%" x2="46.5685299%" y2="75.2076031%" id="linearGradient-1">
            <stop stop-color="#B3D4FF" stop-opacity="0.4" offset="0%"></stop>
            <stop stop-color="#B3D4FF" offset="100%"></stop>
        </linearGradient>
        <path d="M8.03698658,13.7292738 C3.22025867,21.6817646 5.76229677,32.0332617 13.7147876,36.8499896 C21.6672784,41.6667175 32.0187754,39.1246794 36.8355034,31.1721886 C41.652231,23.2196978 39.1101928,12.868201 31.1577021,8.05147319 C23.2052115,3.23474537 12.8537146,5.77678328 8.03698658,13.7292738 Z" id="path-2"></path>
        <linearGradient x1="-36.9040169%" y1="72.1003704%" x2="122.957382%" y2="20.6492618%" id="linearGradient-4">
            <stop stop-color="#FFFFFF" offset="0%"></stop>
            <stop stop-color="#FFFFFF" stop-opacity="0.1" offset="69.08%"></stop>
        </linearGradient>
    </defs>
    <g id="Illustrations" stroke="none" stroke-width="1" fill="none" fill-rule="evenodd">
        <g id="no-search-repos">
            <g>
                <circle id="Oval-2" fill="#DEEBFF" fill-rule="nonzero" cx="42.5" cy="42.5" r="42.5"></circle>
                <g id="Bitbucket-icon-white-Copy" transform="translate(20.879999, 23.041999)">
                    <polygon id="Shape" points="17.0118259 25.7922817 26.0710187 25.7922817 28.2577204 13.08579 14.602983 13.08579"></polygon>
                    <path d="M41.3435104,13.08579 L28.3141209,13.08579 L26.1275159,25.8054036 L17.1034315,25.8054036 L6.44807043,38.421212 C6.78579829,38.7123531 7.21638626,38.8742492 7.66285101,38.8779554 L35.942943,38.8779554 C36.630707,38.8867803 37.2212693,38.3922265 37.3312637,37.7153357 L41.3435104,13.08579 Z" id="Shape" fill="url(#linearGradient-1)" fill-rule="nonzero"></path>
                    <path d="M1.40322064,0.000115435878 C0.993965491,-0.00516271589 0.603322458,0.170790944 0.336081332,0.480776935 C0.0688402071,0.790762927 -0.0476435572,1.20305033 0.0178767499,1.60704326 L5.89866155,37.3057759 C5.97094084,37.7401018 6.19415372,38.1349994 6.52899302,38.4209284 C6.86599674,38.7123244 7.29566146,38.8743622 7.74116892,38.8780717 L18.6576788,25.8010039 L17.1268738,25.8010039 L14.7233021,13.0702568 L41.3496116,13.0702568 L43.2198259,1.62089608 C43.2892698,1.2183666 43.1775135,0.805709229 42.9144295,0.493227328 C42.6513455,0.180745426 42.2637554,0.000296817396 41.8552621,0.000115435878 L1.40322064,0.000115435878 Z" id="Shape" fill="#B3D4FF" fill-rule="nonzero"></path>
                </g>
                <g id="Magnifying-Glass" transform="translate(32.543624, 46.000000)">
                    <path d="M43.4463926,31.5476799 L40.1947,29.5782087 L37.4555671,34.1006456 L40.7072597,36.0701168 C41.5373832,36.5729213 42.2078885,37.3008414 42.640951,38.1693886 C43.0740135,39.0379358 43.7445188,39.7658559 44.5746423,40.2686604 L57.7665933,48.2587517 C58.7264725,48.840118 59.8779868,49.0163558 60.9678088,48.7486939 C62.0576308,48.4810319 62.9964852,47.7913963 63.5778289,46.8315034 C64.1591951,45.8716241 64.335433,44.7201098 64.0677711,43.6302878 C63.8001091,42.5404658 63.1104735,41.6016114 62.1505805,41.0202678 L48.9588597,33.0303409 C48.1287121,32.5275445 47.17299,32.2704943 46.2026262,32.2890268 C45.2322592,32.3075495 44.2765368,32.0504878 43.4463926,31.5476799 Z" id="Shape" fill="#CFD4DB" fill-rule="nonzero"></path>
                    <path d="M43.4463926,31.5476799 L42.4559349,30.9477752 C41.8562206,30.584525 41.1367668,30.474393 40.4558504,30.6416078 C39.774934,30.8088226 39.1883342,31.2396864 38.8251007,31.8394107 C38.068715,33.0882389 38.4679129,34.7137856 39.7167362,35.4701792 L40.707194,36.0700839 C41.5373174,36.5728884 42.2078227,37.3008085 42.6408852,38.1693557 C43.0739478,39.0379029 43.744453,39.765823 44.5745765,40.2686275 L57.7665275,48.2587188 C58.7264068,48.8400851 59.877921,49.0163229 60.967743,48.748661 C62.0575651,48.480999 62.9964195,47.7913634 63.5777631,46.8314705 C64.1591294,45.8715912 64.3353672,44.720077 64.0677053,43.6302549 C63.8000433,42.5404329 63.1104077,41.6015785 62.1505148,41.0202349 L48.9588597,33.0303409 C48.1287156,32.527533 47.1729932,32.2704713 46.2026262,32.288994 C45.2322624,32.3075265 44.2765402,32.0504763 43.4463926,31.5476799 Z" id="_Path_" fill="#8777D9" fill-rule="nonzero"></path>
                    <path d="M46.0875255,32.2871195 C45.1563494,32.2849453 44.2433304,32.0293268 43.4463926,31.5476799 L42.4559349,30.9477752 C41.8562206,30.584525 41.1367668,30.474393 40.4558504,30.6416078 C39.774934,30.8088226 39.1883342,31.2396864 38.8251007,31.8394107 C38.068715,33.0882389 38.4679129,34.7137856 39.7167362,35.4701792 L40.707194,36.0700839 C41.5019844,36.5525212 42.1506975,37.2419175 42.5839597,38.0645483 C44.0383134,36.327755 45.2197001,34.3796136 46.0874926,32.2871195 L46.0875255,32.2871195 Z" id="Shape" fill="#8777D9" fill-rule="nonzero" style="mix-blend-mode: multiply;"></path>
                    <path d="M27.7075926,43.9211007 C19.022685,46.053912 9.90817393,42.7450599 4.61412987,35.5374527 C-0.67991418,28.3298455 -1.11092342,18.6428932 3.52208054,10.993594 C6.54808033,5.96679285 11.4592978,2.35944829 17.1610826,0.975593289 L17.1613128,0.975593289 C22.8554781,-0.439199369 28.8789935,0.482790464 33.889255,3.53605705 C41.5386242,8.16906189 45.6438978,16.9537687 44.2907668,25.7938263 C42.9376359,34.633884 36.3925809,41.7883651 27.7075926,43.9211007 Z" id="Shape" fill="#0052CC" fill-rule="nonzero"></path>
                    <mask id="mask-3" fill="white">
                        <use xlink:href="#path-2"></use>
                    </mask>
                    <use id="_Path_2" fill="#CCE0FF" fill-rule="nonzero" xlink:href="#path-2"></use>
                    <path d="M31.9118999,-11.5861169 L16.0106084,-11.5861169 L13.3420379,3.93711893 L2.32888982,3.93711893 L-10.6750966,19.3336689 C-10.2629277,19.6889826 -9.73743069,19.8865634 -9.19255741,19.8910865 L25.3209544,19.8910865 C26.1603135,19.9018565 26.8810458,19.2982945 27.0152848,18.4722053 L31.9118999,-11.5861169 Z" id="Shape" fill="url(#linearGradient-1)" fill-rule="nonzero" mask="url(#mask-3)"></path>
                    <path d="M26.4511208,38.7994497 C34.0055093,36.9426422 39.3054625,30.1537555 39.2736973,22.3745839 C38.7307235,22.6558449 38.1722228,22.9060597 37.6008899,23.1240208 C32.436849,25.0843168 27.8372289,23.8179134 25.5979617,23.1670356 C18.8791409,21.2139416 17.4455456,17.4519584 12.7588436,15.0829235 C11.2995887,14.3511672 9.73626824,13.8486915 8.12393691,13.5931919 C8.09558926,13.6390678 8.06497248,13.6829705 8.03698658,13.7291752 C4.50942908,19.553139 4.83751953,26.9285936 8.86826794,32.4163329 C12.8990164,37.9040723 19.8386235,40.4233633 26.4511208,38.7994497 Z" id="Shape" fill="url(#linearGradient-4)" fill-rule="nonzero" mask="url(#mask-3)"></path>
                </g>
            </g>
        </g>
    </g>
</svg>
