<?xml version="1.0" encoding="UTF-8" standalone="no"?>
<svg width="221px" height="151px" viewBox="0 0 221 151" version="1.1" xmlns="http://www.w3.org/2000/svg" xmlns:xlink="http://www.w3.org/1999/xlink">
    <!-- Generator: Sketch 3.8.2 (29753) - http://www.bohemiancoding.com/sketch -->
    <title>Group 7</title>
    <desc>Created with Sketch.</desc>
    <defs>
        <rect id="path-1" x="14.9717514" y="0" width="190.889831" height="125.625" rx="6"></rect>
        <mask id="mask-2" maskContentUnits="userSpaceOnUse" maskUnits="objectBoundingBox" x="0" y="0" width="190.889831" height="125.625" fill="white">
            <use xlink:href="#path-1"></use>
        </mask>
        <rect id="path-3" x="0" y="0" width="187.146893" height="100.3125"></rect>
        <rect id="path-5" x="85.1518362" y="123.75" width="50.529661" height="16.875"></rect>
        <filter x="-50%" y="-50%" width="200%" height="200%" filterUnits="objectBoundingBox" id="filter-6">
            <feOffset dx="0" dy="9" in="SourceAlpha" result="shadowOffsetInner1"></feOffset>
            <feComposite in="shadowOffsetInner1" in2="SourceAlpha" operator="arithmetic" k2="-1" k3="1" result="shadowInnerInner1"></feComposite>
            <feColorMatrix values="0 0 0 0 0.733333333   0 0 0 0 0.764705882   0 0 0 0 0.784313725  0 0 0 1 0" type="matrix" in="shadowInnerInner1"></feColorMatrix>
        </filter>
        <mask id="mask-7" maskContentUnits="userSpaceOnUse" maskUnits="objectBoundingBox" x="0" y="0" width="50.529661" height="16.875" fill="white">
            <use xlink:href="#path-5"></use>
        </mask>
        <rect id="path-8" x="73.9230226" y="137.8125" width="72.9872881" height="12.1875" rx="6.09375"></rect>
        <mask id="mask-9" maskContentUnits="userSpaceOnUse" maskUnits="objectBoundingBox" x="0" y="0" width="72.9872881" height="12.1875" fill="white">
            <use xlink:href="#path-8"></use>
        </mask>
    </defs>
    <g id="Spotlight" stroke="none" stroke-width="1" fill="none" fill-rule="evenodd">
        <g id="Everything-awesome" transform="translate(-460.000000, -172.000000)">
            <g id="Group-7" transform="translate(460.000000, 172.000000)">
                <use id="Rectangle-157" stroke="#002B55" mask="url(#mask-2)" stroke-width="4" fill="#E9E9E6" xlink:href="#path-1"></use>
                <g id="Group-19" transform="translate(16.843220, 12.187500)">
                    <mask id="mask-4" fill="white">
                        <use xlink:href="#path-3"></use>
                    </mask>
                    <use id="Rectangle-53" fill="#FCFCFC" xlink:href="#path-3"></use>
                </g>
                <ellipse id="Oval-31" fill="#00B0FF" cx="138.488701" cy="34.6875" rx="3.74293785" ry="3.75"></ellipse>
                <ellipse id="Oval-31-Copy" fill="#6C64A6" cx="138.488701" cy="45" rx="3.74293785" ry="3.75"></ellipse>
                <ellipse id="Oval-31-Copy-2" fill="#48CC8C" cx="138.488701" cy="55.3125" rx="3.74293785" ry="3.75"></ellipse>
                <ellipse id="Oval-31-Copy-3" fill="#40C4FF" cx="138.488701" cy="65.625" rx="3.74293785" ry="3.75"></ellipse>
                <ellipse id="Oval-31-Copy-4" fill="#6C64A6" cx="138.488701" cy="75.9375" rx="3.74293785" ry="3.75"></ellipse>
                <path d="M16.8432203,12.1875 L204.065327,12.1875" id="Path-1399" stroke="#002B55" stroke-width="2"></path>
                <path d="M16.8432203,113.4375 L204.065327,113.4375" id="Path-1399-Copy" stroke="#002B55" stroke-width="2"></path>
                <g id="Rectangle-158">
                    <use fill="#E9E9E6" fill-rule="evenodd" xlink:href="#path-5"></use>
                    <use fill="black" fill-opacity="1" filter="url(#filter-6)" xlink:href="#path-5"></use>
                    <use stroke="#002B55" mask="url(#mask-7)" stroke-width="4" xlink:href="#path-5"></use>
                </g>
                <use id="Rectangle-158-Copy" stroke="#002B55" mask="url(#mask-9)" stroke-width="4" fill="#E9E9E6" xlink:href="#path-8"></use>
                <path d="M0,149.0625 L220.146612,149.0625" id="Path-1401" stroke="#002B55" stroke-width="2"></path>
                <path d="M35,31.9983625 C35,31.4469821 35.4540901,31 35.9964823,31 L45.2323313,31 C45.7826732,31 46.2288136,31.4549469 46.2288136,31.9983625 L46.2288136,41.2516375 C46.2288136,41.8030179 45.7747234,42.25 45.2323313,42.25 L35.9964823,42.25 C35.4461403,42.25 35,41.7950531 35,41.2516375 L35,31.9983625 Z M43.5905279,33.5625 C43.5019858,33.5625 43.4212574,33.5885414 43.3483404,33.640625 L39.7858404,37.234375 C39.7233401,37.2968753 39.64782,37.328125 39.5592779,37.328125 C39.4707358,37.328125 39.3952157,37.2968753 39.3327154,37.234375 L38.0358404,35.9375 C37.9733401,35.864583 37.8952159,35.828125 37.8014654,35.828125 C37.7077149,35.828125 37.634799,35.864583 37.5827154,35.9375 L36.7702154,36.734375 C36.7181318,36.7968753 36.6920904,36.8723954 36.6920904,36.9609375 C36.6920904,37.0494796 36.7181318,37.1249997 36.7702154,37.1875 L38.8170904,39.25 C38.8743823,39.307292 38.9564128,39.3580727 39.0631841,39.4023438 C39.1699555,39.4466148 39.2702149,39.46875 39.3639654,39.46875 L39.7389654,39.46875 C39.9160496,39.46875 40.0983395,39.3958341 40.2858404,39.25 L44.6139654,34.890625 C44.666049,34.8385414 44.6920904,34.7682296 44.6920904,34.6796875 C44.6920904,34.5911454 44.666049,34.510417 44.6139654,34.4375 L43.8014654,33.640625 C43.7493818,33.5885414 43.67907,33.5625 43.5905279,33.5625 Z" id="Combined-Shape" fill="#4AC6C6"></path>
                <path d="M35,63.9983625 C35,63.4469821 35.4540901,63 35.9964823,63 L45.2323313,63 C45.7826732,63 46.2288136,63.4549469 46.2288136,63.9983625 L46.2288136,73.2516375 C46.2288136,73.8030179 45.7747234,74.25 45.2323313,74.25 L35.9964823,74.25 C35.4461403,74.25 35,73.7950531 35,73.2516375 L35,63.9983625 Z M43.5905279,65.5625 C43.5019858,65.5625 43.4212574,65.5885414 43.3483404,65.640625 L39.7858404,69.234375 C39.7233401,69.2968753 39.64782,69.328125 39.5592779,69.328125 C39.4707358,69.328125 39.3952157,69.2968753 39.3327154,69.234375 L38.0358404,67.9375 C37.9733401,67.864583 37.8952159,67.828125 37.8014654,67.828125 C37.7077149,67.828125 37.634799,67.864583 37.5827154,67.9375 L36.7702154,68.734375 C36.7181318,68.7968753 36.6920904,68.8723954 36.6920904,68.9609375 C36.6920904,69.0494796 36.7181318,69.1249997 36.7702154,69.1875 L38.8170904,71.25 C38.8743823,71.307292 38.9564128,71.3580727 39.0631841,71.4023438 C39.1699555,71.4466148 39.2702149,71.46875 39.3639654,71.46875 L39.7389654,71.46875 C39.9160496,71.46875 40.0983395,71.3958341 40.2858404,71.25 L44.6139654,66.890625 C44.666049,66.8385414 44.6920904,66.7682296 44.6920904,66.6796875 C44.6920904,66.5911454 44.666049,66.510417 44.6139654,66.4375 L43.8014654,65.640625 C43.7493818,65.5885414 43.67907,65.5625 43.5905279,65.5625 Z" id="Combined-Shape-Copy-2" fill="#4AC6C6"></path>
                <path d="M35,47.9983625 C35,47.4469821 35.4540901,47 35.9964823,47 L45.2323313,47 C45.7826732,47 46.2288136,47.4549469 46.2288136,47.9983625 L46.2288136,57.2516375 C46.2288136,57.8030179 45.7747234,58.25 45.2323313,58.25 L35.9964823,58.25 C35.4461403,58.25 35,57.7950531 35,57.2516375 L35,47.9983625 Z M43.5905279,49.5625 C43.5019858,49.5625 43.4212574,49.5885414 43.3483404,49.640625 L39.7858404,53.234375 C39.7233401,53.2968753 39.64782,53.328125 39.5592779,53.328125 C39.4707358,53.328125 39.3952157,53.2968753 39.3327154,53.234375 L38.0358404,51.9375 C37.9733401,51.864583 37.8952159,51.828125 37.8014654,51.828125 C37.7077149,51.828125 37.634799,51.864583 37.5827154,51.9375 L36.7702154,52.734375 C36.7181318,52.7968753 36.6920904,52.8723954 36.6920904,52.9609375 C36.6920904,53.0494796 36.7181318,53.1249997 36.7702154,53.1875 L38.8170904,55.25 C38.8743823,55.307292 38.9564128,55.3580727 39.0631841,55.4023438 C39.1699555,55.4466148 39.2702149,55.46875 39.3639654,55.46875 L39.7389654,55.46875 C39.9160496,55.46875 40.0983395,55.3958341 40.2858404,55.25 L44.6139654,50.890625 C44.666049,50.8385414 44.6920904,50.7682296 44.6920904,50.6796875 C44.6920904,50.5911454 44.666049,50.510417 44.6139654,50.4375 L43.8014654,49.640625 C43.7493818,49.5885414 43.67907,49.5625 43.5905279,49.5625 Z" id="Combined-Shape-Copy" fill="#FFBD17"></path>
                <rect id="Rectangle-57" fill="#CAD4DD" x="53.3368644" y="31.875" width="63.6299435" height="3.24152542"></rect>
                <rect id="Rectangle-57-Copy-12" fill="#CAD4DD" x="53.3368644" y="47.8125" width="63.6299435" height="3.24152542"></rect>
                <rect id="Rectangle-57-Copy-14" fill="#CAD4DD" x="53.3368644" y="63.75" width="63.6299435" height="3.24152542"></rect>
                <polygon id="Path-1446" fill="#333333" opacity="0.6" points="49.5939266 31.875 49.5939266 41.4869316 50.529661 41.4869316 50.529661 31.875"></polygon>
                <polygon id="Path-1446-Copy-2" fill="#333333" opacity="0.6" points="49.5939266 47.8125 49.5939266 57.4244316 50.529661 57.4244316 50.529661 47.8125"></polygon>
                <polygon id="Path-1446-Copy-3" fill="#333333" opacity="0.6" points="49.5939266 63.75 49.5939266 73.3619316 50.529661 73.3619316 50.529661 63.75"></polygon>
                <rect id="Rectangle-57-Copy" fill="#CAD4DD" x="53.3368644" y="38.4375" width="55.2427938" height="3.24152542"></rect>
                <rect id="Rectangle-57-Copy-16" fill="#CAD4DD" x="145.038842" y="32.8125" width="38.365113" height="3.24152542"></rect>
                <rect id="Rectangle-57-Copy-17" fill="#CAD4DD" x="145.038842" y="43.125" width="38.365113" height="3.24152542"></rect>
                <rect id="Rectangle-57-Copy-18" fill="#CAD4DD" x="145.038842" y="53.4375" width="38.365113" height="3.24152542"></rect>
                <rect id="Rectangle-57-Copy-19" fill="#CAD4DD" x="145.038842" y="63.75" width="38.365113" height="3.24152542"></rect>
                <rect id="Rectangle-57-Copy-20" fill="#CAD4DD" x="145.038842" y="74.0625" width="38.365113" height="3.24152542"></rect>
                <rect id="Rectangle-57-Copy-13" fill="#CAD4DD" x="53.3368644" y="54.375" width="55.2427938" height="3.24152542"></rect>
                <rect id="Rectangle-57-Copy-15" fill="#CAD4DD" x="53.3368644" y="70.3125" width="55.2427938" height="3.24152542"></rect>
            </g>
        </g>
    </g>
</svg>