<?xml version="1.0" encoding="UTF-8"?>
<svg width="24px" height="24px" viewBox="0 0 24 24" version="1.1" xmlns="http://www.w3.org/2000/svg" xmlns:xlink="http://www.w3.org/1999/xlink">
    <!-- Generator: Sketch 43.2 (39069) - http://www.bohemiancoding.com/sketch -->
    <title>icon/20px/create-branch</title>
    <desc>Created with Sketch.</desc>
    <defs></defs>
    <g id="Symbols" stroke="none" stroke-width="1" fill="none" fill-rule="evenodd">
        <g id="icon/20px/create-branch" fill="#505F79">
            <g id="icon-/-20px-/-create-branch">
                <path d="M9,18 C9,17.449 8.551,17 8,17 C7.449,17 7,17.449 7,18 C7,18.551 7.449,19 8,19 C8.551,19 9,18.551 9,18 M7,6 C7,6.551 7.449,7 8,7 C8.551,7 9,6.551 9,6 C9,5.449 8.551,5 8,5 C7.449,5 7,5.449 7,6 M17,15 C17,17.206 15.206,19 13,19 L10.815,19 C10.401,20.162 9.302,21 8,21 C6.346,21 5,19.654 5,18 C5,16.698 5.838,15.599 7,15.184 L7,8.815 C5.838,8.401 5,7.302 5,6 C5,4.346 6.346,3 8,3 C9.654,3 11,4.346 11,6 C11,7.302 10.162,8.401 9,8.816 L9,15.184 C9.847,15.486 10.514,16.153 10.815,17 L13,17 C14.103,17 15,16.103 15,15 C15,14.448 15.448,14 16,14 C16.552,14 17,14.448 17,15 M19,10 C19,10.552 18.552,11 18,11 L17,11 L17,12 C17,12.552 16.552,13 16,13 C15.448,13 15,12.552 15,12 L15,11 L14,11 C13.448,11 13,10.552 13,10 C13,9.448 13.448,9 14,9 L15,9 L15,8 C15,7.448 15.448,7 16,7 C16.552,7 17,7.448 17,8 L17,9 L18,9 C18.552,9 19,9.448 19,10" id="Page-1"></path>
            </g>
        </g>
    </g>
</svg>
