<?xml version="1.0" encoding="UTF-8"?>
<svg width="24px" height="24px" viewBox="0 0 24 24" version="1.1" xmlns="http://www.w3.org/2000/svg" xmlns:xlink="http://www.w3.org/1999/xlink">
    <!-- Generator: Sketch 43.2 (39069) - http://www.bohemiancoding.com/sketch -->
    <title>icon/20px/create-pull-requests</title>
    <desc>Created with Sketch.</desc>
    <defs>
        <polygon id="path-1" points="12 0 24 0 24 24 12 24 0 24 0 0 12 0"></polygon>
    </defs>
    <g id="Symbols" stroke="none" stroke-width="1" fill="none" fill-rule="evenodd">
        <g id="icon/20px/create-pull-requests">
            <g id="icon-/-20px-/-create-pull-requests">
                <mask id="mask-2" fill="white">
                    <use xlink:href="#path-1"></use>
                </mask>
                <g id="Clip-2"></g>
                <path d="M13.92,11.8 C13.72,12 13.52,12.1 13.32,12.1 C13.12,12.1 13.02,12.1 12.82,11.9 L10.52,9.6 C10.22,9.3 10.22,8.8 10.52,8.4 L12.82,6.1 C13.12,5.8 13.62,5.8 13.92,6.1 C14.22,6.4 14.22,6.9 13.92,7.2 L13.12,8 L15.02,8 C16.674,8 18.02,9.346 18.02,11 L18.02,13 C18.02,13.552 17.572,14 17.02,14 C16.468,14 16.02,13.552 16.02,13 L16.02,11 C16.02,10.449 15.571,10 15.02,10 L13.22,10 L13.92,10.7 C14.22,11 14.22,11.5 13.92,11.8 M20,18 C20,18.552 19.552,19 19,19 L18,19 L18,20 C18,20.552 17.552,21 17,21 C16.448,21 16,20.552 16,20 L16,19 L15,19 C14.448,19 14,18.552 14,18 C14,17.448 14.448,17 15,17 L16,17 L16,16 C16,15.448 16.448,15 17,15 C17.552,15 18,15.448 18,16 L18,17 L19,17 C19.552,17 20,17.448 20,18 M7,7 C6.449,7 6,6.551 6,6 C6,5.449 6.449,5 7,5 C7.551,5 8,5.449 8,6 C8,6.551 7.551,7 7,7 M7,3 C5.346,3 4,4.346 4,6 C4,7.302 4.838,8.402 6,8.816 L6,20 C6,20.552 6.448,21 7,21 C7.552,21 8,20.552 8,20 L8,8.816 C9.162,8.402 10,7.302 10,6 C10,4.346 8.654,3 7,3" id="Fill-1" fill="#505F79" mask="url(#mask-2)"></path>
            </g>
        </g>
    </g>
</svg>
