<?xml version="1.0" encoding="UTF-8"?>
<svg width="24px" height="24px" viewBox="0 0 24 24" version="1.1" xmlns="http://www.w3.org/2000/svg" xmlns:xlink="http://www.w3.org/1999/xlink">
    <!-- Generator: Sketch 43.2 (39069) - http://www.bohemiancoding.com/sketch -->
    <title>icon/20px/import</title>
    <desc>Created with Sketch.</desc>
    <defs></defs>
    <g id="Symbols" stroke="none" stroke-width="1" fill="none" fill-rule="evenodd">
        <g id="icon/20px/import">
            <g id="icon-/-20px-/-import" transform="translate(12.000000, 12.000000) rotate(270.000000) translate(-12.000000, -12.000000) translate(0.000000, -0.000000)">
                <rect id="Rectangle-4" x="0" y="-1.77635684e-15" width="24" height="24"></rect>
                <path d="M17.5094706,13 L16.3036972,14.2171429 C15.8987676,14.6236082 15.8987676,15.2860735 16.3036972,15.6935837 C16.7075911,16.1021388 17.3631421,16.1021388 17.7680717,15.6935837 L20.6978563,12.7386122 C21.1007146,12.3300571 21.1007146,11.6696816 20.6978563,11.2611265 L17.7680717,8.3051102 C17.5650891,8.1013551 17.2999689,8 17.0348488,8 C16.7707643,8 16.5046085,8.1013551 16.3036972,8.3051102 C15.8987676,8.71366531 15.8987676,9.37508571 16.3036972,9.78259592 L17.5097294,11 L7.9764158,11 C7.43743428,11 7,11.4487756 7,12.0004998 C7,12.5522239 7.43743428,13 7.9764158,13 L17.5094706,13 Z" id="Combined-Shape" fill="#505F79" transform="translate(14.000000, 12.000000) rotate(180.000000) translate(-14.000000, -12.000000) "></path>
                <path d="M8.49703014,3 L4.99406028,3 C3.89451376,3 3,3.8932319 3,4.99508929 L3,19.0049107 C3,20.1073772 3.8927712,21 4.99406028,21 L8.49703014,21 L12,21 L12,19 L5,19 L5,5 L12,5 L12,3 L8.49703014,3 Z" id="Combined-Shape" fill="#505F79" fill-rule="nonzero"></path>
            </g>
        </g>
    </g>
</svg>
