<?xml version="1.0" encoding="UTF-8"?>
<svg width="24px" height="24px" viewBox="0 0 24 24" version="1.1" xmlns="http://www.w3.org/2000/svg" xmlns:xlink="http://www.w3.org/1999/xlink">
    <!-- Generator: Sketch 46.2 (44496) - http://www.bohemiancoding.com/sketch -->
    <title>icon/20px/create fork</title>
    <desc>Created with Sketch.</desc>
    <defs></defs>
    <g id="Symbols" stroke="none" stroke-width="1" fill="none" fill-rule="evenodd">
        <g id="icon/20px/create-fork" fill="#505F79">
            <g id="icon-/-20px-/-fork">
                <path d="M3,12 C3,11.4477153 3.45303631,11 3.99703014,11 L11,11 L11,13 L3.99703014,13 C3.4463856,13 3,12.5561352 3,12 Z M11,11 L9,11 L9,9 C9,7.34390977 10.3601435,6 12.0149288,6 L13.0064585,6 C13.5587433,6 14.0064585,6.44771525 14.0064585,7 C14.0064585,7.55228475 13.5587433,8 13.0064585,8 L13.0064585,8 L12.0149288,8 C11.4642294,8 11,8.4489634 11,9 L11,11 Z M9,13 L11,13 L11,15 C11,15.5510366 11.4494489,16 12.0001482,16 L19.3950093,16 L19.3950093,18 L12.0001482,18 C10.3453629,18 9,16.6560902 9,15 L9,13 Z M21,7 C21,7.552 20.552,8 20,8 L19,8 L19,9 C19,9.552 18.552,10 18,10 C17.448,10 17,9.552 17,9 L17,8 L16,8 C15.448,8 15,7.552 15,7 C15,6.448 15.448,6 16,6 L17,6 L17,5 C17,4.448 17.448,4 18,4 C18.552,4 19,4.448 19,5 L19,6 L20,6 C20.552,6 21,6.448 21,7" id="Combined-Shape"></path>
            </g>
            <path d="M17.2928932,18.2928932 C16.9023689,18.6834175 16.9023689,19.3165825 17.2928932,19.7071068 C17.6834175,20.0976311 18.3165825,20.0976311 18.7071068,19.7071068 L20.7029531,17.7112604 C21.0957714,17.3184421 21.103674,16.6894604 20.7029531,16.2887396 L18.7071068,14.2928932 C18.3165825,13.9023689 17.6834175,13.9023689 17.2928932,14.2928932 C16.9023689,14.6834175 16.9023689,15.3165825 17.2928932,15.7071068 L18.5857864,17 L17.2928932,18.2928932 Z" id="Path-3-Copy"></path>
        </g>
    </g>
</svg>
