<?xml version="1.0" encoding="UTF-8"?>
<svg width="24px" height="24px" viewBox="0 0 24 24" version="1.1" xmlns="http://www.w3.org/2000/svg" xmlns:xlink="http://www.w3.org/1999/xlink">
    <!-- Generator: Sketch 46.2 (44496) - http://www.bohemiancoding.com/sketch -->
    <title>icon/20px/forks</title>
    <desc>Created with Sketch.</desc>
    <defs></defs>
    <g id="Symbols" stroke="none" stroke-width="1" fill="none" fill-rule="evenodd">
        <g id="icon/20px/forks" fill="#505F79">
            <g id="icon-/-20px-/-fork">
                <path d="M17.5857864,16 L12.0001482,16 C11.4494489,16 11,15.5510366 11,15 L11,13 L9,13 L9,15 C9,16.6560902 10.3453629,18 12.0001482,18 L17.5857864,18 L17.2928932,18.2928932 C16.9023689,18.6834175 16.9023689,19.3165825 17.2928932,19.7071068 C17.6834175,20.0976311 18.3165825,20.0976311 18.7071068,19.7071068 L20.7029531,17.7112604 C21.0957714,17.3184421 21.103674,16.6894604 20.7029531,16.2887396 L18.7071068,14.2928932 C18.3165825,13.9023689 17.6834175,13.9023689 17.2928932,14.2928932 C16.9023689,14.6834175 16.9023689,15.3165825 17.2928932,15.7071068 L17.5857864,16 Z M17.5857864,6 L12.0001482,6 C10.3453629,6 9,7.34390977 9,9 L9,11 L11,11 L11,9 C11,8.4489634 11.4494489,8 12.0001482,8 L17.5857864,8 L17.2928932,8.29289322 C16.9023689,8.68341751 16.9023689,9.31658249 17.2928932,9.70710678 C17.6834175,10.0976311 18.3165825,10.0976311 18.7071068,9.70710678 L20.7029531,7.71126044 C21.0957714,7.31844215 21.103674,6.68946043 20.7029531,6.28873956 L18.7071068,4.29289322 C18.3165825,3.90236893 17.6834175,3.90236893 17.2928932,4.29289322 C16.9023689,4.68341751 16.9023689,5.31658249 17.2928932,5.70710678 L17.5857864,6 Z M3,12 C3,11.4477153 3.45303631,11 3.99703014,11 L11,11 L11,13 L3.99703014,13 C3.4463856,13 3,12.5561352 3,12 Z" id="Combined-Shape"></path>
            </g>
        </g>
    </g>
</svg>
