<?xml version="1.0" encoding="UTF-8"?>
<svg width="24px" height="24px" viewBox="0 0 24 24" version="1.1" xmlns="http://www.w3.org/2000/svg" xmlns:xlink="http://www.w3.org/1999/xlink">
    <!-- Generator: Sketch 43.2 (39069) - http://www.bohemiancoding.com/sketch -->
    <title>icon/20px/source</title>
    <desc>Created with Sketch.</desc>
    <defs></defs>
    <g id="Symbols" stroke="none" stroke-width="1" fill="none" fill-rule="evenodd">
        <g id="icon/20px/source" fill-rule="nonzero" fill="#505F79">
            <g id="icon-/-20px-/-source">
                <path d="M21.7784747,15.2049889 C22.1722974,15.598337 22.8108102,15.598337 23.204633,15.2049889 C23.5984557,14.8116408 23.5984557,14.1738975 23.204633,13.7805494 L18.2130791,8.79501108 C17.8192564,8.40166297 17.1807436,8.40166297 16.7869209,8.79501108 L11.795367,13.7805494 C11.4015443,14.1738975 11.4015443,14.8116408 11.795367,15.2049889 C12.1891898,15.598337 12.8277026,15.598337 13.2215253,15.2049889 L17.5,10.9316704 L21.7784747,15.2049889 Z" id="Path-3" transform="translate(17.500000, 12.000000) rotate(90.000000) translate(-17.500000, -12.000000) "></path>
                <path d="M10.7784747,15.2049889 C11.1722974,15.598337 11.8108102,15.598337 12.204633,15.2049889 C12.5984557,14.8116408 12.5984557,14.1738975 12.204633,13.7805494 L7.21307912,8.79501108 C6.8192564,8.40166297 6.1807436,8.40166297 5.78692088,8.79501108 L0.795367042,13.7805494 C0.401544319,14.1738975 0.401544319,14.8116408 0.795367042,15.2049889 C1.18918977,15.598337 1.82770256,15.598337 2.22152528,15.2049889 L6.5,10.9316704 L10.7784747,15.2049889 Z" id="Path-3-Copy" transform="translate(6.500000, 12.000000) rotate(270.000000) translate(-6.500000, -12.000000) "></path>
            </g>
        </g>
    </g>
</svg>
