<svg xmlns="http://www.w3.org/2000/svg" viewBox="0 0 450.31 152.02"><defs><style>.a{fill:#cad4de;}.b{fill:#f6c342;}.c{fill:#4ac6c6;}.d{fill:#fff;stroke:#fff;stroke-width:5px;}.e{fill:#14892c;}.f{fill:#dd9f14;}.g{fill:#ffbd17;}.h{fill:#1f5081;}.i{fill:#3179c2;}.j{fill:#5eafff;}.k{fill:#dca378;}.l{fill:#b6927a;}.m{fill:#1f9696;}.n{fill:#ff4e4a;}.o{fill:#d24e55;}.p{fill:#cc8352;}.q{fill:#3572b0;}.r{fill:#aa795b;}.s{fill:#316ba7;}.t{isolation:isolate;}.u{fill:#707070;}</style></defs><title>pr-intro-state-illustration-minified</title><path class="a" d="M171,19h85v7H171V19Z" transform="translate(-0.19 -2.5)"/><path class="a" d="M171,42h67v7H171V42Z" transform="translate(-0.19 -2.5)"/><path class="a" d="M203,113h77v7H203v-7Z" transform="translate(-0.19 -2.5)"/><path class="a" d="M171,137h94v7H171v-7Z" transform="translate(-0.19 -2.5)"/><path class="b" d="M171,89h63v7H171V89Z" transform="translate(-0.19 -2.5)"/><path class="b" d="M243,89h52v7H243V89Z" transform="translate(-0.19 -2.5)"/><path class="c" d="M203,66h84v7H203V66Z" transform="translate(-0.19 -2.5)"/><path class="c" d="M386.41,8.27a61.38,61.38,0,0,0-59.54,46.45L312,69.59l14.89,14.87A61.37,61.37,0,1,0,386.41,8.27" transform="translate(-0.19 -2.5)"/><path class="d" d="M438.83,6.19a14.74,14.74,0,0,1,8,8,14.88,14.88,0,0,1,0,11.66,14.74,14.74,0,0,1-8,8,14.88,14.88,0,0,1-11.66,0,14.74,14.74,0,0,1-8-8,14.88,14.88,0,0,1,0-11.66,14.74,14.74,0,0,1,8-8A14.88,14.88,0,0,1,438.83,6.19Z" transform="translate(-0.19 -2.5)"/><path class="e" d="M438.83,6.19a14.74,14.74,0,0,1,8,8,14.88,14.88,0,0,1,0,11.66,14.74,14.74,0,0,1-8,8,14.88,14.88,0,0,1-11.66,0,14.74,14.74,0,0,1-8-8,14.88,14.88,0,0,1,0-11.66,14.74,14.74,0,0,1,8-8A14.88,14.88,0,0,1,438.83,6.19Zm1.42,6.43a1,1,0,0,0-.61.2l-8.91,9a0.8,0.8,0,0,1-1.13,0l-3.24-3.24a0.74,0.74,0,0,0-.59-0.27,0.63,0.63,0,0,0-.55.27l-2,2a0.92,0.92,0,0,0,0,1.13l5.12,5.16a1.88,1.88,0,0,0,.62.38,2,2,0,0,0,.75.17h0.94a2.25,2.25,0,0,0,1.37-.55l10.82-10.9a0.71,0.71,0,0,0,.2-0.53,1,1,0,0,0-.2-0.61l-2-2A0.71,0.71,0,0,0,440.25,12.62Z" transform="translate(-0.19 -2.5)"/><path class="b" d="M135,93.2L121.39,79.6a61.32,61.32,0,1,0,0,27.18L135,93.2" transform="translate(-0.19 -2.5)"/><path class="f" d="M71.3,69.27C68.28,66.48,62.78,64,55,64,42.7,64,34.54,76.25,34.54,88.14v5.19a12.89,12.89,0,0,1-3.08,8.36l-1.87,2.19h4.95l-6.27,6.89h5.48c16,0,17-20,24.52-24v13.49H78c7.15,0,11.14-5.38,11.14-15.49,0-12.73-10.6-15.18-17.83-15.46" transform="translate(-0.19 -2.5)"/><path class="f" d="M33.74,111.63H28.27a0.86,0.86,0,0,1-.64-1.44l5-5.45h-3a0.86,0.86,0,0,1-.66-1.42l1.87-2.19a12,12,0,0,0,2.87-7.8V88.14a28,28,0,0,1,5.81-17.06A19.67,19.67,0,0,1,55,63.14c6.77,0,12.8,1.92,16.6,5.28C83.49,69,90,74.76,90,84.73c0,14.23-7.52,16.35-12,16.35H58.26a0.86,0.86,0,0,1-.86-0.86V88.4c-1.92,1.72-3.47,4.74-5.1,7.9-3.52,6.83-7.89,15.33-18.55,15.33m-3.53-1.72h3.53c9.61,0,13.54-7.65,17-14.4,2.09-4.07,4.07-7.92,7.09-9.53a0.86,0.86,0,0,1,1.27.76V99.37H78c4.69,0,10.27-2.54,10.27-14.63,0-11.52-9.25-14.3-17-14.6a0.86,0.86,0,0,1-.55-0.23c-1.65-1.51-6.46-5-15.67-5a18,18,0,0,0-14.21,7.28,26.26,26.26,0,0,0-5.44,16v5.19a13.76,13.76,0,0,1-3.28,8.92l-0.66.78h3.08a0.86,0.86,0,0,1,.64,1.44l-5,5.45" transform="translate(-0.19 -2.5)"/><path class="f" d="M71.3,69.27C68.28,66.48,62.78,64,55,64,42.7,64,34.54,76.25,34.54,88.14v5.19a12.89,12.89,0,0,1-3.08,8.36l-1.87,2.19h4.95l-6.27,6.89h5.48c16,0,17-20,24.52-24v13.49H78c7.15,0,11.14-5.38,11.14-15.49,0-12.73-10.6-15.18-17.83-15.46" transform="translate(-0.19 -2.5)"/><path class="f" d="M33.74,111.63H28.27a0.86,0.86,0,0,1-.64-1.44l5-5.45h-3a0.86,0.86,0,0,1-.66-1.42l1.87-2.19a12,12,0,0,0,2.87-7.8V88.14a28,28,0,0,1,5.81-17.06A19.67,19.67,0,0,1,55,63.14c6.77,0,12.8,1.92,16.6,5.28C83.49,69,90,74.76,90,84.73c0,14.23-7.52,16.35-12,16.35H58.26a0.86,0.86,0,0,1-.86-0.86V88.4c-1.92,1.72-3.47,4.74-5.1,7.9-3.52,6.83-7.89,15.33-18.55,15.33m-3.53-1.72h3.53c9.61,0,13.54-7.65,17-14.4,2.09-4.07,4.07-7.92,7.09-9.53a0.86,0.86,0,0,1,1.27.76V99.37H78c4.69,0,10.27-2.54,10.27-14.63,0-11.52-9.25-14.3-17-14.6a0.86,0.86,0,0,1-.55-0.23c-1.65-1.51-6.46-5-15.67-5a18,18,0,0,0-14.21,7.28,26.26,26.26,0,0,0-5.44,16v5.19a13.76,13.76,0,0,1-3.28,8.92l-0.66.78h3.08a0.86,0.86,0,0,1,.64,1.44l-5,5.45" transform="translate(-0.19 -2.5)"/><path class="f" d="M55,64.87a18,18,0,0,0-14.21,7.28,25.88,25.88,0,0,0-5,11c2.8-8.63,9.77-15.73,19.17-15.73,7.73,0,13.23,2.48,16.26,5.27C77.17,72.94,85.23,74.6,88.08,82c-1.37-9.23-9.71-11.58-16.81-11.85a0.86,0.86,0,0,1-.55-0.23c-1.65-1.51-6.46-5-15.67-5" transform="translate(-0.19 -2.5)"/><path class="f" d="M33.74,111.63H28.27a0.86,0.86,0,0,1-.64-1.44l5-5.45h-3a0.86,0.86,0,0,1-.66-1.42l1.87-2.19a12,12,0,0,0,2.87-7.8V88.14a28,28,0,0,1,5.81-17.06A19.67,19.67,0,0,1,55,63.14c6.77,0,12.8,1.92,16.6,5.28C83.49,69,90,74.76,90,84.73c0,14.23-7.52,16.35-12,16.35H58.26a0.86,0.86,0,0,1-.86-0.86V88.4c-1.92,1.72-3.47,4.74-5.1,7.9-3.52,6.83-7.89,15.33-18.55,15.33m-3.53-1.72h3.53c9.61,0,13.54-7.65,17-14.4,2.09-4.07,4.07-7.92,7.09-9.53a0.86,0.86,0,0,1,1.27.76V99.37H78c4.69,0,10.27-2.54,10.27-14.63,0-11.52-9.25-14.3-17-14.6a0.86,0.86,0,0,1-.55-0.23c-1.65-1.51-6.46-5-15.67-5a18,18,0,0,0-14.21,7.28,26.26,26.26,0,0,0-5.44,16v5.19a13.76,13.76,0,0,1-3.28,8.92l-0.66.78h3.08a0.86,0.86,0,0,1,.64,1.44l-5,5.45" transform="translate(-0.19 -2.5)"/><path class="f" d="M77.49,81.29h-0.4A6.71,6.71,0,0,0,72,83.76C70.39,85.66,66.45,86,61.09,86c-8.74,0-9.49,17.64-20.25,23.13A21.57,21.57,0,0,0,84,108.41V87.75a6.46,6.46,0,0,0-6.47-6.46" transform="translate(-0.19 -2.5)"/><path class="f" d="M62.39,130.78H62A22.63,22.63,0,0,1,40,109.2a0.86,0.86,0,0,1,.47-0.81c5-2.55,7.83-8,10.32-12.88,2.74-5.32,5.32-10.35,10.33-10.35,4.46,0,8.8-.24,10.29-2a7.61,7.61,0,0,1,5.72-2.77h0.4a7.33,7.33,0,0,1,7.34,7.32v20.66a22.41,22.41,0,0,1-22.44,22.38M41.73,109.66A20.89,20.89,0,0,0,62,129.06h0.36A20.68,20.68,0,0,0,83.1,108.41V87.75a5.61,5.61,0,0,0-5.61-5.59h-0.4a5.81,5.81,0,0,0-4.4,2.16c-1.84,2.14-5.8,2.57-11.6,2.57-4,0-6.19,4.36-8.79,9.41s-5.39,10.47-10.56,13.36" transform="translate(-0.19 -2.5)"/><path class="f" d="M84,94.2a5.16,5.16,0,1,1,0,10.33V94.2" transform="translate(-0.19 -2.5)"/><path class="f" d="M84,105.39a0.86,0.86,0,0,1-.86-0.86V94.2A0.86,0.86,0,0,1,84,93.34a6,6,0,1,1,0,12.05h0Zm0.86-10.24v8.43a4.3,4.3,0,0,0,0-8.43h0Z" transform="translate(-0.19 -2.5)"/><path class="f" d="M55,98.08a2.16,2.16,0,1,1-2.16-2.15A2.15,2.15,0,0,1,55,98.08" transform="translate(-0.19 -2.5)"/><path class="f" d="M74,98.08a2.16,2.16,0,1,1-2.16-2.15A2.15,2.15,0,0,1,74,98.08" transform="translate(-0.19 -2.5)"/><path class="f" d="M56.31,94.2a0.86,0.86,0,0,1-.85-0.72c-0.1-.57-0.53-0.91-1.64-1.29a0.86,0.86,0,1,1,.56-1.63c0.81,0.27,2.48.84,2.79,2.63a0.86,0.86,0,0,1-.7,1H56.31" transform="translate(-0.19 -2.5)"/><path class="f" d="M68.46,94.2H68.32a0.86,0.86,0,0,1-.71-1,4.41,4.41,0,0,1,8.54,0,0.86,0.86,0,0,1-1.7.29,2.55,2.55,0,0,0-2.54-1.87,2.58,2.58,0,0,0-2.6,1.86,0.86,0.86,0,0,1-.85.72" transform="translate(-0.19 -2.5)"/><path class="f" d="M62.38,109.7a4.31,4.31,0,0,1-4.32-4.3,0.86,0.86,0,0,1,1.73,0,2.59,2.59,0,0,0,5.18,0,0.86,0.86,0,0,1,1.73,0,4.31,4.31,0,0,1-4.32,4.3" transform="translate(-0.19 -2.5)"/><path class="f" d="M62.38,120.67a5.18,5.18,0,0,0,5.08-4.16,0.86,0.86,0,0,0-.85-1H58.16a0.86,0.86,0,0,0-.85,1,5.18,5.18,0,0,0,5.08,4.16" transform="translate(-0.19 -2.5)"/><path class="f" d="M77.49,82.15h-0.4a5.81,5.81,0,0,0-4.4,2.16c-1.84,2.14-5.8,2.57-11.6,2.57-2.41,0-4.19,1.63-5.8,4A3.11,3.11,0,0,1,57.13,93c1.69-2.22,3.63-3.68,6.22-3.68,5.74,0,10-.39,11.71-2.43a7.19,7.19,0,0,1,5.42-2.64h0.42a6.83,6.83,0,0,1,1.06.08,5.61,5.61,0,0,0-4.48-2.23" transform="translate(-0.19 -2.5)"/><path class="f" d="M77.49,81.29h-0.4A6.71,6.71,0,0,0,72,83.76C70.39,85.66,66.45,86,61.09,86c-2.85,0-4.84,1.87-6.62,4.58a7.58,7.58,0,0,1,.82.33c1.61-2.42,3.39-4,5.8-4,5.8,0,9.76-.43,11.6-2.57a5.81,5.81,0,0,1,4.4-2.16h0.4A5.61,5.61,0,0,1,82,84.39a7.07,7.07,0,0,1,1.22.31,6.47,6.47,0,0,0-5.7-3.4" transform="translate(-0.19 -2.5)"/><path class="f" d="M50.91,98.94c-2.23,4.15-4.92,8.33-9.18,10.71a21.15,21.15,0,0,0,.71,4.06c5-2.95,7.94-8.46,10.54-13.49H52.89a2.16,2.16,0,0,1-2-1.29m3.46-6.53c-0.64,1.1-1.26,2.3-1.91,3.55a2.16,2.16,0,0,1,2.24,1c0.53-1,1.06-1.88,1.61-2.72h0a0.86,0.86,0,0,1-.85-0.72,1.47,1.47,0,0,0-1.09-1.08" transform="translate(-0.19 -2.5)"/><path class="f" d="M53.57,92.07c-3.26,5.64-6.08,13.69-12.74,17.09a22,22,0,0,0,.84,5v0l0.77-.42a21.15,21.15,0,0,1-.71-4.06c4.26-2.38,7-6.57,9.18-10.71a2.15,2.15,0,0,1,1.55-3c0.64-1.25,1.27-2.46,1.91-3.55l-0.56-.21a0.86,0.86,0,0,1-.24-0.13" transform="translate(-0.19 -2.5)"/><path class="f" d="M52.89,95.92a2.15,2.15,0,1,0,0,4.3H53c0.59-1.14,1.16-2.25,1.73-3.31a2.16,2.16,0,0,0-1.82-1" transform="translate(-0.19 -2.5)"/><path class="f" d="M54.47,90.6c-0.3.47-.6,1-0.9,1.47a0.86,0.86,0,0,0,.24.13l0.56,0.21a1.47,1.47,0,0,1,1.09,1.08,0.86,0.86,0,0,0,.85.72h0c0.27-.4.54-0.79,0.81-1.15a3.11,3.11,0,0,0-1.84-2.12,7.58,7.58,0,0,0-.82-0.33" transform="translate(-0.19 -2.5)"/><path class="g" d="M71.3,65.27C68.28,62.48,62.78,60,55,60,42.7,60,34.54,72.25,34.54,84.14v5.19a12.89,12.89,0,0,1-3.08,8.36l-1.87,2.19h4.95l-6.27,6.89h5.48c16,0,17-20,24.52-24V96.23H78c7.15,0,11.14-5.38,11.14-15.49,0-12.73-10.6-15.18-17.83-15.46" transform="translate(-0.19 -2.5)"/><path class="h" d="M33.74,107.63H28.27a0.86,0.86,0,0,1-.64-1.44l5-5.45h-3a0.86,0.86,0,0,1-.66-1.42l1.87-2.19a12,12,0,0,0,2.87-7.8V84.14a28,28,0,0,1,5.81-17.06A19.67,19.67,0,0,1,55,59.14c6.77,0,12.8,1.92,16.6,5.28C83.49,65,90,70.76,90,80.73,90,95,82.48,97.09,78,97.09H58.26a0.86,0.86,0,0,1-.86-0.86V84.4c-1.92,1.72-3.47,4.74-5.1,7.9-3.52,6.83-7.89,15.33-18.55,15.33m-3.53-1.72h3.53c9.61,0,13.54-7.65,17-14.4,2.09-4.07,4.07-7.92,7.09-9.53a0.86,0.86,0,0,1,1.27.76V95.37H78c4.69,0,10.27-2.54,10.27-14.63,0-11.52-9.25-14.3-17-14.6a0.86,0.86,0,0,1-.55-0.23c-1.65-1.51-6.46-5-15.67-5a18,18,0,0,0-14.21,7.28,26.26,26.26,0,0,0-5.44,16v5.19a13.76,13.76,0,0,1-3.28,8.92L31.45,99h3.08a0.86,0.86,0,0,1,.64,1.44l-5,5.45" transform="translate(-0.19 -2.5)"/><path class="i" d="M71.3,65.27C68.28,62.48,62.78,60,55,60,42.7,60,34.54,72.25,34.54,84.14v5.19a12.89,12.89,0,0,1-3.08,8.36l-1.87,2.19h4.95l-6.27,6.89h5.48c16,0,17-20,24.52-24V96.23H78c7.15,0,11.14-5.38,11.14-15.49,0-12.73-10.6-15.18-17.83-15.46" transform="translate(-0.19 -2.5)"/><path class="h" d="M33.74,107.63H28.27a0.86,0.86,0,0,1-.64-1.44l5-5.45h-3a0.86,0.86,0,0,1-.66-1.42l1.87-2.19a12,12,0,0,0,2.87-7.8V84.14a28,28,0,0,1,5.81-17.06A19.67,19.67,0,0,1,55,59.14c6.77,0,12.8,1.92,16.6,5.28C83.49,65,90,70.76,90,80.73,90,95,82.48,97.09,78,97.09H58.26a0.86,0.86,0,0,1-.86-0.86V84.4c-1.92,1.72-3.47,4.74-5.1,7.9-3.52,6.83-7.89,15.33-18.55,15.33m-3.53-1.72h3.53c9.61,0,13.54-7.65,17-14.4,2.09-4.07,4.07-7.92,7.09-9.53a0.86,0.86,0,0,1,1.27.76V95.37H78c4.69,0,10.27-2.54,10.27-14.63,0-11.52-9.25-14.3-17-14.6a0.86,0.86,0,0,1-.55-0.23c-1.65-1.51-6.46-5-15.67-5a18,18,0,0,0-14.21,7.28,26.26,26.26,0,0,0-5.44,16v5.19a13.76,13.76,0,0,1-3.28,8.92L31.45,99h3.08a0.86,0.86,0,0,1,.64,1.44l-5,5.45" transform="translate(-0.19 -2.5)"/><path class="j" d="M55,60.87a18,18,0,0,0-14.21,7.28,25.88,25.88,0,0,0-5,11c2.8-8.63,9.77-15.73,19.17-15.73,7.73,0,13.23,2.48,16.26,5.27C77.17,68.94,85.23,70.6,88.08,78c-1.37-9.23-9.71-11.58-16.81-11.85a0.86,0.86,0,0,1-.55-0.23c-1.65-1.51-6.46-5-15.67-5" transform="translate(-0.19 -2.5)"/><path class="h" d="M33.74,107.63H28.27a0.86,0.86,0,0,1-.64-1.44l5-5.45h-3a0.86,0.86,0,0,1-.66-1.42l1.87-2.19a12,12,0,0,0,2.87-7.8V84.14a28,28,0,0,1,5.81-17.06A19.67,19.67,0,0,1,55,59.14c6.77,0,12.8,1.92,16.6,5.28C83.49,65,90,70.76,90,80.73,90,95,82.48,97.09,78,97.09H58.26a0.86,0.86,0,0,1-.86-0.86V84.4c-1.92,1.72-3.47,4.74-5.1,7.9-3.52,6.83-7.89,15.33-18.55,15.33m-3.53-1.72h3.53c9.61,0,13.54-7.65,17-14.4,2.09-4.07,4.07-7.92,7.09-9.53a0.86,0.86,0,0,1,1.27.76V95.37H78c4.69,0,10.27-2.54,10.27-14.63,0-11.52-9.25-14.3-17-14.6a0.86,0.86,0,0,1-.55-0.23c-1.65-1.51-6.46-5-15.67-5a18,18,0,0,0-14.21,7.28,26.26,26.26,0,0,0-5.44,16v5.19a13.76,13.76,0,0,1-3.28,8.92L31.45,99h3.08a0.86,0.86,0,0,1,.64,1.44l-5,5.45" transform="translate(-0.19 -2.5)"/><path class="k" d="M77.49,77.29h-0.4A6.71,6.71,0,0,0,72,79.76C70.39,81.66,66.45,82,61.09,82c-8.74,0-9.49,17.64-20.25,23.13A21.57,21.57,0,0,0,84,104.41V83.75a6.46,6.46,0,0,0-6.47-6.46" transform="translate(-0.19 -2.5)"/><path class="h" d="M62.39,126.78H62A22.63,22.63,0,0,1,40,105.2a0.86,0.86,0,0,1,.47-0.81c5-2.55,7.83-8,10.32-12.88,2.74-5.32,5.32-10.35,10.33-10.35,4.46,0,8.8-.24,10.29-2a7.61,7.61,0,0,1,5.72-2.77h0.4a7.33,7.33,0,0,1,7.34,7.32v20.66a22.41,22.41,0,0,1-22.44,22.38M41.73,105.66A20.89,20.89,0,0,0,62,125.06h0.36A20.68,20.68,0,0,0,83.1,104.41V83.75a5.61,5.61,0,0,0-5.61-5.59h-0.4a5.81,5.81,0,0,0-4.4,2.16c-1.84,2.14-5.8,2.57-11.6,2.57-4,0-6.19,4.36-8.79,9.41s-5.39,10.47-10.56,13.36" transform="translate(-0.19 -2.5)"/><path class="k" d="M84,90.2a5.16,5.16,0,1,1,0,10.33V90.2" transform="translate(-0.19 -2.5)"/><path class="h" d="M84,101.39a0.86,0.86,0,0,1-.86-0.86V90.2A0.86,0.86,0,0,1,84,89.34a6,6,0,1,1,0,12.05h0Zm0.86-10.24v8.43a4.3,4.3,0,0,0,0-8.43h0Z" transform="translate(-0.19 -2.5)"/><path class="h" d="M55,94.08a2.16,2.16,0,1,1-2.16-2.15A2.15,2.15,0,0,1,55,94.08" transform="translate(-0.19 -2.5)"/><path class="h" d="M74,94.08a2.16,2.16,0,1,1-2.16-2.15A2.15,2.15,0,0,1,74,94.08" transform="translate(-0.19 -2.5)"/><path class="h" d="M56.31,90.2a0.86,0.86,0,0,1-.85-0.72c-0.1-.57-0.53-0.91-1.64-1.29a0.86,0.86,0,1,1,.56-1.63c0.81,0.27,2.48.84,2.79,2.63a0.86,0.86,0,0,1-.7,1H56.31" transform="translate(-0.19 -2.5)"/><path class="h" d="M68.46,90.2H68.32a0.86,0.86,0,0,1-.71-1,4.41,4.41,0,0,1,8.54,0,0.86,0.86,0,0,1-1.7.29,2.55,2.55,0,0,0-2.54-1.87,2.58,2.58,0,0,0-2.6,1.86,0.86,0.86,0,0,1-.85.72" transform="translate(-0.19 -2.5)"/><path class="h" d="M62.38,105.7a4.31,4.31,0,0,1-4.32-4.3,0.86,0.86,0,0,1,1.73,0,2.59,2.59,0,0,0,5.18,0,0.86,0.86,0,0,1,1.73,0,4.31,4.31,0,0,1-4.32,4.3" transform="translate(-0.19 -2.5)"/><path class="h" d="M62.38,116.67a5.18,5.18,0,0,0,5.08-4.16,0.86,0.86,0,0,0-.85-1H58.16a0.86,0.86,0,0,0-.85,1,5.18,5.18,0,0,0,5.08,4.16" transform="translate(-0.19 -2.5)"/><path class="l" d="M77.49,78.15h-0.4a5.81,5.81,0,0,0-4.4,2.16c-1.84,2.14-5.8,2.57-11.6,2.57-2.41,0-4.19,1.63-5.8,4A3.11,3.11,0,0,1,57.13,89c1.69-2.22,3.63-3.68,6.22-3.68,5.74,0,10-.39,11.71-2.43a7.19,7.19,0,0,1,5.42-2.64h0.42a6.83,6.83,0,0,1,1.06.08,5.61,5.61,0,0,0-4.48-2.23" transform="translate(-0.19 -2.5)"/><path class="h" d="M77.49,77.29h-0.4A6.71,6.71,0,0,0,72,79.76C70.39,81.66,66.45,82,61.09,82c-2.85,0-4.84,1.87-6.62,4.58a7.58,7.58,0,0,1,.82.33c1.61-2.42,3.39-4,5.8-4,5.8,0,9.76-.43,11.6-2.57a5.81,5.81,0,0,1,4.4-2.16h0.4A5.61,5.61,0,0,1,82,80.39a7.07,7.07,0,0,1,1.22.31,6.47,6.47,0,0,0-5.7-3.4" transform="translate(-0.19 -2.5)"/><path class="l" d="M50.91,94.94c-2.23,4.15-4.92,8.33-9.18,10.71a21.15,21.15,0,0,0,.71,4.06c5-2.95,7.94-8.46,10.54-13.49H52.89a2.16,2.16,0,0,1-2-1.29m3.46-6.53c-0.64,1.1-1.26,2.3-1.91,3.55a2.16,2.16,0,0,1,2.24,1c0.53-1,1.06-1.88,1.61-2.72h0a0.86,0.86,0,0,1-.85-0.72,1.47,1.47,0,0,0-1.09-1.08" transform="translate(-0.19 -2.5)"/><path class="h" d="M53.57,88.07c-3.26,5.64-6.08,13.69-12.74,17.09a22,22,0,0,0,.84,5v0l0.77-.42a21.15,21.15,0,0,1-.71-4.06c4.26-2.38,7-6.57,9.18-10.71a2.15,2.15,0,0,1,1.55-3c0.64-1.25,1.27-2.46,1.91-3.55l-0.56-.21a0.86,0.86,0,0,1-.24-0.13" transform="translate(-0.19 -2.5)"/><path class="h" d="M52.89,91.92a2.15,2.15,0,1,0,0,4.3H53c0.59-1.14,1.16-2.25,1.73-3.31a2.16,2.16,0,0,0-1.82-1" transform="translate(-0.19 -2.5)"/><path class="h" d="M54.47,86.6c-0.3.47-.6,1-0.9,1.47a0.86,0.86,0,0,0,.24.13l0.56,0.21a1.47,1.47,0,0,1,1.09,1.08,0.86,0.86,0,0,0,.85.72h0c0.27-.4.54-0.79,0.81-1.15a3.11,3.11,0,0,0-1.84-2.12,7.58,7.58,0,0,0-.82-0.33" transform="translate(-0.19 -2.5)"/><path class="m" d="M409.94,59.82a25.45,25.45,0,0,0-50.88,0h0V78.39a25.45,25.45,0,0,0,50.89.41v-19h0" transform="translate(-0.19 -2.5)"/><path class="m" d="M384.5,104.61h-0.45a26.38,26.38,0,0,1-25.86-26.22V59h0c0.53-13.77,12.15-24.83,26.29-24.83S410.26,45.2,410.79,59h0V78.8a25.4,25.4,0,0,1-7.71,18.25,26.4,26.4,0,0,1-18.61,7.56M359.93,60.46V78.39a24.67,24.67,0,0,0,42,17.46,23.73,23.73,0,0,0,7.2-17v-19c-0.07-13.22-11.09-24-24.57-24s-24.5,10.76-24.57,24v0.63" transform="translate(-0.19 -2.5)"/><path class="m" d="M359.93,77v1.35q0,0.64,0,1.28a25.43,25.43,0,0,0,11.72,13.08,20.46,20.46,0,0,1-5.88-7.83A27.59,27.59,0,0,1,359.93,77m49.15-.1a28.66,28.66,0,0,1-5.56,7.44,19.8,19.8,0,0,1-4.68,7.14l-0.3.28a27.22,27.22,0,0,0,10.52-12.2q0-.4,0-0.79V76.93" transform="translate(-0.19 -2.5)"/><path class="m" d="M359.06,75q0,2,.14,3.85a0.87,0.87,0,0,1,.68.57L360,79.66q0-.64,0-1.28V77a17.65,17.65,0,0,1-.87-2m50.89,0a17.84,17.84,0,0,1-.87,1.91V78.8q0,0.4,0,.79l0.06-.16a0.86,0.86,0,0,1,.6-0.54c0.22-2.37.22-3.86,0.22-3.86" transform="translate(-0.19 -2.5)"/><path class="m" d="M403.9,61.64a19.41,19.41,0,0,0-38.8,0h0V77.13a19.41,19.41,0,0,0,38.81.31V61.64h0" transform="translate(-0.19 -2.5)"/><path class="m" d="M384.5,97.33h-0.35a20.32,20.32,0,0,1-19.93-20.2V61.57a20.28,20.28,0,0,1,40.54,0V77.44a19.57,19.57,0,0,1-5.94,14.07,20.34,20.34,0,0,1-14.33,5.83M366,61.7V77.13a18.59,18.59,0,0,0,18.22,18.5h0.32a18.59,18.59,0,0,0,13.11-5.33A17.9,17.9,0,0,0,403,77.44V61.64a18.54,18.54,0,0,0-37.07,0V61.7" transform="translate(-0.19 -2.5)"/><path class="m" d="M377.11,66.18A2.17,2.17,0,1,1,374.94,64a2.15,2.15,0,0,1,2.17,2.13" transform="translate(-0.19 -2.5)"/><path class="m" d="M396.23,66.18A2.17,2.17,0,1,1,394.06,64a2.15,2.15,0,0,1,2.17,2.13" transform="translate(-0.19 -2.5)"/><path class="m" d="M371.5,62.34h-0.14a0.85,0.85,0,0,1-.72-1,4.46,4.46,0,0,1,8.6,0,0.85,0.85,0,0,1-.71,1,0.87,0.87,0,0,1-1-.7A2.56,2.56,0,0,0,375,59.79a2.59,2.59,0,0,0-2.62,1.84,0.86,0.86,0,0,1-.86.72" transform="translate(-0.19 -2.5)"/><path class="m" d="M390.61,62.34h-0.14a0.85,0.85,0,0,1-.72-1,4.46,4.46,0,0,1,8.6,0,0.85,0.85,0,0,1-.71,1,0.87,0.87,0,0,1-1-.7,2.56,2.56,0,0,0-2.56-1.85,2.59,2.59,0,0,0-2.62,1.84,0.86,0.86,0,0,1-.86.72" transform="translate(-0.19 -2.5)"/><path class="m" d="M384.5,77.69a4.31,4.31,0,0,1-4.34-4.26,0.87,0.87,0,0,1,1.74,0,2.61,2.61,0,0,0,5.21,0,0.87,0.87,0,0,1,1.74,0,4.31,4.31,0,0,1-4.34,4.26" transform="translate(-0.19 -2.5)"/><path class="m" d="M384.5,88.56a5.19,5.19,0,0,0,5.11-4.12,0.85,0.85,0,0,0-.86-1h-8.51a0.85,0.85,0,0,0-.86,1,5.19,5.19,0,0,0,5.11,4.12" transform="translate(-0.19 -2.5)"/><path class="m" d="M387.19,42.89c3.16,6.44,9.54,17.54,16.71,19.4V61.64h0a19.16,19.16,0,0,0-16.71-18.75" transform="translate(-0.19 -2.5)"/><path class="m" d="M404.77,63.39l-1.09-.28c-7.51-1.94-14-13.27-17.27-19.85l-0.7-1.43L387.31,42a20.13,20.13,0,0,1,17.43,18.74h0v2.61M388.74,44C394.81,55.91,400,59.83,403,61.09A18.38,18.38,0,0,0,388.74,44" transform="translate(-0.19 -2.5)"/><path class="m" d="M384.5,43.56A18.46,18.46,0,0,0,366.11,59.5a19.38,19.38,0,0,1,18.39-13,19.89,19.89,0,0,1,3.8.37c-0.63-1.14-1.19-2.24-1.69-3.23a18.86,18.86,0,0,0-2.12-.12" transform="translate(-0.19 -2.5)"/><path class="m" d="M384.5,42.7a19.22,19.22,0,0,0-19.4,18.94h0v3.84h0a18.68,18.68,0,0,1,1-6A18.46,18.46,0,0,1,384.5,43.56a18.86,18.86,0,0,1,2.12.12l-0.2-.41-0.24-.49q-0.83-.07-1.67-0.07" transform="translate(-0.19 -2.5)"/><path class="m" d="M388.74,44q1,1.86,1.87,3.46a19.27,19.27,0,0,1,12.28,12A18.43,18.43,0,0,0,388.74,44" transform="translate(-0.19 -2.5)"/><path class="m" d="M403.74,63.13a18.87,18.87,0,0,1,.16,2.35h0V63.17l-0.16,0" transform="translate(-0.19 -2.5)"/><path class="m" d="M386.17,42.77l0.24,0.49,0.2,0.41c0.49,1,1.06,2.09,1.69,3.23a19.62,19.62,0,0,1,2.31.6q-0.92-1.61-1.87-3.46a18.43,18.43,0,0,1,14.15,15.45,18.6,18.6,0,0,1,.85,3.63l0.16,0V61.64h0a19.19,19.19,0,0,0-17.73-18.87" transform="translate(-0.19 -2.5)"/><path class="m" d="M397.5,110.93c-30.39,0-38.44-14-38.44-31.22a26.31,26.31,0,0,0,25.23,16.76,27.19,27.19,0,0,0,25.66-16.76s0,22.34-12.44,31.22" transform="translate(-0.19 -2.5)"/><path class="m" d="M397.5,111.79c-26.45,0-39.31-10.49-39.31-32.07a0.86,0.86,0,0,1,.73-0.84,0.87,0.87,0,0,1,1,.58c0.22,0.66,5.66,16.17,24.4,16.17a26.47,26.47,0,0,0,24.84-16.19,0.87,0.87,0,0,1,1-.56,0.86,0.86,0,0,1,.72.84,60.74,60.74,0,0,1-1.58,12.47c-2.08,9-6,15.69-11.22,19.44a0.88,0.88,0,0,1-.51.16m-37.41-28c0.63,7.47,3.07,13.18,7.4,17.4,6,5.86,16,8.86,29.72,8.9,8.6-6.34,11-19.62,11.61-26.32a27.92,27.92,0,0,1-24.55,13.57c-14,0-21.16-8.43-24.19-13.54" transform="translate(-0.19 -2.5)"/><path class="m" d="M409.94,79.71a22,22,0,0,1-1.78,3.53c0.61-.52,1.18-1,1.7-1.52,0.08-1.26.08-2,.08-2" transform="translate(-0.19 -2.5)"/><path class="m" d="M360.09,83.79c0.63,7.47,3.07,13.18,7.4,17.4,6,5.86,16,8.86,29.72,8.9a19.58,19.58,0,0,0,2.46-2.16c-23.91-.59-36.1-11-39.56-24.1l0,0" transform="translate(-0.19 -2.5)"/><path class="m" d="M359.06,79.71c0,17.24,8,31.22,38.44,31.22a20.67,20.67,0,0,0,3.33-3l-1.16,0a19.58,19.58,0,0,1-2.46,2.16c-13.69,0-23.69-3-29.72-8.9-4.33-4.21-6.77-9.93-7.4-17.4l0,0a31.07,31.07,0,0,1-.65-3.09c-0.28-.64-0.41-1-0.41-1" transform="translate(-0.19 -2.5)"/><path class="n" d="M409.94,55.82a25.45,25.45,0,0,0-50.88,0h0V74.39a25.45,25.45,0,0,0,50.89.41v-19h0" transform="translate(-0.19 -2.5)"/><path class="h" d="M384.5,100.61h-0.45a26.38,26.38,0,0,1-25.86-26.22V55h0c0.53-13.77,12.15-24.83,26.29-24.83S410.26,41.2,410.79,55h0V74.8a25.4,25.4,0,0,1-7.71,18.25,26.4,26.4,0,0,1-18.61,7.56M359.93,56.46V74.39a24.67,24.67,0,0,0,42,17.46,23.73,23.73,0,0,0,7.2-17v-19c-0.07-13.22-11.09-24-24.57-24s-24.5,10.76-24.57,24v0.63" transform="translate(-0.19 -2.5)"/><path class="o" d="M359.93,73v1.35q0,0.64,0,1.28a25.43,25.43,0,0,0,11.72,13.08,20.46,20.46,0,0,1-5.88-7.83A27.59,27.59,0,0,1,359.93,73m49.15-.1a28.66,28.66,0,0,1-5.56,7.44,19.8,19.8,0,0,1-4.68,7.14l-0.3.28a27.22,27.22,0,0,0,10.52-12.2q0-.4,0-0.79V72.93" transform="translate(-0.19 -2.5)"/><path class="h" d="M359.06,71q0,2,.14,3.85a0.87,0.87,0,0,1,.68.57L360,75.66q0-.64,0-1.28V73a17.65,17.65,0,0,1-.87-2m50.89,0a17.84,17.84,0,0,1-.87,1.91V74.8q0,0.4,0,.79l0.06-.16a0.86,0.86,0,0,1,.6-0.54c0.22-2.37.22-3.86,0.22-3.86" transform="translate(-0.19 -2.5)"/><path class="p" d="M403.9,57.64a19.41,19.41,0,0,0-38.8,0h0V73.13a19.41,19.41,0,0,0,38.81.31V57.64h0" transform="translate(-0.19 -2.5)"/><path class="h" d="M384.5,93.33h-0.35a20.32,20.32,0,0,1-19.93-20.2V57.57a20.28,20.28,0,0,1,40.54,0V73.44a19.57,19.57,0,0,1-5.94,14.07,20.34,20.34,0,0,1-14.33,5.83M366,57.7V73.13a18.59,18.59,0,0,0,18.22,18.5h0.32a18.59,18.59,0,0,0,13.11-5.33A17.9,17.9,0,0,0,403,73.44V57.64a18.54,18.54,0,0,0-37.07,0V57.7" transform="translate(-0.19 -2.5)"/><path class="h" d="M377.11,62.18A2.17,2.17,0,1,1,374.94,60a2.15,2.15,0,0,1,2.17,2.13" transform="translate(-0.19 -2.5)"/><path class="h" d="M396.23,62.18A2.17,2.17,0,1,1,394.06,60a2.15,2.15,0,0,1,2.17,2.13" transform="translate(-0.19 -2.5)"/><path class="h" d="M371.5,58.34h-0.14a0.85,0.85,0,0,1-.72-1,4.46,4.46,0,0,1,8.6,0,0.85,0.85,0,0,1-.71,1,0.87,0.87,0,0,1-1-.7A2.56,2.56,0,0,0,375,55.79a2.59,2.59,0,0,0-2.62,1.84,0.86,0.86,0,0,1-.86.72" transform="translate(-0.19 -2.5)"/><path class="h" d="M390.61,58.34h-0.14a0.85,0.85,0,0,1-.72-1,4.46,4.46,0,0,1,8.6,0,0.85,0.85,0,0,1-.71,1,0.87,0.87,0,0,1-1-.7,2.56,2.56,0,0,0-2.56-1.85,2.59,2.59,0,0,0-2.62,1.84,0.86,0.86,0,0,1-.86.72" transform="translate(-0.19 -2.5)"/><path class="h" d="M384.5,73.69a4.31,4.31,0,0,1-4.34-4.26,0.87,0.87,0,0,1,1.74,0,2.61,2.61,0,0,0,5.21,0,0.87,0.87,0,0,1,1.74,0,4.31,4.31,0,0,1-4.34,4.26" transform="translate(-0.19 -2.5)"/><path class="h" d="M384.5,84.56a5.19,5.19,0,0,0,5.11-4.12,0.85,0.85,0,0,0-.86-1h-8.51a0.85,0.85,0,0,0-.86,1,5.19,5.19,0,0,0,5.11,4.12" transform="translate(-0.19 -2.5)"/><path class="q" d="M387.19,38.89c3.16,6.44,9.54,17.54,16.71,19.4V57.64h0a19.16,19.16,0,0,0-16.71-18.75" transform="translate(-0.19 -2.5)"/><path class="h" d="M404.77,59.39l-1.09-.28c-7.51-1.94-14-13.27-17.27-19.85l-0.7-1.43L387.31,38a20.13,20.13,0,0,1,17.43,18.74h0v2.61M388.74,40C394.81,51.91,400,55.83,403,57.09A18.38,18.38,0,0,0,388.74,40" transform="translate(-0.19 -2.5)"/><path class="r" d="M384.5,39.56A18.46,18.46,0,0,0,366.11,55.5a19.38,19.38,0,0,1,18.39-13,19.89,19.89,0,0,1,3.8.37c-0.63-1.14-1.19-2.24-1.69-3.23a18.86,18.86,0,0,0-2.12-.12" transform="translate(-0.19 -2.5)"/><path class="h" d="M384.5,38.7a19.22,19.22,0,0,0-19.4,18.94h0v3.84h0a18.68,18.68,0,0,1,1-6A18.46,18.46,0,0,1,384.5,39.56a18.86,18.86,0,0,1,2.12.12l-0.2-.41-0.24-.49q-0.83-.07-1.67-0.07" transform="translate(-0.19 -2.5)"/><path class="s" d="M388.74,40q1,1.86,1.87,3.46a19.27,19.27,0,0,1,12.28,12A18.43,18.43,0,0,0,388.74,40" transform="translate(-0.19 -2.5)"/><path class="h" d="M403.74,59.13a18.87,18.87,0,0,1,.16,2.35h0V59.17l-0.16,0" transform="translate(-0.19 -2.5)"/><path class="h" d="M386.17,38.77l0.24,0.49,0.2,0.41c0.49,1,1.06,2.09,1.69,3.23a19.62,19.62,0,0,1,2.31.6q-0.92-1.61-1.87-3.46a18.43,18.43,0,0,1,14.15,15.45,18.6,18.6,0,0,1,.85,3.63l0.16,0V57.64h0a19.19,19.19,0,0,0-17.73-18.87" transform="translate(-0.19 -2.5)"/><path class="n" d="M397.5,106.93c-30.39,0-38.44-14-38.44-31.22a26.31,26.31,0,0,0,25.23,16.76,27.19,27.19,0,0,0,25.66-16.76s0,22.34-12.44,31.22" transform="translate(-0.19 -2.5)"/><path class="h" d="M397.5,107.79c-26.45,0-39.31-10.49-39.31-32.07a0.86,0.86,0,0,1,.73-0.84,0.87,0.87,0,0,1,1,.58c0.22,0.66,5.66,16.17,24.4,16.17a26.47,26.47,0,0,0,24.84-16.19,0.87,0.87,0,0,1,1-.56,0.86,0.86,0,0,1,.72.84,60.74,60.74,0,0,1-1.58,12.47c-2.08,9-6,15.69-11.22,19.44a0.88,0.88,0,0,1-.51.16m-37.41-28c0.63,7.47,3.07,13.18,7.4,17.4,6,5.86,16,8.86,29.72,8.9,8.6-6.34,11-19.62,11.61-26.32a27.92,27.92,0,0,1-24.55,13.57c-14,0-21.16-8.43-24.19-13.54" transform="translate(-0.19 -2.5)"/><path class="h" d="M409.94,75.71a22,22,0,0,1-1.78,3.53c0.61-.52,1.18-1,1.7-1.52,0.08-1.26.08-2,.08-2" transform="translate(-0.19 -2.5)"/><path class="o" d="M360.09,79.79c0.63,7.47,3.07,13.18,7.4,17.4,6,5.86,16,8.86,29.72,8.9a19.58,19.58,0,0,0,2.46-2.16c-23.91-.59-36.1-11-39.56-24.1l0,0" transform="translate(-0.19 -2.5)"/><path class="h" d="M359.06,75.71c0,17.24,8,31.22,38.44,31.22a20.67,20.67,0,0,0,3.33-3l-1.16,0a19.58,19.58,0,0,1-2.46,2.16c-13.69,0-23.69-3-29.72-8.9-4.33-4.21-6.77-9.93-7.4-17.4l0,0a31.07,31.07,0,0,1-.65-3.09c-0.28-.64-0.41-1-0.41-1" transform="translate(-0.19 -2.5)"/><g class="t"><g class="t"><path class="u" d="M149.52,24.51l1.44-1.3a14.54,14.54,0,0,0,1-1.07,4.78,4.78,0,0,0,.65-0.9,1.77,1.77,0,0,0,.22-0.82,1.24,1.24,0,0,0-.34-0.9,1.41,1.41,0,0,0-1.05-.35,1.63,1.63,0,0,0-.83.22,3.23,3.23,0,0,0-.69.55l-0.47-.47a3.82,3.82,0,0,1,.93-0.71,2.46,2.46,0,0,1,1.17-.26,2.6,2.6,0,0,1,.86.13,1.9,1.9,0,0,1,.66.38,1.64,1.64,0,0,1,.42.6,2,2,0,0,1,.15.77,2.1,2.1,0,0,1-.22.91,4.74,4.74,0,0,1-.6.94,11.25,11.25,0,0,1-.93,1q-0.54.52-1.19,1.11l0.59,0,0.6,0H154V25h-4.49V24.51Z" transform="translate(-0.19 -2.5)"/><path class="u" d="M159.55,19.69a1.91,1.91,0,0,0-.58-0.37,1.81,1.81,0,0,0-.69-0.13,1.94,1.94,0,0,0-.73.14,1.54,1.54,0,0,0-.61.46,2.49,2.49,0,0,0-.43.84,4.57,4.57,0,0,0-.17,1.29,3,3,0,0,1,.85-0.6,2.21,2.21,0,0,1,1-.23,2.48,2.48,0,0,1,.81.13,1.77,1.77,0,0,1,.63.37,1.65,1.65,0,0,1,.41.62,2.35,2.35,0,0,1,.14.86,2,2,0,0,1-.17.83,2.06,2.06,0,0,1-.46.64,2.09,2.09,0,0,1-.67.42,2.22,2.22,0,0,1-.82.15,2.43,2.43,0,0,1-1-.19,2.09,2.09,0,0,1-.77-0.57,2.74,2.74,0,0,1-.52-1,4.39,4.39,0,0,1-.19-1.34,5.31,5.31,0,0,1,.22-1.63,3.13,3.13,0,0,1,.59-1.1,2.22,2.22,0,0,1,.85-0.62,2.67,2.67,0,0,1,1-.2,2.49,2.49,0,0,1,1,.2,2.84,2.84,0,0,1,.75.48ZM158,24.47a1.42,1.42,0,0,0,.53-0.1,1.23,1.23,0,0,0,.43-0.29,1.37,1.37,0,0,0,.29-0.44,1.49,1.49,0,0,0,.1-0.57,1.35,1.35,0,0,0-.35-1,1.38,1.38,0,0,0-1-.35,1.91,1.91,0,0,0-.8.2,2.57,2.57,0,0,0-.83.67,2.44,2.44,0,0,0,.52,1.41A1.43,1.43,0,0,0,158,24.47Z" transform="translate(-0.19 -2.5)"/></g><g class="t"><path class="u" d="M149.53,48.51l1.44-1.3a14.54,14.54,0,0,0,1-1.07,4.78,4.78,0,0,0,.65-0.9,1.77,1.77,0,0,0,.22-0.82,1.24,1.24,0,0,0-.34-0.9,1.41,1.41,0,0,0-1.05-.35,1.63,1.63,0,0,0-.83.22,3.23,3.23,0,0,0-.69.55l-0.47-.47a3.82,3.82,0,0,1,.93-0.71,2.46,2.46,0,0,1,1.17-.26,2.6,2.6,0,0,1,.86.13,1.9,1.9,0,0,1,.66.38,1.64,1.64,0,0,1,.42.6,2,2,0,0,1,.15.77,2.1,2.1,0,0,1-.22.91,4.74,4.74,0,0,1-.6.94,11.25,11.25,0,0,1-.93,1q-0.54.52-1.19,1.11l0.59,0,0.6,0H154V49h-4.49V48.51Z" transform="translate(-0.19 -2.5)"/><path class="u" d="M157.23,47.34a7.92,7.92,0,0,1,.38-1.42,7.57,7.57,0,0,1,.63-1.3,11.64,11.64,0,0,1,.94-1.3H155.5V42.62h4.62v0.51a10.77,10.77,0,0,0-1,1.38,7.07,7.07,0,0,0-1,2.79,15.4,15.4,0,0,0-.14,1.7h-0.86A13,13,0,0,1,157.23,47.34Z" transform="translate(-0.19 -2.5)"/></g><g class="t"><path class="u" d="M149.53,72.51l1.44-1.3a14.54,14.54,0,0,0,1-1.07,4.78,4.78,0,0,0,.65-0.9,1.77,1.77,0,0,0,.22-0.82,1.24,1.24,0,0,0-.34-0.9,1.41,1.41,0,0,0-1.05-.35,1.63,1.63,0,0,0-.83.22,3.23,3.23,0,0,0-.69.55l-0.47-.47a3.82,3.82,0,0,1,.93-0.71,2.46,2.46,0,0,1,1.17-.26,2.6,2.6,0,0,1,.86.13,1.9,1.9,0,0,1,.66.38,1.64,1.64,0,0,1,.42.6,2,2,0,0,1,.15.77,2.1,2.1,0,0,1-.22.91,4.74,4.74,0,0,1-.6.94,11.25,11.25,0,0,1-.93,1q-0.54.52-1.19,1.11l0.59,0,0.6,0H154V73h-4.49V72.51Z" transform="translate(-0.19 -2.5)"/><path class="u" d="M155.48,71.37a1.4,1.4,0,0,1,.12-0.59,1.87,1.87,0,0,1,.31-0.47,2.09,2.09,0,0,1,.44-0.36,4.37,4.37,0,0,1,.5-0.28v0a2.6,2.6,0,0,1-.68-0.62,1.37,1.37,0,0,1-.29-0.87,1.52,1.52,0,0,1,.15-0.67,1.5,1.5,0,0,1,.41-0.51,2,2,0,0,1,.63-0.33,2.48,2.48,0,0,1,.79-0.12,2.58,2.58,0,0,1,.83.13,1.82,1.82,0,0,1,.62.35,1.5,1.5,0,0,1,.39.54,1.71,1.71,0,0,1,.14.69,1.42,1.42,0,0,1-.29.84,2.87,2.87,0,0,1-.69.67v0a5,5,0,0,1,.49.28,2,2,0,0,1,.4.34,1.39,1.39,0,0,1,.26.45,1.7,1.7,0,0,1,.09.59,1.48,1.48,0,0,1-.15.67,1.6,1.6,0,0,1-.45.54,2.16,2.16,0,0,1-.71.36,3.36,3.36,0,0,1-1,.13,3.43,3.43,0,0,1-1-.13,2.21,2.21,0,0,1-.73-0.37,1.67,1.67,0,0,1-.46-0.55A1.5,1.5,0,0,1,155.48,71.37Zm0.75-.08a1.07,1.07,0,0,0,.44.88,1.86,1.86,0,0,0,1.17.34,1.7,1.7,0,0,0,1.1-.31,1,1,0,0,0,.38-0.81,1,1,0,0,0-.15-0.55,1.32,1.32,0,0,0-.43-0.38,3.42,3.42,0,0,0-.63-0.29l-0.79-.26a3.2,3.2,0,0,0-.78.58A1.12,1.12,0,0,0,156.23,71.29Zm2.09-1.77a1.61,1.61,0,0,0,.8-1.28,1.09,1.09,0,0,0-.33-0.81,1.32,1.32,0,0,0-1-.32,1.3,1.3,0,0,0-.87.28,0.94,0.94,0,0,0-.33.75,0.9,0.9,0,0,0,.13.5,1.28,1.28,0,0,0,.36.37,2.77,2.77,0,0,0,.54.29Q158,69.41,158.32,69.52Z" transform="translate(-0.19 -2.5)"/></g><g class="t"><path class="u" d="M149.52,95.51l1.44-1.3a14.54,14.54,0,0,0,1-1.07,4.78,4.78,0,0,0,.65-0.9,1.77,1.77,0,0,0,.22-0.82,1.24,1.24,0,0,0-.34-0.9,1.41,1.41,0,0,0-1.05-.35,1.63,1.63,0,0,0-.83.22,3.23,3.23,0,0,0-.69.55l-0.47-.47a3.82,3.82,0,0,1,.93-0.71,2.46,2.46,0,0,1,1.17-.26,2.6,2.6,0,0,1,.86.13,1.9,1.9,0,0,1,.66.38,1.64,1.64,0,0,1,.42.6,2,2,0,0,1,.15.77,2.1,2.1,0,0,1-.22.91,4.74,4.74,0,0,1-.6.94,11.25,11.25,0,0,1-.93,1q-0.54.52-1.19,1.11l0.59,0,0.6,0H154V96h-4.49V95.51Z" transform="translate(-0.19 -2.5)"/><path class="u" d="M156,94.93a1.86,1.86,0,0,0,.57.37,1.77,1.77,0,0,0,.7.14A1.9,1.9,0,0,0,158,95.3a1.52,1.52,0,0,0,.61-0.46,2.5,2.5,0,0,0,.43-0.84,4.9,4.9,0,0,0,.18-1.29,3.15,3.15,0,0,1-.85.6,2.21,2.21,0,0,1-1,.22,2.45,2.45,0,0,1-.8-0.12A1.69,1.69,0,0,1,156,93a1.67,1.67,0,0,1-.41-0.62,2.35,2.35,0,0,1-.15-0.86,2,2,0,0,1,.17-0.83,2,2,0,0,1,.47-0.64,2.14,2.14,0,0,1,.68-0.42,2.19,2.19,0,0,1,.81-0.15,2.46,2.46,0,0,1,1,.19,2.09,2.09,0,0,1,.78.57,2.75,2.75,0,0,1,.51,1,4.38,4.38,0,0,1,.19,1.35,5.19,5.19,0,0,1-.23,1.63,3.17,3.17,0,0,1-.59,1.1,2.23,2.23,0,0,1-.85.62,2.63,2.63,0,0,1-1,.2,2.54,2.54,0,0,1-1-.19,2.74,2.74,0,0,1-.75-0.48Zm1.56-2a1.89,1.89,0,0,0,.79-0.2,2.73,2.73,0,0,0,.84-0.66,2.56,2.56,0,0,0-.52-1.42,1.54,1.54,0,0,0-1.66-.38,1.24,1.24,0,0,0-.43.29,1.36,1.36,0,0,0-.28.45,1.5,1.5,0,0,0-.1.57,1.36,1.36,0,0,0,.34,1A1.37,1.37,0,0,0,157.6,92.9Z" transform="translate(-0.19 -2.5)"/></g><g class="t"><path class="u" d="M149.79,118.68a3.36,3.36,0,0,0,.76.53,2.29,2.29,0,0,0,1.06.23,2.1,2.1,0,0,0,.61-0.08,1.61,1.61,0,0,0,.48-0.24,1.08,1.08,0,0,0,.32-0.37,1,1,0,0,0,.12-0.49,1,1,0,0,0-.53-0.92,2.28,2.28,0,0,0-.72-0.26,5.47,5.47,0,0,0-1.07-.09v-0.63a4.45,4.45,0,0,0,1-.09,2.06,2.06,0,0,0,.65-0.25,1,1,0,0,0,.36-0.38,1,1,0,0,0,.12-0.47,0.88,0.88,0,0,0-.35-0.74,1.52,1.52,0,0,0-.95-0.27,2.06,2.06,0,0,0-.85.18,2.74,2.74,0,0,0-.72.47l-0.44-.52a3.55,3.55,0,0,1,.91-0.58,2.78,2.78,0,0,1,1.13-.22,3,3,0,0,1,.83.11,2.14,2.14,0,0,1,.67.31,1.47,1.47,0,0,1,.44.5,1.44,1.44,0,0,1,.16.69,1.27,1.27,0,0,1-.38,1,2.52,2.52,0,0,1-1,.57v0a2.83,2.83,0,0,1,.6.21,2,2,0,0,1,.5.34,1.51,1.51,0,0,1,.35.48,1.41,1.41,0,0,1,.13.6,1.6,1.6,0,0,1-.18.76,1.7,1.7,0,0,1-.5.58,2.31,2.31,0,0,1-.73.36,3.5,3.5,0,0,1-2.29-.15,3.36,3.36,0,0,1-.91-0.62Z" transform="translate(-0.19 -2.5)"/><path class="u" d="M157.8,120.12a1.94,1.94,0,0,1-1.68-.87,4.24,4.24,0,0,1-.61-2.46,4.14,4.14,0,0,1,.61-2.45,2.1,2.1,0,0,1,3.36,0,4.14,4.14,0,0,1,.61,2.45,4.24,4.24,0,0,1-.61,2.46A1.94,1.94,0,0,1,157.8,120.12Zm0-6a1.27,1.27,0,0,0-.61.15,1.32,1.32,0,0,0-.49.48,2.58,2.58,0,0,0-.31.82,5.53,5.53,0,0,0-.11,1.18,3.76,3.76,0,0,0,.42,2,1.25,1.25,0,0,0,2.19,0,3.76,3.76,0,0,0,.42-2,5.53,5.53,0,0,0-.11-1.18,2.58,2.58,0,0,0-.32-0.82,1.32,1.32,0,0,0-.48-0.48A1.27,1.27,0,0,0,157.8,114.16Zm0,3.23a0.61,0.61,0,0,1-.44-0.17,0.65,0.65,0,0,1-.19-0.5,0.63,0.63,0,0,1,.19-0.48,0.63,0.63,0,0,1,.87,0,0.64,0.64,0,0,1,.19.48,0.65,0.65,0,0,1-.19.5A0.61,0.61,0,0,1,157.8,117.39Z" transform="translate(-0.19 -2.5)"/></g><g class="t"><path class="u" d="M149.79,142.68a3.36,3.36,0,0,0,.76.53,2.29,2.29,0,0,0,1.06.23,2.1,2.1,0,0,0,.61-0.08,1.61,1.61,0,0,0,.48-0.24,1.08,1.08,0,0,0,.32-0.37,1,1,0,0,0,.12-0.49,1,1,0,0,0-.53-0.92,2.28,2.28,0,0,0-.72-0.26,5.47,5.47,0,0,0-1.07-.09v-0.63a4.45,4.45,0,0,0,1-.09,2.06,2.06,0,0,0,.65-0.25,1,1,0,0,0,.36-0.38,1,1,0,0,0,.12-0.47,0.88,0.88,0,0,0-.35-0.74,1.52,1.52,0,0,0-.95-0.27,2.06,2.06,0,0,0-.85.18,2.74,2.74,0,0,0-.72.47l-0.44-.52a3.55,3.55,0,0,1,.91-0.58,2.78,2.78,0,0,1,1.13-.22,3,3,0,0,1,.83.11,2.14,2.14,0,0,1,.67.31,1.47,1.47,0,0,1,.44.5,1.44,1.44,0,0,1,.16.69,1.27,1.27,0,0,1-.38,1,2.52,2.52,0,0,1-1,.57v0a2.83,2.83,0,0,1,.6.21,2,2,0,0,1,.5.34,1.51,1.51,0,0,1,.35.48,1.41,1.41,0,0,1,.13.6,1.6,1.6,0,0,1-.18.76,1.7,1.7,0,0,1-.5.58,2.31,2.31,0,0,1-.73.36,3.5,3.5,0,0,1-2.29-.15,3.36,3.36,0,0,1-.91-0.62Z" transform="translate(-0.19 -2.5)"/><path class="u" d="M160.08,143.32V144h-4.3v-0.68h1.81v-4.7h-1.36v-0.53a6.51,6.51,0,0,0,.89-0.2,3.74,3.74,0,0,0,.68-0.27h0.61v5.7h1.67Z" transform="translate(-0.19 -2.5)"/></g></g></svg>