<?xml version="1.0" encoding="UTF-8"?>
<svg width="183px" height="445px" viewBox="0 0 183 445" version="1.1" xmlns="http://www.w3.org/2000/svg" xmlns:xlink="http://www.w3.org/1999/xlink">
    <!-- Generator: Sketch 48.2 (47327) - http://www.bohemiancoding.com/sketch -->
    <title>Shape</title>
    <desc>Created with Sketch.</desc>
    <defs></defs>
    <g id="Bitbucket" stroke="none" stroke-width="1" fill="none" fill-rule="evenodd">
        <g id="branch-compare-top" fill="#7A869A" fill-rule="nonzero">
            <path d="M20.6,444.8 L20.6,86.7 C20.6,64.5 38.8,46.2 61.1,46.2 L113.2,46.2 C117.8,60.9 130.9,71.5 147.1,71.5 C166.9,71.5 182.5,55.8 182.5,36.1 C182.5,16.4 166.9,0.6 147.2,0.6 C131,0.6 117.8,11.2 113.3,25.9 L61.2,25.9 C27.8,25.9 0.5,53.2 0.5,86.6 L0.5,444.7 L20.6,444.7 L20.6,444.8 Z M147.2,20.8 C155.8,20.8 162.4,27.4 162.4,36 C162.4,44.6 155.8,51.2 147.2,51.2 C138.6,51.2 132,44.6 132,36 C132,27.4 138.6,20.8 147.2,20.8 Z" id="Shape"></path>
        </g>
    </g>
</svg>