<?xml version="1.0" encoding="utf-8"?>
<svg width="16px" height="16px" viewBox="0 0 16 16" version="1.1" xmlns="http://www.w3.org/2000/svg" xmlns:xlink="http://www.w3.org/1999/xlink">
    <title>icon-approved</title>
    <g id="icon-approved" >
        <path fill="#36B37E" d="M8,15 C4.13400675,15 1,11.8659932 1,8 C1,4.13400675 4.13400675,1 8,1 C11.8659932,1 15,4.13400675 15,8 C15,11.8659932 11.8659932,15 8,15 Z M6.21654185,7.44999822 C5.91278425,7.14624062 5.42029588,7.14624062 5.11653829,7.44999822 C4.81278069,7.75375582 4.81278069,8.24624418 5.11653829,8.55000178 L6.67217824,10.1056417 C6.97593584,10.4093993 7.46842421,10.4093993 7.7721818,10.1056417 L10.8834617,6.99436183 C11.1872193,6.69060423 11.1872193,6.19811586 10.8834617,5.89435827 C10.5797041,5.59060067 10.0872157,5.59060067 9.78345815,5.89435827 L7.22218002,8.45563639 L6.21654185,7.44999822 Z" id="path-1"></path>
    </g>
</svg>
