<svg xmlns="http://www.w3.org/2000/svg" width="4.23mm" height="5.05mm" viewBox="0 0 12 14.31"><title>icon-all-2</title><path d="M13,11.91a2.47,2.47,0,0,0,.32-0.27A2.22,2.22,0,0,0,14,10V2.31A2.22,2.22,0,0,0,13.32.68,2.22,2.22,0,0,0,11.69,0H6.31A2.22,2.22,0,0,0,4.68.68,2.47,2.47,0,0,0,4.4,1H5.5A1.48,1.48,0,0,1,6.31.77h5.38a1.49,1.49,0,0,1,1.08.45,1.48,1.48,0,0,1,.45,1.09V10a1.47,1.47,0,0,1-.23.81v1.09Z" transform="translate(-2 0)" style="fill:#999"/><path d="M4.31,2H9.69a2.22,2.22,0,0,1,1.63.68A2.22,2.22,0,0,1,12,4.31V12a2.31,2.31,0,0,1-2.31,2.31H4.31a2.22,2.22,0,0,1-1.63-.68A2.22,2.22,0,0,1,2,12V4.31a2.22,2.22,0,0,1,.68-1.63A2.22,2.22,0,0,1,4.31,2Zm6.92,10V4.31A1.54,1.54,0,0,0,9.69,2.77H4.31A1.54,1.54,0,0,0,2.77,4.31V12a1.54,1.54,0,0,0,1.54,1.54H9.69A1.54,1.54,0,0,0,11.23,12Z" transform="translate(-2 0)" style="fill:#999"/><polygon points="4.5 4 5.5 4 5.5 6.4 5.5 7 4.5 7 4.5 4" style="fill:#999"/><polygon points="4.5 9 5.5 9 5.5 11.4 5.5 12 4.5 12 4.5 9" style="fill:#999"/><path d="M7,10A2,2,0,1,1,9,8,2,2,0,0,1,7,10ZM7,7A1,1,0,1,0,8,8,1,1,0,0,0,7,7Z" transform="translate(-2 0)" style="fill:#999"/></svg>