<?xml version="1.0" encoding="UTF-8"?>
<svg width="64px" height="64px" viewBox="0 0 64 64" version="1.1" xmlns="http://www.w3.org/2000/svg" xmlns:xlink="http://www.w3.org/1999/xlink">
    <!-- Generator: Sketch 51.1 (57501) - http://www.bohemiancoding.com/sketch -->
    <title>severity/medium</title>
    <desc>Created with Sketch.</desc>
    <defs></defs>
    <g id="severity/medium" stroke="none" stroke-width="1" fill="none" fill-rule="evenodd">
        <path d="M34.75,14.167 L49.519,28.936 C51.075,30.492 51.075,33.037 49.519,34.593 C47.963,36.148 45.417,36.148 43.862,34.593 L34.6760445,25.4070445 C33.1113458,23.8423458 30.5792845,23.8374437 29.0095775,25.4070445 L19.823,34.593 C18.268,36.148 15.722,36.148 14.167,34.593 C12.611,33.037 12.611,30.492 14.167,28.936 L28.936,14.167 C29.7338573,13.3691427 30.7917471,12.9803961 31.843,13.0007602 C32.8942529,12.9803961 33.9521427,13.3691427 34.75,14.167 Z" id="Combined-Shape" fill="#FF991F"></path>
        <path d="M34.75,30.167 L49.519,44.936 C51.075,46.492 51.075,49.037 49.519,50.593 C47.963,52.148 45.417,52.148 43.862,50.593 L34.6760445,41.4070445 C33.1113458,39.8423458 30.5792845,39.8374437 29.0095775,41.4070445 L19.823,50.593 C18.268,52.148 15.722,52.148 14.167,50.593 C12.611,49.037 12.611,46.492 14.167,44.936 L28.936,30.167 C29.7338573,29.3691427 30.7917471,28.9803961 31.843,29.0007602 C32.8942529,28.9803961 33.9521427,29.3691427 34.75,30.167 Z" id="Combined-Shape" fill="#FF991F"></path>
    </g>
</svg>
