<?xml version="1.0" encoding="utf-8"?>
<!DOCTYPE svg PUBLIC "-//W3C//DTD SVG 1.1//EN" "http://www.w3.org/Graphics/SVG/1.1/DTD/svg11.dtd">
<svg version="1.1" xmlns="http://www.w3.org/2000/svg" xmlns:xlink="http://www.w3.org/1999/xlink" x="0px" y="0px"
	 width="64px" height="64px" viewBox="0 0 64 64" enable-background="new 0 0 64 64" xml:space="preserve">
<path fill="#CCCBCB" d="M31.937,0.292c-8.482,0-15.383,6.902-15.383,15.385c0,5.203,2.666,10.068,7.01,12.896v1.647
	c0,2.165,1.763,3.926,3.929,3.926h8.895c2.163,0,3.922-1.761,3.922-3.926v-1.647c4.349-2.827,7.016-7.692,7.016-12.896
	C47.325,7.193,40.423,0.292,31.937,0.292z M26.058,20.719c-1.997,0-3.621-1.622-3.621-3.615c0-1.997,1.624-3.622,3.621-3.622
	s3.621,1.625,3.621,3.622C29.679,19.098,28.054,20.719,26.058,20.719z M37.818,20.719c-1.995,0-3.617-1.622-3.617-3.615
	c0-1.997,1.622-3.622,3.617-3.622c1.996,0,3.619,1.625,3.619,3.622C41.437,19.098,39.814,20.719,37.818,20.719z"/>
<path fill="#CCCBCB" d="M50.951,63.708c-0.744,0-1.491-0.181-2.156-0.527c-2.284-1.186-3.185-4.002-2.021-6.293L32,49.222
	l-14.772,7.666c1.164,2.289,0.263,5.105-2.021,6.293c-0.667,0.346-1.413,0.527-2.158,0.527c-1.761,0-3.357-0.97-4.166-2.531
	c-0.725-1.399-0.677-3.007,0.014-4.32c-1.511-0.194-2.834-1.107-3.541-2.478c-0.578-1.111-0.688-2.38-0.31-3.576
	c0.378-1.194,1.201-2.171,2.313-2.749c0.667-0.343,1.412-0.527,2.157-0.527c1.75,0,3.337,0.958,4.151,2.5l9.942-5.161l-10.064-5.223
	c-0.825,1.546-2.411,2.5-4.154,2.5c-0.745,0-1.492-0.184-2.157-0.527c-2.296-1.194-3.192-4.03-2.002-6.325
	c0.71-1.371,2.033-2.284,3.543-2.478c-0.69-1.314-0.739-2.923-0.015-4.321c0.809-1.561,2.405-2.53,4.165-2.53
	c0.746,0,1.493,0.184,2.158,0.529c1.112,0.576,1.934,1.551,2.312,2.747c0.374,1.182,0.27,2.439-0.294,3.542L32,40.511l14.897-7.732
	c-0.563-1.1-0.668-2.359-0.293-3.543c0.378-1.195,1.201-2.17,2.314-2.746c0.664-0.345,1.411-0.529,2.157-0.529
	c1.758,0,3.354,0.969,4.164,2.53c0.724,1.398,0.675,3.007-0.015,4.322c1.51,0.193,2.833,1.106,3.543,2.478
	c1.19,2.294,0.293,5.13-2.001,6.323c-0.666,0.345-1.412,0.529-2.157,0.529c-1.749,0-3.337-0.958-4.155-2.5L40.39,44.866l9.943,5.161
	c0.817-1.544,2.402-2.5,4.151-2.5c0.746,0,1.491,0.184,2.155,0.527c1.114,0.578,1.937,1.555,2.315,2.749
	c0.377,1.196,0.268,2.465-0.31,3.579c-0.707,1.369-2.03,2.282-3.541,2.476c0.691,1.313,0.739,2.923,0.014,4.322
	C54.308,62.738,52.712,63.708,50.951,63.708z"/>
</svg>
