<?xml version="1.0" encoding="utf-8"?>
<!DOCTYPE svg PUBLIC "-//W3C//DTD SVG 1.1//EN" "http://www.w3.org/Graphics/SVG/1.1/DTD/svg11.dtd">
<svg version="1.1" id="Layer_1" xmlns="http://www.w3.org/2000/svg" xmlns:xlink="http://www.w3.org/1999/xlink" x="0px" y="0px"
	 viewBox="0 0 16 16" enable-background="new 0 0 16 16" xml:space="preserve">
<path fill="#707070" d="M15.525,3.975C15.208,3.658,14.833,3.5,14.4,3.5h-3.2c0-0.433-0.158-0.808-0.475-1.125
	C10.408,2.058,10.033,1.9,9.6,1.9H6.4c-0.433,0-0.808,0.158-1.125,0.475C4.958,2.692,4.8,3.067,4.8,3.5H1.6
	c-0.433,0-0.808,0.158-1.125,0.475C0.158,4.292,0,4.667,0,5.1v6.4c0,0.433,0.158,0.808,0.475,1.125
	C0.792,12.942,1.167,13.1,1.6,13.1h12.8c0.433,0,0.808-0.158,1.125-0.475C15.842,12.308,16,11.933,16,11.5V5.1
	C16,4.667,15.842,4.292,15.525,3.975z M10.263,10.562C9.638,11.188,8.883,11.5,8,11.5s-1.638-0.312-2.263-0.938S4.8,9.183,4.8,8.3
	s0.312-1.638,0.938-2.263S7.117,5.1,8,5.1s1.638,0.312,2.263,0.938S11.2,7.417,11.2,8.3S10.888,9.938,10.263,10.562z"/>
<path fill="#707070" d="M9.6,8.3c0,0.433-0.158,0.808-0.475,1.125S8.433,9.9,8,9.9c-0.433,0-0.808-0.158-1.125-0.475
	S6.4,8.733,6.4,8.3c0-0.433,0.158-0.808,0.475-1.125C7.192,6.858,7.567,6.7,8,6.7c0.433,0,0.808,0.158,1.125,0.475
	C9.442,7.492,9.6,7.867,9.6,8.3z"/>
</svg>
