<svg xmlns="http://www.w3.org/2000/svg" width="35" height="29" viewBox="0 0 35 29" version="1.1"><title>alert-icon</title><desc>Created with Sketch.</desc><g stroke="none" stroke-width="1" fill="none" fill-rule="evenodd"><g transform="translate(-69.000000, -160.000000)" fill="#F6C342"><g transform="translate(40.000000, 90.000000)"><g transform="translate(10.000000, 36.000000)"><g transform="translate(19.000000, 34.000000)"><path d="M3.3 24.8C2.4 26.3 2.8 26.9 4.5 26.9L30.5 26.9C32.2 26.9 32.6 26.3 31.7 24.8L18.9 3.3C17.9 1.7 17.1 1.7 16.1 3.3L3.3 24.8ZM20.6 2.2L33.4 23.8C35.1 26.6 33.8 28.9 30.5 28.9L4.5 28.9C1.2 28.9-0.1 26.6 1.6 23.8L14.4 2.2C16.1-0.6 18.9-0.6 20.6 2.2Z"/><ellipse cx="17.5" cy="22.9" rx="1" ry="1"/><path d="M16.6 8.2C16.6 7.7 17 7.3 17.5 7.3L17.5 7.3C18 7.3 18.4 7.7 18.4 8.2L17.8 19.4 17.2 19.4 16.6 8.2Z"/></g></g></g></g></g></svg>