<?xml version="1.0" encoding="UTF-8"?>
<svg width="16px" height="16px" viewBox="0 0 16 16" version="1.1" xmlns="http://www.w3.org/2000/svg" xmlns:xlink="http://www.w3.org/1999/xlink">
    <!-- Generator: Sketch 48.2 (47327) - http://www.bohemiancoding.com/sketch -->
    <title>bitbucket/16px/document-comment-16px</title>
    <desc>Created with Sketch.</desc>
    <defs>
        <path d="M11.5,5.949 L11.5,13 L4.5,13 L4.5,3 L8.551,3 C8.527,2.835 8.5,2.671 8.5,2.5 C8.5,1.961 8.633,1.456 8.851,1 L4.5,1 C3.4,1 2.5,1.9 2.5,3 L2.5,13 C2.5,14.1 3.4,15 4.5,15 L11.5,15 C12.6,15 13.5,14.1 13.5,13 L13.5,5.649 C13.043,5.867 12.539,6 12,6 C11.829,6 11.665,5.973 11.5,5.949 M14.5,2.5 C14.5,2.673 14.482,2.841 14.449,3.004 C14.383,3.329 14.253,3.632 14.073,3.898 C13.624,4.562 12.863,5 12,5 C11.827,5 11.659,4.982 11.496,4.949 C11.171,4.883 10.868,4.753 10.602,4.573 C10.336,4.393 10.106,4.163 9.927,3.898 C9.747,3.632 9.617,3.329 9.551,3.004 C9.518,2.841 9.5,2.673 9.5,2.5 C9.5,1.637 9.937,0.876 10.602,0.427 C10.868,0.247 11.171,0.117 11.496,0.051 C11.659,0.017 11.827,0 12,0 C13.381,0 14.5,1.119 14.5,2.5" id="path-1"></path>
    </defs>
    <g id="Symbols" stroke="none" stroke-width="1" fill="none" fill-rule="evenodd">
        <g id="bitbucket/16px/document-comment">
            <mask id="mask-2" fill="white">
                <use xlink:href="#path-1"></use>
            </mask>
            <use id="document-comment" fill="#42526E" xlink:href="#path-1"></use>
            <g id="~icon/color" mask="url(#mask-2)" fill="#42526E" fill-opacity="0">
                <rect id="color" x="0" y="0" width="16" height="16"></rect>
            </g>
        </g>
    </g>
</svg>