<?xml version="1.0" encoding="UTF-8"?>
<svg width="64px" height="64px" viewBox="0 0 64 64" version="1.1" xmlns="http://www.w3.org/2000/svg" xmlns:xlink="http://www.w3.org/1999/xlink">
    <!-- Generator: Sketch 51.1 (57501) - http://www.bohemiancoding.com/sketch -->
    <title>severity/high</title>
    <desc>Created with Sketch.</desc>
    <defs></defs>
    <g id="severity/high" stroke="none" stroke-width="1" fill="none" fill-rule="evenodd">
        <path d="M34.75,6.167 L49.519,20.936 C51.075,22.492 51.075,25.037 49.519,26.593 C47.963,28.148 45.417,28.148 43.862,26.593 L34.6760445,17.4070445 C33.1113458,15.8423458 30.5792845,15.8374437 29.0095775,17.4070445 L19.823,26.593 C18.268,28.148 15.722,28.148 14.167,26.593 C12.611,25.037 12.611,22.492 14.167,20.936 L28.936,6.167 C29.7338573,5.36914266 30.7917471,4.98039608 31.843,5.00076025 C32.8942529,4.98039608 33.9521427,5.36914266 34.75,6.167 Z" id="Combined-Shape" fill="#DE350B"></path>
        <path d="M34.75,21.167 L49.519,35.936 C51.075,37.492 51.075,40.037 49.519,41.593 C47.963,43.148 45.417,43.148 43.862,41.593 L34.6760445,32.4070445 C33.1113458,30.8423458 30.5792845,30.8374437 29.0095775,32.4070445 L19.823,41.593 C18.268,43.148 15.722,43.148 14.167,41.593 C12.611,40.037 12.611,37.492 14.167,35.936 L28.936,21.167 C29.7338573,20.3691427 30.7917471,19.9803961 31.843,20.0007602 C32.8942529,19.9803961 33.9521427,20.3691427 34.75,21.167 Z" id="Combined-Shape" fill="#DE350B"></path>
        <path d="M34.7523078,37.167 L49.5228748,51.936 C51.0790399,53.492 51.0790399,56.037 49.5228748,57.593 C47.9667097,59.148 45.4204396,59.148 43.8652746,57.593 L34.6783444,48.4070445 C33.1134797,46.8423458 30.5811497,46.8374437 29.0112761,48.4070445 L19.8237239,57.593 C18.268559,59.148 15.7222888,59.148 14.1671238,57.593 C12.6109587,56.037 12.6109587,53.492 14.1671238,51.936 L28.9376909,37.167 C29.7356329,36.3691427 30.7936349,35.9803961 31.8449993,36.0007602 C32.8963637,35.9803961 33.9543658,36.3691427 34.7523078,37.167 Z" id="Combined-Shape" fill="#DE350B"></path>
    </g>
</svg>
