<?xml version="1.0" encoding="utf-8"?>
<!DOCTYPE svg PUBLIC "-//W3C//DTD SVG 1.1//EN" "http://www.w3.org/Graphics/SVG/1.1/DTD/svg11.dtd">
<svg version="1.1" xmlns="http://www.w3.org/2000/svg" xmlns:xlink="http://www.w3.org/1999/xlink" x="0px" y="0px"
	 width="157px" height="84px" viewBox="0 0 157 84" enable-background="new 0 0 157 84" xml:space="preserve">
<path fill="#A5ADBA" d="M102.641,38.244c-0.725,0-1.463,0.062-2.205,0.227l1.303,5.857c0.867-0.195,2.148-0.013,3.389,0.163
	c0.773,0.109,1.574,0.223,2.385,0.269c3.301,0.188,6.033,0.652,8.633,2.299c2.996,1.897,4.793,5.204,6.693,8.706
	c1.209,2.225,2.459,4.525,4.09,6.601c1.389,1.768,2.971,3.43,4.701,4.941c2.863,2.502,6.873,4.527,12.262,6.192
	c0.182,0.056,0.359,0.101,0.539,0.145c0.07,0.017,0.141,0.032,0.209,0.054c-0.006-0.002-0.139-0.045-0.312-0.16l3.301-5.01
	c-0.672-0.443-1.334-0.604-1.771-0.712c-0.068-0.017-0.137-0.032-0.203-0.052c-4.559-1.409-7.857-3.037-10.076-4.975
	c-1.451-1.268-2.773-2.658-3.932-4.131c-1.318-1.677-2.395-3.659-3.533-5.757c-2.184-4.021-4.441-8.18-8.758-10.912
	c-3.906-2.475-7.836-3.01-11.5-3.22c-0.561-0.032-1.205-0.123-1.887-0.22C104.928,38.403,103.803,38.244,102.641,38.244z"/>
<g>
	<g>
		<rect x="4.86" y="5" fill="#0747A6" width="49.924" height="6"/>
	</g>
</g>
<g>
	<g>
		<circle fill="#0747A6" cx="7.964" cy="8" r="8"/>
	</g>
</g>
<g>
	<g>
		<circle fill="#0747A6" cx="53.16" cy="8" r="8"/>
	</g>
</g>
<g>
	<g>
		<rect x="8.213" y="39" fill="#7A869A" width="88.071" height="6"/>
	</g>
</g>
<g>
	<g>
		<circle fill="#7A869A" cx="7.964" cy="42" r="8"/>
	</g>
</g>
<path fill="#0747A6" d="M54.641,4.244c-0.725,0-1.463,0.062-2.205,0.227l1.303,5.857c0.867-0.195,2.148-0.013,3.389,0.163
	c0.773,0.109,1.574,0.223,2.385,0.269c3.301,0.188,6.033,0.652,8.633,2.299c2.996,1.897,4.793,5.204,6.693,8.706
	c1.209,2.225,2.459,4.525,4.09,6.601c1.389,1.768,2.971,3.43,4.701,4.941c2.863,2.502,6.873,4.527,12.262,6.192
	c0.182,0.056,0.359,0.101,0.539,0.145c0.07,0.017,0.141,0.032,0.209,0.054c-0.006-0.002-0.139-0.045-0.312-0.16l3.301-5.01
	c-0.672-0.443-1.334-0.604-1.771-0.712c-0.068-0.017-0.137-0.032-0.203-0.052c-4.559-1.409-7.857-3.037-10.076-4.975
	c-1.451-1.268-2.773-2.658-3.932-4.131c-1.318-1.676-2.395-3.659-3.533-5.756c-2.184-4.021-4.441-8.18-8.758-10.912
	c-3.906-2.475-7.836-3.01-11.5-3.22c-0.561-0.032-1.205-0.123-1.887-0.22C56.928,4.403,55.803,4.244,54.641,4.244z"/>
<g>
	<g>
		<circle fill="#FFFFFF" cx="101.027" cy="42" r="6"/>
	</g>
	<g>
		<circle fill="none" stroke="#7A869A" stroke-width="4" stroke-miterlimit="10" cx="101.027" cy="42" r="6"/>
	</g>
</g>
<g>
	<g>
		<rect x="8.213" y="73" fill="#A5ADBA" width="135.876" height="6"/>
	</g>
</g>
<g>
	<g>
		<circle fill="#A5ADBA" cx="7.964" cy="76" r="8"/>
	</g>
</g>
<g>
	<g>
		<circle fill="none" stroke="#A5ADBA" stroke-width="4" stroke-miterlimit="10" cx="148.965" cy="76" r="6"/>
	</g>
</g>
</svg>
