<?xml version="1.0" encoding="UTF-8"?>
<svg width="156px" height="50px" viewBox="0 0 156 50" version="1.1" xmlns="http://www.w3.org/2000/svg" xmlns:xlink="http://www.w3.org/1999/xlink">
    <!-- Generator: Sketch 49 (51002) - http://www.bohemiancoding.com/sketch -->
    <title>Branches</title>
    <desc>Created with Sketch.</desc>
    <defs></defs>
    <g id="Explorations" stroke="none" stroke-width="1" fill="none" fill-rule="evenodd">
        <g id="Modal" transform="translate(-20.000000, -298.000000)">
            <g id="Branches" transform="translate(20.000000, 298.000000)">
                <path d="M108.23088,11.4270054 C106.947241,14.1306465 104.191926,16 101,16 C97.6426224,16 94.7682918,13.9318303 93.581517,11 L15.418483,11 C14.2317082,13.9318303 11.3573776,16 8,16 C3.581722,16 0,12.418278 0,8 C0,3.581722 3.581722,0 8,0 C11.3573776,0 14.2317082,2.06816966 15.418483,5 L93.581517,5 C94.7682918,2.06816966 97.6426224,0 101,0 C104.467185,0 107.419209,2.20566676 108.529471,5.29039828 C116.564796,4.3218501 123.537761,10.1162043 129.385705,21.818089 C133.50964,30.0701886 138.411157,35.236535 144.121863,37.5068249 C145.740772,38.1504216 143.530446,43.8043623 141.211661,42.8021392 C134.345404,39.834411 128.605074,33.6779373 124.018592,24.5002704 C118.868291,14.194387 113.631143,10.1836852 108.23088,11.4270054 Z" id="Combined-Shape" fill="#0747A6"></path>
                <path d="M15.418483,39 L143,39 L143,45 L15.418483,45 C14.2317082,47.9318303 11.3573776,50 8,50 C3.581722,50 0,46.418278 0,42 C0,37.581722 3.581722,34 8,34 C11.3573776,34 14.2317082,36.0681697 15.418483,39 Z" id="Combined-Shape" fill="#7A869A"></path>
                <path d="M148,46 C150.209139,46 152,44.209139 152,42 C152,39.790861 150.209139,38 148,38 C145.790861,38 144,39.790861 144,42 C144,44.209139 145.790861,46 148,46 Z M148,50 C143.581722,50 140,46.418278 140,42 C140,37.581722 143.581722,34 148,34 C152.418278,34 156,37.581722 156,42 C156,46.418278 152.418278,50 148,50 Z" id="Oval-3-Copy-3" fill="#7A869A" fill-rule="nonzero"></path>
            </g>
        </g>
    </g>
</svg>